<?xml version="1.0" encoding="UTF-8" standalone="no"?>
<!-- Created with Inkscape (http://www.inkscape.org/) -->

<svg
   xmlns:dc="http://purl.org/dc/elements/1.1/"
   xmlns:cc="http://creativecommons.org/ns#"
   xmlns:rdf="http://www.w3.org/1999/02/22-rdf-syntax-ns#"
   xmlns:svg="http://www.w3.org/2000/svg"
   xmlns="http://www.w3.org/2000/svg"
   xmlns:sodipodi="http://sodipodi.sourceforge.net/DTD/sodipodi-0.dtd"
   xmlns:inkscape="http://www.inkscape.org/namespaces/inkscape"
   width="210mm"
   height="297mm"
   viewBox="0 0 744.09448819 1052.3622047"
   id="svg2"
   version="1.1"
   inkscape:version="0.91 r13725"
   sodipodi:docname="Icons.svg">
  <defs
     id="defs4">
    <pattern
       y="0"
       x="0"
       height="6"
       width="6"
       patternUnits="userSpaceOnUse"
       id="EMFhbasepattern" />
    <pattern
       y="0"
       x="0"
       height="6"
       width="6"
       patternUnits="userSpaceOnUse"
       id="EMFhbasepattern-7" />
  </defs>
  <sodipodi:namedview
     id="base"
     pagecolor="#ffffff"
     bordercolor="#666666"
     borderopacity="1.0"
     inkscape:pageopacity="0.0"
     inkscape:pageshadow="2"
     inkscape:zoom="0.98994949"
     inkscape:cx="454.34785"
     inkscape:cy="745.99884"
     inkscape:document-units="px"
     inkscape:current-layer="layer1"
     showgrid="false"
     inkscape:snap-bbox="true"
     inkscape:snap-bbox-midpoints="true"
     inkscape:window-width="2560"
     inkscape:window-height="1377"
     inkscape:window-x="-8"
     inkscape:window-y="-8"
     inkscape:window-maximized="1" />
  <metadata
     id="metadata7">
    <rdf:RDF>
      <cc:Work
         rdf:about="">
        <dc:format>image/svg+xml</dc:format>
        <dc:type
           rdf:resource="http://purl.org/dc/dcmitype/StillImage" />
        <dc:title></dc:title>
      </cc:Work>
    </rdf:RDF>
  </metadata>
  <g
     inkscape:label="Ebene 1"
     inkscape:groupmode="layer"
     id="layer1">
    <rect
       style="opacity:1;fill:#ff2a2a;fill-opacity:0.54901961;stroke:#c8beb7;stroke-width:1.41957021;stroke-linecap:round;stroke-linejoin:round;stroke-miterlimit:4;stroke-dasharray:none;stroke-opacity:1"
       id="rect8302"
       width="98.580429"
       height="98.580429"
       x="95.674271"
       y="634.86377"
       rx="0.39321604"
       ry="0.24869201" />
    <text
       xml:space="preserve"
       style="font-style:normal;font-weight:normal;font-size:40px;line-height:125%;font-family:sans-serif;letter-spacing:0px;word-spacing:0px;fill:#000000;fill-opacity:1;stroke:none;stroke-width:1px;stroke-linecap:butt;stroke-linejoin:miter;stroke-opacity:1"
       x="100"
       y="778.07648"
       id="text8080"
       sodipodi:linespacing="125%"><tspan
         sodipodi:role="line"
         id="tspan8082"
         x="100"
         y="778.07648"
         style="font-size:180px" /></text>
    <text
       id="text8089"
       y="130.30122"
       x="-8.0022697"
       style="font-style:normal;font-variant:normal;font-weight:400;font-size:90px;font-family:'Segoe MDL2 Assets';text-align:start;letter-spacing:0px;word-spacing:0px;text-anchor:start;fill:#000000;fill-opacity:1;stroke:none;"
       xml:space="preserve"><tspan
         id="tspan8091"
         y="130.30122"
         x="-8.0022697"
         sodipodi:role="line"><tspan
           id="tspan8093"
           style="font-style:normal;font-variant:normal;font-weight:400;font-size:90px;font-family:'Segoe MDL2 Assets';fill:#000000;"
           dy="0"
           dx="0"></tspan><tspan
           id="tspan8115"
           style="font-style:normal;font-variant:normal;font-weight:400;font-family:'Segoe MDL2 Assets';fill:#000000;font-size:90px;"
           dy="0 0"
           dx="0 0"></tspan></tspan></text>
    <path
       inkscape:connector-curvature="0"
       id="path8425"
       style="font-style:normal;font-variant:normal;font-weight:400;font-size:90px;font-family:'Segoe MDL2 Assets';text-align:start;letter-spacing:0px;word-spacing:0px;text-anchor:start;fill:#000000;fill-opacity:1;stroke:none"
       d="m 158.41175,692.02019 q 5.97656,2.06543 10.7666,5.80078 4.83399,3.69141 8.17383,8.56934 3.38379,4.87793 5.18555,10.67871 1.80176,5.80078 1.80176,12.08496 l -5.625,0 q 0,-7.20703 -2.59278,-13.35937 -2.54883,-6.19629 -7.07519,-10.72266 -4.52637,-4.52637 -10.72266,-7.0752 -6.15234,-2.59277 -13.35937,-2.59277 -4.70215,0 -9.05274,1.18652 -4.35058,1.18653 -8.12988,3.38379 -3.73535,2.15332 -6.81152,5.2295 -3.03223,3.03222 -5.2295,6.81152 -2.15332,3.73535 -3.33984,8.08594 -1.18652,4.35058 -1.18652,9.05273 l -5.625,0 q 0,-6.32812 1.8457,-12.08496 1.8457,-5.80078 5.22949,-10.63477 3.38379,-4.83398 8.17383,-8.52539 4.83398,-3.6914 10.7666,-5.84472 -3.42773,-1.84571 -6.15234,-4.48243 -2.72461,-2.63671 -4.65821,-5.84472 -1.88964,-3.25195 -2.94433,-6.89942 -1.01074,-3.6914 -1.01074,-7.55859 0,-5.84473 2.19726,-10.94238 2.19727,-5.1416 6.02051,-8.96485 3.82324,-3.82324 8.9209,-6.0205 5.1416,-2.19727 10.98633,-2.19727 5.84472,0 10.94238,2.19727 5.1416,2.19726 8.96484,6.0205 3.82324,3.82325 6.02051,8.96485 2.19727,5.09765 2.19727,10.94238 0,3.86719 -1.05469,7.51465 -1.01074,3.64746 -2.94434,6.85547 -1.88965,3.20801 -4.61426,5.88867 -2.68066,2.63672 -6.06445,4.48242 z m -35.94726,-24.74121 q 0,4.6582 1.75781,8.74512 1.80176,4.08691 4.83398,7.16308 3.07617,3.03223 7.16309,4.83399 4.08691,1.75781 8.74512,1.75781 4.6582,0 8.74511,-1.75781 4.08692,-1.80176 7.11914,-4.83399 3.07618,-3.07617 4.83399,-7.16308 1.80176,-4.08692 1.80176,-8.74512 0,-4.6582 -1.80176,-8.74512 -1.75781,-4.08691 -4.83399,-7.11914 -3.03222,-3.07617 -7.11914,-4.83398 -4.08691,-1.80176 -8.74511,-1.80176 -4.65821,0 -8.74512,1.80176 -4.08692,1.75781 -7.16309,4.83398 -3.03222,3.03223 -4.83398,7.11914 -1.75781,4.08692 -1.75781,8.74512 z" />
    <flowRoot
       xml:space="preserve"
       id="flowRoot8452"
       style="fill:black;stroke:none;stroke-opacity:1;stroke-width:1px;stroke-linejoin:miter;stroke-linecap:butt;fill-opacity:1;font-family:sans-serif;font-style:normal;font-weight:normal;font-size:40px;line-height:125%;letter-spacing:0px;word-spacing:0px"><flowRegion
         id="flowRegion8454"><rect
           id="rect8456"
           width="1434.4166"
           height="226.27417"
           x="-51.51778"
           y="162.41782" /></flowRegion><flowPara
         id="flowPara8458"></flowPara></flowRoot>    <path
       inkscape:connector-curvature="0"
       id="path8485"
       style="font-style:normal;font-variant:normal;font-weight:400;font-size:90px;font-family:'Segoe MDL2 Assets';text-align:start;letter-spacing:0px;word-spacing:0px;text-anchor:start;fill:#000000;fill-opacity:1;stroke:none"
       d="m 57.616292,169.94574 q 1.142578,0 2.15332,0.43945 1.054688,0.43946 1.801758,1.23047 0.791016,0.74707 1.230469,1.80176 0.439453,1.01074 0.439453,2.15332 l 0,40.78125 q 0,1.3623 0.395508,2.37305 0.439453,1.01074 1.054687,1.93359 0.615235,0.87891 1.362305,1.80176 0.74707,0.8789 1.362305,1.97754 0.615234,1.09863 1.010742,2.54883 0.439453,1.45019 0.439453,3.42773 l 0,12.65625 q 0,1.14258 -0.439453,2.19727 -0.439453,1.01074 -1.230469,1.80175 -0.74707,0.74707 -1.801758,1.18653 -1.010742,0.43945 -2.15332,0.43945 l -39.375,0 0,5.625 q 0,1.71387 -0.966797,3.12012 -0.922851,1.40625 -2.504883,2.06543 -1.010742,0.43945 -2.15332,0.43945 -2.329102,0 -3.999023,-1.66992 l -12.875977,-12.87598 0,-75.4541 56.25,0 z m -39.375,68.90625 q 0,-1.97754 0.395508,-3.38379 0.439453,-1.45019 1.054687,-2.54883 0.615235,-1.14258 1.362305,-2.02148 0.74707,-0.87891 1.362305,-1.75781 0.615234,-0.92286 1.010742,-1.9336 0.439453,-1.05469 0.439453,-2.41699 l 0,-28.34473 -16.875,-16.875 0,63.50098 11.25,11.25 0,-15.46875 z m 45,-8.4375 q 0,-1.3623 -0.439453,-2.37305 -0.395508,-1.01074 -1.010742,-1.88965 -0.615235,-0.92285 -1.362305,-1.80175 -0.74707,-0.92285 -1.362305,-2.02149 -0.615234,-1.09863 -1.054687,-2.54883 -0.395508,-1.45019 -0.395508,-3.42773 l 0,-40.78125 -46.625977,0 16.875,16.875 q 0.791016,0.79102 1.186524,1.8457 0.439453,1.01075 0.439453,2.15332 l 0,28.34473 q 0,1.97754 -0.439453,3.42773 -0.395508,1.40625 -1.010742,2.54883 -0.615235,1.09864 -1.362305,1.97754 -0.74707,0.87891 -1.362305,1.80176 -0.615234,0.87891 -1.054687,1.93359 -0.395508,1.01075 -0.395508,2.37305 l 0,4.21875 39.375,0 0,-12.65625 z" />
    <path
       inkscape:connector-curvature="0"
       id="path8487"
       style="font-style:normal;font-variant:normal;font-weight:400;font-size:90px;font-family:'Segoe MDL2 Assets';text-align:start;letter-spacing:0px;word-spacing:0px;text-anchor:start;fill:#000000;fill-opacity:1;stroke:none"
       d="m 170.11629,195.25824 -19.6875,19.6875 8.4375,0 0,39.375 -73.124998,0 0,-73.125 39.374998,0 0,8.4375 19.6875,-19.6875 25.3125,25.3125 z m -25.3125,-18.36914 -18.36914,18.36914 18.36914,18.36914 18.36914,-18.36914 -18.36914,-18.36914 z m -5.625,38.05664 -14.0625,-14.0625 0,14.0625 14.0625,0 z m -47.812498,-28.125 0,28.125 28.124998,0 0,-28.125 -28.124998,0 z m 28.124998,61.875 0,-28.125 -28.124998,0 0,28.125 28.124998,0 z m 33.75,-28.125 -28.125,0 0,28.125 28.125,0 0,-28.125 z" />
    <path
       inkscape:connector-curvature="0"
       id="path8489"
       style="font-style:normal;font-variant:normal;font-weight:400;font-size:90px;font-family:'Segoe MDL2 Assets';text-align:start;letter-spacing:0px;word-spacing:0px;text-anchor:start;fill:#000000;fill-opacity:1;stroke:none"
       d="m 222.32332,204.83832 q 1.97754,-1.88965 3.03223,-4.35059 1.09863,-2.46094 1.09863,-5.22949 0,-2.76855 -1.09863,-5.22949 -1.05469,-2.46094 -3.03223,-4.35059 l 3.91114,-4.04297 q 2.8125,2.72461 4.30664,6.24024 1.53808,3.47168 1.53808,7.38281 0,3.91113 -1.53808,7.42676 -1.49414,3.47168 -4.30664,6.19629 l -3.91114,-4.04297 z m 11.7334,-31.28906 q 2.19727,2.10937 3.91113,4.61425 1.75782,2.50489 2.94434,5.27344 1.18652,2.76856 1.80176,5.75684 0.61523,2.98828 0.61523,6.06445 0,3.07617 -0.61523,6.06445 -0.61524,2.98828 -1.80176,5.75684 -1.18652,2.76855 -2.94434,5.27344 -1.71386,2.50488 -3.91113,4.61425 l -3.91113,-4.04296 q 3.64746,-3.51563 5.58105,-8.042 1.97754,-4.57031 1.97754,-9.62402 0,-5.05371 -1.97754,-9.58008 -1.93359,-4.57031 -5.58105,-8.08594 l 3.91113,-4.04296 z m -35.68359,35.33203 q -2.8125,-2.72461 -4.35059,-6.19629 -1.49414,-3.51563 -1.49414,-7.42676 0,-3.91113 1.49414,-7.38281 1.53809,-3.51563 4.35059,-6.24024 l 3.91113,4.04297 q -1.97754,1.88965 -3.07617,4.35059 -1.05469,2.46094 -1.05469,5.22949 0,2.76855 1.05469,5.22949 1.09863,2.46094 3.07617,4.35059 l -3.91113,4.04297 z m -7.82227,8.08593 q -2.19726,-2.10937 -3.95508,-4.61425 -1.71386,-2.50489 -2.90039,-5.27344 -1.18652,-2.76856 -1.80175,-5.75684 -0.61524,-2.98828 -0.61524,-6.06445 0,-3.07617 0.61524,-6.06445 0.61523,-2.98828 1.80175,-5.75684 1.18653,-2.76855 2.90039,-5.27344 1.75782,-2.50488 3.95508,-4.61425 l 3.91114,4.04296 q -3.64747,3.51563 -5.625,8.08594 -1.9336,4.52637 -1.9336,9.58008 0,5.05371 1.9336,9.62402 1.97753,4.52637 5.625,8.042 l -3.91114,4.04296 z m 30.19043,-21.70898 q 0,1.97754 -0.8789,3.73535 -0.83497,1.71387 -2.37305,2.90039 l 17.44629,52.42676 -5.88867,0 -3.7793,-11.25 -25.92774,0 -3.77929,11.25 -5.88867,0 17.44629,-52.42676 q -1.53809,-1.18652 -2.417,-2.90039 -0.83496,-1.75781 -0.83496,-3.73535 0,-1.75781 0.65918,-3.2959 0.65918,-1.53808 1.80176,-2.68066 1.14258,-1.14258 2.68066,-1.80176 1.53809,-0.65918 3.2959,-0.65918 1.75781,0 3.2959,0.65918 1.53809,0.65918 2.68066,1.80176 1.14258,1.14258 1.80176,2.68066 0.65918,1.53809 0.65918,3.2959 z m -8.4375,-2.8125 q -1.14258,0 -1.97754,0.83496 -0.83496,0.83496 -0.83496,1.97754 0,1.14258 0.83496,1.97754 0.83496,0.83496 1.97754,0.83496 1.14258,0 1.97754,-0.83496 0.83496,-0.83496 0.83496,-1.97754 0,-1.14258 -0.83496,-1.97754 -0.83496,-0.83496 -1.97754,-0.83496 z m 0,11.68945 -5.49316,16.43555 10.98633,0 -5.49317,-16.43555 z m 11.11817,33.31055 -3.7793,-11.25 -14.67774,0 -3.77929,11.25 22.23633,0 z" />
    <path
       inkscape:connector-curvature="0"
       id="path8491"
       style="font-style:normal;font-variant:normal;font-weight:400;font-size:90px;font-family:'Segoe MDL2 Assets';text-align:start;letter-spacing:0px;word-spacing:0px;text-anchor:start;fill:#000000;fill-opacity:1;stroke:none"
       d="m 350.11629,217.75824 -17.22656,8.61328 17.22656,8.61328 -45,22.5 -45,-22.5 17.22656,-8.61328 -17.22656,-8.61328 16.875,-8.4375 -16.875,-8.4375 45,-22.5 45,22.5 -16.875,8.4375 16.875,8.4375 z m -77.43164,-16.875 q 8.17383,4.08691 16.21582,8.08594 8.08594,3.99902 16.21582,8.12988 8.12988,-4.13086 16.17188,-8.12988 8.08593,-3.99903 16.25976,-8.08594 l -32.43164,-16.21582 -32.43164,16.21582 z m 53.9209,28.6084 -21.48926,10.7666 -21.48926,-10.7666 -10.94238,5.49316 32.43164,16.21582 32.43164,-16.21582 -10.94238,-5.49316 z m -21.48926,4.48242 q 8.17383,-4.08691 16.21582,-8.12988 8.04199,-4.04297 16.21582,-8.08594 l -10.59082,-5.31738 q -5.49316,2.76855 -10.94238,5.49316 -5.40527,2.68067 -10.89844,5.44922 -5.49316,-2.76855 -10.94238,-5.44922 -5.40527,-2.72461 -10.89844,-5.49316 l -10.59082,5.31738 q 8.17383,4.04297 16.21582,8.08594 8.04199,4.04297 16.21582,8.12988 z" />
    <path
       inkscape:connector-curvature="0"
       id="path8493"
       style="font-style:normal;font-variant:normal;font-weight:400;font-size:90px;font-family:'Segoe MDL2 Assets';text-align:start;letter-spacing:0px;word-spacing:0px;text-anchor:start;fill:#000000;fill-opacity:1;stroke:none"
       d="m 395.11629,209.32074 q 2.28516,0 4.35059,0.92285 2.06543,0.87891 3.55957,2.41699 1.53808,1.49414 2.41699,3.55957 0.92285,2.06543 0.92285,4.35059 0,2.3291 -0.92285,4.39453 -0.87891,2.02149 -2.41699,3.55957 -1.49414,1.49414 -3.55957,2.41699 -2.06543,0.87891 -4.35059,0.87891 -2.3291,0 -4.39453,-0.87891 -2.02148,-0.92285 -3.55957,-2.41699 -1.49414,-1.53808 -2.41699,-3.55957 -0.87891,-2.06543 -0.87891,-4.39453 0,-2.28516 0.87891,-4.35059 0.92285,-2.06543 2.41699,-3.55957 1.53809,-1.53808 3.55957,-2.41699 2.06543,-0.92285 4.39453,-0.92285 z m 0,16.875 q 1.18653,0 2.19727,-0.43945 1.01074,-0.43946 1.75781,-1.18653 0.79102,-0.79101 1.23047,-1.80175 0.43945,-1.01075 0.43945,-2.19727 0,-1.18652 -0.43945,-2.19727 -0.43945,-1.01074 -1.23047,-1.75781 -0.74707,-0.79101 -1.75781,-1.23047 -1.01074,-0.43945 -2.19727,-0.43945 -1.18652,0 -2.19726,0.43945 -1.01075,0.43946 -1.80176,1.23047 -0.74707,0.74707 -1.18652,1.75781 -0.43946,1.01075 -0.43946,2.19727 0,1.18652 0.43946,2.19727 0.43945,1.01074 1.18652,1.80175 0.79101,0.74707 1.80176,1.18653 1.01074,0.43945 2.19726,0.43945 z m 0,-50.625 q 6.19629,0 11.90918,1.62598 5.75684,1.58203 10.7666,4.52636 5.00977,2.94434 9.09668,7.0752 4.13086,4.08691 7.0752,9.09668 2.94433,5.00976 4.52637,10.7666 1.62597,5.71289 1.62597,11.90918 0,4.48242 -0.8789,8.83301 -0.87891,4.30664 -2.54883,8.39355 -1.66992,4.04297 -4.13086,7.73438 -2.46094,3.6914 -5.625,6.85547 l -3.95508,-3.95508 q 2.76855,-2.76856 4.87793,-5.97656 2.15332,-3.25196 3.60352,-6.81153 1.49414,-3.55957 2.24121,-7.33887 0.79101,-3.82324 0.79101,-7.73437 0,-5.44922 -1.40625,-10.45898 -1.40625,-5.05372 -3.99902,-9.4043 -2.54883,-4.39453 -6.15235,-7.9541 -3.55957,-3.60352 -7.9541,-6.15235 -4.35058,-2.59277 -9.40429,-3.99902 -5.00977,-1.40625 -10.45899,-1.40625 -5.44922,0 -10.50293,1.40625 -5.00976,1.40625 -9.40429,3.99902 -4.35059,2.54883 -7.95411,6.15235 -3.55957,3.55957 -6.15234,7.9541 -2.54883,4.35058 -3.95508,9.4043 -1.40625,5.00976 -1.40625,10.45898 0,3.91113 0.74707,7.73437 0.79102,3.7793 2.24121,7.33887 1.49414,3.55957 3.60352,6.81153 2.15332,3.208 4.92187,5.97656 l -3.95507,3.95508 q -3.16407,-3.16407 -5.625,-6.85547 -2.46094,-3.69141 -4.13086,-7.73438 -1.66993,-4.08691 -2.54883,-8.39355 -0.87891,-4.35059 -0.87891,-8.83301 0,-6.19629 1.58203,-11.90918 1.62598,-5.75684 4.57032,-10.7666 2.94433,-5.00977 7.03125,-9.09668 4.13086,-4.13086 9.14062,-7.0752 5.00977,-2.94433 10.72266,-4.52636 5.75683,-1.62598 11.95312,-1.62598 z m 0,16.875 q 5.84473,0 10.94238,2.19727 5.14161,2.19726 8.96485,6.0205 3.82324,3.82325 6.02051,8.96485 2.19726,5.09765 2.19726,10.94238 0,5.625 -2.15332,10.7666 -2.10937,5.1416 -6.06445,9.14063 l -3.99902,-3.99903 q 3.16406,-3.16406 4.87792,-7.29492 1.71387,-4.13086 1.71387,-8.61328 0,-4.6582 -1.80176,-8.74512 -1.75781,-4.08691 -4.83398,-7.11914 -3.03223,-3.07617 -7.11914,-4.83398 -4.08691,-1.80176 -8.74512,-1.80176 -4.6582,0 -8.74512,1.80176 -4.08691,1.75781 -7.16308,4.83398 -3.03223,3.03223 -4.83399,7.11914 -1.75781,4.08692 -1.75781,8.74512 0,4.48242 1.71387,8.61328 1.71387,4.13086 4.87793,7.29492 l -3.99902,3.99903 q -3.95508,-3.99903 -6.1084,-9.14063 -2.10938,-5.1416 -2.10938,-10.7666 0,-5.84473 2.19727,-10.94238 2.19726,-5.1416 6.02051,-8.96485 3.82324,-3.82324 8.92089,-6.0205 5.14161,-2.19727 10.98633,-2.19727 z" />
    <path
       inkscape:connector-curvature="0"
       id="path8495"
       style="font-style:normal;font-variant:normal;font-weight:400;font-size:90px;font-family:'Segoe MDL2 Assets';text-align:start;letter-spacing:0px;word-spacing:0px;text-anchor:start;fill:#000000;fill-opacity:1;stroke:none"
       d="m 469.64754,212.13324 q 1.75781,0 2.98828,1.23047 1.23047,1.23047 1.23047,2.98828 l 0,5.625 q 0,1.75781 -1.23047,2.98828 -1.23047,1.23047 -2.98828,1.23047 -1.75781,0 -2.98828,-1.23047 -1.23047,-1.23047 -1.23047,-2.98828 l 0,-5.625 q 0,-1.75781 1.23047,-2.98828 1.23047,-1.23047 2.98828,-1.23047 z m 30.9375,0 q 1.75781,0 2.98828,1.23047 1.23047,1.23047 1.23047,2.98828 l 0,5.625 q 0,1.75781 -1.23047,2.98828 -1.23047,1.23047 -2.98828,1.23047 -1.75781,0 -2.98828,-1.23047 -1.23047,-1.23047 -1.23047,-2.98828 l 0,-5.625 q 0,-1.75781 1.23047,-2.98828 1.23047,-1.23047 2.98828,-1.23047 z m -15.46875,19.6875 q -1.18652,0 -2.19726,-0.43945 -1.01075,-0.43946 -1.80176,-1.18653 -0.74707,-0.79101 -1.18652,-1.80175 -0.43946,-1.01075 -0.43946,-2.19727 l 11.25,0 q 0,1.18652 -0.43945,2.19727 -0.43945,1.01074 -1.23047,1.80175 -0.74707,0.74707 -1.75781,1.18653 -1.01074,0.43945 -2.19727,0.43945 z m 0,8.4375 q 1.66992,0 2.94434,-0.43945 1.31836,-0.43946 2.3291,-0.9668 1.01074,-0.52734 1.75781,-0.9668 0.79102,-0.43945 1.40625,-0.43945 1.18653,0 1.97754,0.83496 0.83496,0.83496 0.83496,2.02149 0,1.40625 -1.3623,2.46093 -1.31836,1.05469 -3.16407,1.75782 -1.8457,0.65917 -3.73535,1.01074 -1.88965,0.35156 -2.98828,0.35156 -1.09863,0 -2.98828,-0.35156 -1.88965,-0.35157 -3.73535,-1.01074 -1.8457,-0.70313 -3.20801,-1.75782 -1.31836,-1.05468 -1.31836,-2.46093 0,-1.18653 0.79102,-2.02149 0.83496,-0.83496 1.97754,-0.83496 0.65918,0 1.40625,0.43945 0.79101,0.43946 1.80175,0.9668 1.01075,0.52734 2.28516,0.9668 1.31836,0.43945 2.98828,0.43945 z m 0,-70.3125 q 6.19629,0 11.95313,1.62598 5.75683,1.58203 10.7666,4.52636 5.00976,2.90039 9.09668,7.03125 4.13086,4.08692 7.03125,9.09668 2.94433,5.00977 4.52637,10.7666 1.62597,5.75684 1.62597,11.95313 l 0,45 -14.0625,0 q -3.55957,0 -6.81152,-1.40625 -3.25195,-1.4502 -5.66895,-4.08691 -4.13086,2.68066 -8.833,4.08691 -4.70215,1.40625 -9.62403,1.40625 -4.92187,0 -9.62402,-1.40625 -4.70215,-1.40625 -8.83301,-4.08691 -2.41699,2.63671 -5.66894,4.08691 -3.25196,1.40625 -6.81153,1.40625 l -14.0625,0 0,-45 q 0,-6.19629 1.58203,-11.95313 1.62598,-5.75683 4.52637,-10.7666 2.94434,-5.00976 7.03125,-9.09668 4.13086,-4.13086 9.14063,-7.03125 5.00976,-2.94433 10.72265,-4.52636 5.75684,-1.62598 11.99707,-1.62598 z m -28.125,56.25 q 0,3.86719 1.01074,7.4707 1.01075,3.60352 2.8125,6.72364 1.84571,3.12011 4.39454,5.71289 2.59277,2.54882 5.71289,4.39453 3.12011,1.80176 6.72363,2.8125 3.60351,1.01074 7.4707,1.01074 3.86719,0 7.47071,-1.01074 3.60351,-1.01074 6.72363,-2.8125 3.12012,-1.84571 5.66894,-4.39453 2.59278,-2.59278 4.39453,-5.71289 1.84571,-3.12012 2.85645,-6.72364 1.01074,-3.60351 1.01074,-7.4707 l 0,-17.00684 q -4.74609,-0.48339 -9.09668,-2.46093 -4.35058,-1.97754 -7.77832,-5.36133 l 0,5.1416 -2.8125,0 q -5.00976,0 -9.44824,-2.19727 -4.43848,-2.24121 -7.42676,-6.24023 -1.71387,2.41699 -3.91113,4.35059 -2.19727,1.93359 -4.74609,3.33984 -2.50489,1.40625 -5.31739,2.28516 -2.76855,0.8789 -5.71289,1.14257 l 0,17.00684 z m 67.5,-11.25 q 0,-5.40527 -1.40625,-10.41504 -1.40625,-5.05371 -3.99902,-9.4043 -2.54883,-4.39453 -6.15235,-7.99804 -3.60351,-3.60352 -7.99804,-6.15235 -4.35059,-2.59277 -9.4043,-3.99902 -5.00976,-1.40625 -10.41504,-1.40625 -5.40527,0 -10.45898,1.40625 -5.00977,1.40625 -9.4043,3.99902 -4.35059,2.54883 -7.9541,6.15235 -3.60352,3.60351 -6.19629,7.99804 -2.54883,4.35059 -3.95508,9.4043 -1.40625,5.00977 -1.40625,10.41504 l 0,39.375 8.4375,0 q 2.28516,0 4.35059,-0.87891 2.10937,-0.8789 3.6914,-2.50488 -2.59277,-2.37305 -4.61425,-5.22949 -2.02149,-2.85645 -3.42774,-6.02051 -1.3623,-3.16406 -2.10937,-6.54785 -0.70313,-3.42774 -0.70313,-6.94336 l 0,-22.5 2.8125,0 q 3.60352,0 6.76758,-0.9668 3.16406,-0.96679 5.80078,-2.76855 2.63672,-1.8457 4.70215,-4.43848 2.06543,-2.59277 3.42773,-5.88867 l 3.69141,0 q 1.58203,4.30664 4.52637,7.25098 2.98828,2.90039 7.64648,3.73535 l 0,-10.98633 4.61426,0 q 1.3623,3.2959 3.42773,5.88867 2.06543,2.59278 4.70215,4.43848 2.63672,1.80176 5.80078,2.76855 3.16407,0.9668 6.76758,0.9668 l 2.8125,0 0,22.5 q 0,3.51562 -0.74707,6.94336 -0.70312,3.38379 -2.10937,6.54785 -1.36231,3.16406 -3.38379,6.02051 -2.02149,2.85644 -4.61426,5.22949 1.58203,1.62598 3.64746,2.50488 2.10938,0.87891 4.39453,0.87891 l 8.4375,0 0,-39.375 z" />
    <path
       inkscape:connector-curvature="0"
       id="path8497"
       style="font-style:normal;font-variant:normal;font-weight:400;font-size:90px;font-family:'Segoe MDL2 Assets';text-align:start;letter-spacing:0px;word-spacing:0px;text-anchor:start;fill:#000000;fill-opacity:1;stroke:none"
       d="m 556.83504,181.19574 q 1.97754,0 3.38379,0.43945 1.4502,0.39551 2.54883,1.01075 1.14258,0.61523 2.02148,1.3623 0.87891,0.74707 1.75782,1.3623 0.92285,0.61524 1.93359,1.05469 1.05469,0.39551 2.41699,0.39551 l 43.59375,0 q 1.18653,0 2.19727,0.43945 1.01074,0.43946 1.75781,1.23047 0.79102,0.74707 1.23047,1.75781 0.43945,1.01075 0.43945,2.19727 l 0,56.25 -90,0 0,-61.875 q 0,-1.18652 0.43946,-2.19727 0.43945,-1.01074 1.18652,-1.75781 0.79101,-0.79101 1.80176,-1.23047 1.01074,-0.43945 2.19726,-0.43945 l 21.09375,0 z m -21.09375,5.625 0,5.625 21.09375,0 q 1.05469,0 1.84571,-0.17578 0.79101,-0.21973 1.45019,-0.57129 0.65918,-0.39551 1.27441,-0.87891 0.65918,-0.52734 1.40625,-1.18652 -0.74707,-0.65918 -1.40625,-1.14258 -0.61523,-0.52734 -1.27441,-0.8789 -0.65918,-0.39551 -1.45019,-0.57129 -0.79102,-0.21973 -1.84571,-0.21973 l -21.09375,0 z m 78.75,5.625 -43.59375,0 q -1.3623,0 -2.41699,0.43945 -1.01074,0.39551 -1.93359,1.01075 -0.87891,0.61523 -1.75782,1.3623 -0.8789,0.74707 -2.02148,1.3623 -1.09863,0.61524 -2.54883,1.05469 -1.40625,0.39551 -3.38379,0.39551 l -21.09375,0 0,45 78.75,0 0,-50.625 z" />
    <path
       inkscape:connector-curvature="0"
       id="path8499"
       style="font-style:normal;font-variant:normal;font-weight:400;font-size:90px;font-family:'Segoe MDL2 Assets';text-align:start;letter-spacing:0px;word-spacing:0px;text-anchor:start;fill:#000000;fill-opacity:1;stroke:none"
       d="m 665.11629,169.94574 q 6.19629,0 11.95313,1.62598 5.75683,1.58203 10.7666,4.52636 5.00976,2.90039 9.09668,7.03125 4.13086,4.08692 7.03125,9.09668 2.94433,5.00977 4.52637,10.7666 1.62597,5.75684 1.62597,11.95313 0,6.19629 -1.62597,11.95312 -1.58204,5.75684 -4.52637,10.76661 -2.90039,5.00976 -7.03125,9.14062 -4.08692,4.08692 -9.09668,7.03125 -5.00977,2.90039 -10.7666,4.52637 -5.75684,1.58203 -11.95313,1.58203 -6.19629,0 -11.95312,-1.58203 -5.75684,-1.62598 -10.7666,-4.52637 -5.00977,-2.94433 -9.14063,-7.03125 -4.08691,-4.13086 -7.03125,-9.14062 -2.90039,-5.00977 -4.52637,-10.72266 -1.58203,-5.75684 -1.58203,-11.99707 0,-6.19629 1.58203,-11.95313 1.62598,-5.75683 4.52637,-10.7666 2.94434,-5.00976 7.03125,-9.09668 4.13086,-4.13086 9.14063,-7.03125 5.00976,-2.94433 10.72265,-4.52636 5.75684,-1.62598 11.99707,-1.62598 z m 0,84.375 q 5.40528,0 10.41504,-1.40625 5.05371,-1.40625 9.4043,-3.95508 4.39453,-2.59277 7.99804,-6.19629 3.60352,-3.60351 6.15235,-7.9541 2.59277,-4.39453 3.99902,-9.4043 1.40625,-5.00976 1.40625,-10.45898 0,-5.40527 -1.40625,-10.41504 -1.40625,-5.05371 -3.99902,-9.4043 -2.54883,-4.39453 -6.15235,-7.99804 -3.60351,-3.60352 -7.99804,-6.15235 -4.35059,-2.59277 -9.4043,-3.99902 -5.00976,-1.40625 -10.41504,-1.40625 -5.40527,0 -10.45898,1.40625 -5.00977,1.40625 -9.4043,3.99902 -4.35059,2.54883 -7.9541,6.15235 -3.60352,3.60351 -6.19629,7.99804 -2.54883,4.35059 -3.95508,9.4043 -1.40625,5.00977 -1.40625,10.41504 0,5.40527 1.40625,10.45898 1.40625,5.00977 3.95508,9.4043 2.59277,4.35059 6.19629,7.9541 3.60351,3.60352 7.9541,6.19629 4.39453,2.54883 9.4043,3.95508 5.00976,1.40625 10.45898,1.40625 z m 0,-50.625 q 2.3291,0 4.35059,0.87891 2.06543,0.8789 3.60351,2.41699 1.53809,1.53808 2.417,3.60351 0.8789,2.02149 0.8789,4.35059 0,2.3291 -0.8789,4.39453 -0.87891,2.02149 -2.417,3.55957 -1.53808,1.53809 -3.60351,2.41699 -2.02149,0.87891 -4.35059,0.87891 -2.3291,0 -4.39453,-0.87891 -2.02148,-0.8789 -3.55957,-2.41699 -1.53809,-1.53808 -2.41699,-3.55957 -0.87891,-2.06543 -0.87891,-4.39453 0,-2.3291 0.87891,-4.35059 0.8789,-2.06543 2.41699,-3.60351 1.53809,-1.53809 3.55957,-2.41699 2.06543,-0.87891 4.39453,-0.87891 z m 0,16.875 q 1.18653,0 2.19727,-0.43945 1.01074,-0.43946 1.75781,-1.18653 0.79102,-0.79101 1.23047,-1.80175 0.43945,-1.01075 0.43945,-2.19727 0,-1.18652 -0.43945,-2.19727 -0.43945,-1.01074 -1.23047,-1.75781 -0.74707,-0.79101 -1.75781,-1.23047 -1.01074,-0.43945 -2.19727,-0.43945 -1.18652,0 -2.19726,0.43945 -1.01075,0.43946 -1.80176,1.23047 -0.74707,0.74707 -1.18652,1.75781 -0.43946,1.01075 -0.43946,2.19727 0,1.18652 0.43946,2.19727 0.43945,1.01074 1.18652,1.80175 0.79101,0.74707 1.80176,1.18653 1.01074,0.43945 2.19726,0.43945 z" />
    <path
       inkscape:connector-curvature="0"
       id="path8501"
       style="font-style:normal;font-variant:normal;font-weight:400;font-size:90px;font-family:'Segoe MDL2 Assets';text-align:start;letter-spacing:0px;word-spacing:0px;text-anchor:start;fill:#000000;fill-opacity:1;stroke:none"
       d="m 738.24129,221.97699 q 0,2.24121 -0.96679,4.08691 -0.9668,1.80176 -2.54883,3.12012 -1.58203,1.27442 -3.60352,1.97754 -2.02148,0.65918 -4.13086,0.65918 -2.10937,0 -4.13086,-0.65918 -2.02148,-0.70312 -3.60351,-1.97754 -1.58203,-1.31836 -2.54883,-3.12012 -0.9668,-1.8457 -0.9668,-4.08691 0,-2.24121 0.9668,-4.04297 0.9668,-1.8457 2.54883,-3.12012 1.58203,-1.31836 3.60351,-1.97754 2.02149,-0.70312 4.13086,-0.70312 1.4502,0 2.90039,0.35156 1.4502,0.30762 2.72461,0.9668 l 0,-37.88086 5.625,0 q 0,2.8125 1.23047,5.05371 1.27441,2.24121 3.38379,4.04297 3.07617,2.63672 4.83398,5.97656 1.80176,3.2959 1.80176,7.42676 l -5.625,0 q 0,-2.76855 -1.27441,-5.05371 -1.23047,-2.3291 -3.33985,-4.04297 -0.26367,-0.21973 -0.52734,-0.43945 -0.26367,-0.21973 -0.4834,-0.43946 l 0,33.88184 z m -11.25,4.21875 q 0.87891,0 1.84571,-0.26367 1.01074,-0.26367 1.8457,-0.79102 0.83496,-0.52734 1.3623,-1.31836 0.57129,-0.79101 0.57129,-1.8457 0,-1.05469 -0.57129,-1.8457 -0.52734,-0.79102 -1.3623,-1.31836 -0.83496,-0.52735 -1.8457,-0.79102 -0.9668,-0.26367 -1.84571,-0.26367 -0.8789,0 -1.88965,0.26367 -0.96679,0.26367 -1.80175,0.79102 -0.83497,0.52734 -1.40625,1.31836 -0.52735,0.79101 -0.52735,1.8457 0,1.05469 0.52735,1.8457 0.57128,0.79102 1.40625,1.31836 0.83496,0.52735 1.80175,0.79102 1.01075,0.26367 1.88965,0.26367 z m 67.5,12.65625 q 0,2.24121 -0.96679,4.08691 -0.9668,1.80176 -2.54883,3.12012 -1.58203,1.27442 -3.60352,1.97754 -2.02148,0.65918 -4.13086,0.65918 -2.10937,0 -4.13086,-0.65918 -2.02148,-0.70312 -3.60351,-1.97754 -1.58203,-1.31836 -2.54883,-3.12012 -0.9668,-1.8457 -0.9668,-4.08691 0,-2.24121 0.9668,-4.04297 0.9668,-1.8457 2.54883,-3.12012 1.58203,-1.31836 3.60351,-1.97754 2.02149,-0.70312 4.13086,-0.70312 1.4502,0 2.90039,0.35156 1.4502,0.30762 2.72461,0.9668 l 0,-29.35547 -28.125,7.03125 0,36.47461 q 0,2.24121 -0.96679,4.08691 -0.9668,1.80176 -2.54883,3.12012 -1.58203,1.27442 -3.60352,1.97754 -2.02148,0.65918 -4.13086,0.65918 -2.10937,0 -4.13086,-0.65918 -2.02148,-0.70312 -3.60351,-1.97754 -1.58203,-1.31836 -2.54883,-3.12012 -0.9668,-1.8457 -0.9668,-4.08691 0,-2.24121 0.9668,-4.04297 0.9668,-1.8457 2.54883,-3.12012 1.58203,-1.31836 3.60351,-1.97754 2.02149,-0.70312 4.13086,-0.70312 1.4502,0 2.90039,0.35156 1.4502,0.30762 2.72461,0.9668 l 0,-32.34375 39.375,-9.84375 0,45.08789 z m -45,9.84375 q 0.87891,0 1.84571,-0.26367 1.01074,-0.26367 1.8457,-0.79102 0.83496,-0.52734 1.3623,-1.31836 0.57129,-0.79101 0.57129,-1.8457 0,-1.05469 -0.57129,-1.8457 -0.52734,-0.79102 -1.3623,-1.31836 -0.83496,-0.52735 -1.8457,-0.79102 -0.9668,-0.26367 -1.84571,-0.26367 -0.8789,0 -1.88965,0.26367 -0.96679,0.26367 -1.80175,0.79102 -0.83497,0.52734 -1.40625,1.31836 -0.52735,0.79101 -0.52735,1.8457 0,1.05469 0.52735,1.8457 0.57128,0.79102 1.40625,1.31836 0.83496,0.52735 1.80175,0.79102 1.01075,0.26367 1.88965,0.26367 z m 33.75,-5.625 q 0.87891,0 1.84571,-0.26367 1.01074,-0.26367 1.8457,-0.79102 0.83496,-0.52734 1.3623,-1.31836 0.57129,-0.79101 0.57129,-1.8457 0,-1.05469 -0.57129,-1.8457 -0.52734,-0.79102 -1.3623,-1.31836 -0.83496,-0.52735 -1.8457,-0.79102 -0.9668,-0.26367 -1.84571,-0.26367 -0.8789,0 -1.88965,0.26367 -0.96679,0.26367 -1.80175,0.79102 -0.83497,0.52734 -1.40625,1.31836 -0.52735,0.79101 -0.52735,1.8457 0,1.05469 0.52735,1.8457 0.57128,0.79102 1.40625,1.31836 0.83496,0.52735 1.80175,0.79102 1.01075,0.26367 1.88965,0.26367 z" />
    <path
       inkscape:connector-curvature="0"
       id="path8503"
       style="font-style:normal;font-variant:normal;font-weight:400;font-size:90px;font-family:'Segoe MDL2 Assets';text-align:start;letter-spacing:0px;word-spacing:0px;text-anchor:start;fill:#000000;fill-opacity:1;stroke:none"
       d="m 858.56356,222.81195 q 5.97656,2.06543 10.7666,5.80078 4.83398,3.69141 8.17383,8.56934 3.38379,4.87793 5.18554,10.67871 1.80176,5.80078 1.80176,12.08496 l -5.625,0 q 0,-7.20703 -2.59277,-13.35938 -2.54883,-6.19628 -7.0752,-10.72265 -4.52636,-4.52637 -10.72265,-7.0752 -6.15235,-2.59277 -13.35938,-2.59277 -4.70215,0 -9.05273,1.18652 -4.35059,1.18653 -8.12989,3.38379 -3.73535,2.15332 -6.81152,5.22949 -3.03223,3.03223 -5.22949,6.81153 -2.15332,3.73535 -3.33984,8.08594 -1.18653,4.35058 -1.18653,9.05273 l -5.625,0 q 0,-6.32813 1.84571,-12.08496 1.8457,-5.80078 5.22949,-10.63477 3.38379,-4.83398 8.17383,-8.52539 4.83398,-3.6914 10.7666,-5.84472 -3.42774,-1.84571 -6.15235,-4.48243 -2.72461,-2.63671 -4.6582,-5.84472 -1.88965,-3.25196 -2.94434,-6.89942 -1.01074,-3.6914 -1.01074,-7.55859 0,-5.84473 2.19727,-10.94238 2.19726,-5.1416 6.02051,-8.96485 3.82324,-3.82324 8.92089,-6.0205 5.14161,-2.19727 10.98633,-2.19727 5.84473,0 10.94238,2.19727 5.14161,2.19726 8.96485,6.0205 3.82324,3.82325 6.02051,8.96485 2.19726,5.09765 2.19726,10.94238 0,3.86719 -1.05469,7.51465 -1.01074,3.64746 -2.94433,6.85547 -1.88965,3.208 -4.61426,5.88867 -2.68066,2.63672 -6.06445,4.48242 z m -35.94727,-24.74121 q 0,4.6582 1.75781,8.74512 1.80176,4.08691 4.83399,7.16308 3.07617,3.03223 7.16308,4.83399 4.08692,1.75781 8.74512,1.75781 4.65821,0 8.74512,-1.75781 4.08691,-1.80176 7.11914,-4.83399 3.07617,-3.07617 4.83398,-7.16308 1.80176,-4.08692 1.80176,-8.74512 0,-4.6582 -1.80176,-8.74512 -1.75781,-4.08691 -4.83398,-7.11914 -3.03223,-3.07617 -7.11914,-4.83398 -4.08691,-1.80176 -8.74512,-1.80176 -4.6582,0 -8.74512,1.80176 -4.08691,1.75781 -7.16308,4.83398 -3.03223,3.03223 -4.83399,7.11914 -1.75781,4.08692 -1.75781,8.74512 z" />
    <path
       inkscape:connector-curvature="0"
       id="path8505"
       style="font-style:normal;font-variant:normal;font-weight:400;font-size:90px;font-family:'Segoe MDL2 Assets';text-align:start;letter-spacing:0px;word-spacing:0px;text-anchor:start;fill:#000000;fill-opacity:1;stroke:none"
       d="m 895.74129,259.94574 q 0,-6.28418 1.80176,-12.08496 1.8457,-5.80078 5.22949,-10.67871 3.38379,-4.87793 8.17383,-8.56934 4.83398,-3.6914 10.81055,-5.80078 -3.42774,-1.8457 -6.15235,-4.48242 -2.72461,-2.63672 -4.6582,-5.84473 -1.88965,-3.20801 -2.94434,-6.85547 -1.01074,-3.6914 -1.01074,-7.55859 0,-3.86719 1.01074,-7.4707 1.01075,-3.60352 2.8125,-6.72364 1.84571,-3.12011 4.39454,-5.66894 2.59277,-2.59277 5.71289,-4.39453 3.12011,-1.84571 6.72363,-2.85645 3.60351,-1.01074 7.4707,-1.01074 3.86719,0 7.47071,1.01074 3.60351,1.01074 6.72363,2.85645 3.12012,1.80176 5.66894,4.39453 2.59278,2.54883 4.39453,5.66894 1.84571,3.12012 2.85645,6.72364 1.01074,3.60351 1.01074,7.4707 0,3.86719 -1.05469,7.55859 -1.01074,3.64746 -2.94433,6.85547 -1.88965,3.20801 -4.61426,5.84473 -2.72461,2.63672 -6.15234,4.48242 5.93261,2.10938 10.72265,5.80078 4.83399,3.69141 8.21778,8.56934 3.42773,4.87793 5.22949,10.67871 1.8457,5.80078 1.8457,12.08496 l -78.75,0 0,0 z" />
    <path
       inkscape:connector-curvature="0"
       id="path8507"
       style="font-style:normal;font-variant:normal;font-weight:400;font-size:90px;font-family:'Segoe MDL2 Assets';text-align:start;letter-spacing:0px;word-spacing:0px;text-anchor:start;fill:#000000;fill-opacity:1;stroke:none"
       d="m 1046.21,175.57074 q 4.9659,0 9.3164,1.88965 4.3506,1.88965 7.6026,5.1416 3.2519,3.20801 5.0976,7.60254 1.8897,4.35058 1.8897,9.27246 0,4.79004 -1.8457,9.18457 -1.8018,4.39453 -5.1416,7.73438 l -38.0127,37.96875 -38.0127,-37.96875 q -3.33985,-3.33985 -5.18555,-7.73438 -1.80176,-4.39453 -1.80176,-9.18457 0,-4.92188 1.84571,-9.27246 1.88964,-4.39453 5.1416,-7.60254 3.25195,-3.25195 7.60254,-5.1416 4.35058,-1.88965 9.31636,-1.88965 3.6475,0 6.5039,0.83496 2.8565,0.83496 5.2735,2.3291 2.4609,1.4502 4.6582,3.51563 2.2412,2.06543 4.6582,4.52636 2.417,-2.46093 4.6142,-4.52636 2.2413,-2.06543 4.6583,-3.51563 2.4609,-1.49414 5.3173,-2.3291 2.8565,-0.83496 6.5039,-0.83496 z m 12.92,36.82617 q 2.5927,-2.59277 3.955,-5.93262 1.3623,-3.33984 1.3623,-6.9873 0,-3.82324 -1.4062,-7.11914 -1.4063,-3.33984 -3.9111,-5.75684 -2.461,-2.46093 -5.8008,-3.82324 -3.2959,-1.40625 -7.1192,-1.40625 -3.6914,0 -6.5478,1.18652 -2.8565,1.14258 -5.2734,3.03223 -2.417,1.88965 -4.6583,4.30664 -2.1972,2.37305 -4.6142,4.83399 -2.3731,-2.37305 -4.6143,-4.79004 -2.2412,-2.417 -4.7021,-4.35059 -2.417,-1.93359 -5.3174,-3.16406 -2.8564,-1.23047 -6.46,-1.23047 -3.7793,0 -7.1191,1.4502 -3.33984,1.40625 -5.84473,3.91113 -2.46093,2.46094 -3.91113,5.80078 -1.40625,3.33984 -1.40625,7.11914 0,3.64746 1.36231,6.9873 1.40625,3.33985 3.99902,5.93262 l 34.01368,34.01367 34.0137,-34.01367 z" />
    <path
       inkscape:connector-curvature="0"
       id="path8509"
       style="font-style:normal;font-variant:normal;font-weight:400;font-size:90px;font-family:'Segoe MDL2 Assets';text-align:start;letter-spacing:0px;word-spacing:0px;text-anchor:start;fill:#000000;fill-opacity:1;stroke:none"
       d="m 1153.129,182.55804 q 2.3291,2.32911 3.8672,5.09766 1.582,2.76856 2.3291,5.75684 0.791,2.98828 0.791,6.1084 0,3.07617 -0.791,6.06445 -0.7471,2.94433 -2.3291,5.71289 -1.5381,2.76855 -3.8672,5.09766 l -38.0127,37.96875 -38.0127,-37.96875 q -2.3291,-2.32911 -3.9111,-5.09766 -1.5381,-2.76856 -2.3291,-5.71289 -0.7471,-2.98828 -0.7471,-6.06445 0,-3.12012 0.7471,-6.1084 0.791,-2.98828 2.3291,-5.75684 1.582,-2.76855 3.9111,-5.09766 3.4277,-3.38378 7.7783,-5.18554 4.3506,-1.80176 9.1406,-1.80176 4.7901,0 9.1407,1.80176 4.3506,1.80176 7.7783,5.18554 l 4.1748,4.21875 4.1748,-4.21875 q 3.4277,-3.38378 7.7783,-5.18554 4.3506,-1.80176 9.1406,-1.80176 4.7901,0 9.1407,1.80176 4.3506,1.80176 7.7783,5.18554 z" />
    <path
       inkscape:connector-curvature="0"
       id="path8511"
       style="font-style:normal;font-variant:normal;font-weight:400;font-size:90px;font-family:'Segoe MDL2 Assets';text-align:start;letter-spacing:0px;word-spacing:0px;text-anchor:start;fill:#000000;fill-opacity:1;stroke:none"
       d="m 1226.21,175.52679 q 4.9659,0 9.3164,1.88965 4.3506,1.84571 7.6026,5.09766 3.2519,3.25195 5.0976,7.60254 1.8897,4.35058 1.8897,9.3164 0,4.79004 -1.8457,9.18457 -1.8018,4.35059 -5.1416,7.69043 l -38.0127,38.0127 -38.0127,-38.0127 q -3.3398,-3.33984 -5.1856,-7.69043 -1.8017,-4.39453 -1.8017,-9.18457 0,-4.96582 1.8457,-9.3164 1.8896,-4.35059 5.1416,-7.60254 3.2519,-3.25195 7.6025,-5.09766 4.3506,-1.88965 9.3164,-1.88965 4.878,0 9.1407,1.80176 4.3066,1.75781 7.7783,5.18555 1.0547,1.01074 2.0654,2.06543 1.0547,1.05469 2.1094,2.10937 1.0547,-1.05468 2.0654,-2.10937 1.0547,-1.05469 2.1094,-2.06543 3.4717,-3.42774 7.7344,-5.18555 4.3066,-1.80176 9.1845,-1.80176 z m 12.92,36.82618 q 2.5927,-2.59278 3.955,-5.93262 1.3623,-3.33984 1.3623,-6.98731 0,-3.82324 -1.4501,-7.11914 -1.4063,-3.33984 -3.8672,-5.80078 -2.461,-2.50488 -5.8008,-3.91113 -3.2959,-1.4502 -7.1192,-1.4502 -3.6914,0 -6.9873,1.36231 -3.2959,1.3623 -5.9326,3.95508 -2.9004,2.85644 -5.6689,5.75683 -2.7246,2.90039 -5.5371,5.80078 l 16.875,16.875 -13.2715,13.22754 -3.9551,-3.95507 9.2725,-9.27247 -16.875,-16.875 7.163,-7.20703 q -1.1425,-1.01074 -2.1972,-2.15332 -1.0547,-1.14258 -2.1533,-2.19726 -2.6368,-2.59278 -5.9327,-3.95508 -3.2519,-1.36231 -6.9873,-1.36231 -3.8232,0 -7.163,1.4502 -3.2959,1.40625 -5.8008,3.91113 -2.461,2.46094 -3.9112,5.80078 -1.4062,3.2959 -1.4062,7.11914 0,3.60352 1.4062,6.98731 1.4063,3.38379 3.9551,5.93262 l 34.0137,34.01367 34.0137,-34.01367 z" />
    <path
       inkscape:connector-curvature="0"
       id="path8513"
       style="font-style:normal;font-variant:normal;font-weight:400;font-size:90px;font-family:'Segoe MDL2 Assets';text-align:start;letter-spacing:0px;word-spacing:0px;text-anchor:start;fill:#000000;fill-opacity:1;stroke:none"
       d="m 1316.254,175.57074 q 3.2959,0 6.3281,0.87891 3.0762,0.83496 5.7129,2.37304 2.6367,1.53809 4.834,3.73535 2.1973,2.19727 3.7353,4.83399 1.5381,2.63672 2.3731,5.71289 0.8789,3.03223 0.8789,6.32812 0,4.7461 -1.8457,9.14063 -1.8018,4.39453 -5.1416,7.73437 l -38.0127,38.0127 -38.0127,-38.0127 q -3.3398,-3.33984 -5.1856,-7.73437 -1.8017,-4.39453 -1.8017,-9.14063 0,-3.29589 0.835,-6.32812 0.8789,-3.07617 2.4169,-5.71289 1.5381,-2.63672 3.7354,-4.83399 2.1973,-2.19726 4.834,-3.73535 2.6367,-1.53808 5.6689,-2.37304 3.0762,-0.87891 6.3721,-0.87891 4.79,0 9.2725,1.88965 4.5263,1.88965 7.8662,5.36133 l -12.3926,12.43652 19.6875,19.6875 -12.9199,12.87598 3.999,3.99902 16.875,-16.875 -19.6875,-19.6875 q 2.1533,-2.15332 4.2627,-4.43848 2.1094,-2.3291 4.2627,-4.48242 2.1533,-2.19726 4.4824,-4.13086 2.3291,-1.97754 4.8779,-3.42773 2.5489,-1.49414 5.4493,-2.3291 2.9003,-0.87891 6.2402,-0.87891 z" />
  </g>
</svg>
