<?xml version="1.0" encoding="UTF-8" standalone="no"?>
<!-- Created with Inkscape (http://www.inkscape.org/) -->

<svg
   xmlns:dc="http://purl.org/dc/elements/1.1/"
   xmlns:cc="http://creativecommons.org/ns#"
   xmlns:rdf="http://www.w3.org/1999/02/22-rdf-syntax-ns#"
   xmlns:svg="http://www.w3.org/2000/svg"
   xmlns="http://www.w3.org/2000/svg"
   xmlns:sodipodi="http://sodipodi.sourceforge.net/DTD/sodipodi-0.dtd"
   xmlns:inkscape="http://www.inkscape.org/namespaces/inkscape"
   width="210mm"
   height="297mm"
   viewBox="0 0 210 297"
   version="1.1"
   id="svg8"
   inkscape:version="0.92.2 (5c3e80d, 2017-08-06)"
   sodipodi:docname="Logo.svg">
  <defs
     id="defs2">
    <inkscape:path-effect
       effect="bend_path"
       id="path-effect8448"
       is_visible="true"
       bendpath="m 30,94.5 h 7"
       prop_scale="0.90829166"
       scale_y_rel="false"
       vertical="false" />
    <pattern
       y="0"
       x="0"
       height="6"
       width="6"
       patternUnits="userSpaceOnUse"
       id="EMFhbasepattern" />
  </defs>
  <sodipodi:namedview
     id="base"
     pagecolor="#ffffff"
     bordercolor="#666666"
     borderopacity="1.0"
     inkscape:pageopacity="0.0"
     inkscape:pageshadow="2"
     inkscape:zoom="11.313709"
     inkscape:cx="225.55887"
     inkscape:cy="740.60915"
     inkscape:document-units="mm"
     inkscape:current-layer="layer1"
     showgrid="false"
     inkscape:snap-bbox="true"
     inkscape:bbox-nodes="true"
     inkscape:snap-bbox-edge-midpoints="true"
     inkscape:snap-bbox-midpoints="true"
     inkscape:bbox-paths="true"
     inkscape:measure-start="0,0"
     inkscape:measure-end="0,0"
     showguides="true"
     inkscape:guide-bbox="true"
     inkscape:window-width="2560"
     inkscape:window-height="1377"
     inkscape:window-x="-8"
     inkscape:window-y="-8"
     inkscape:window-maximized="1"
     inkscape:snap-intersection-paths="true"
     inkscape:snap-object-midpoints="true"
     inkscape:snap-midpoints="true"
     inkscape:snap-smooth-nodes="true"
     inkscape:object-paths="true"
     inkscape:snap-center="true">
    <sodipodi:guide
       position="69.405581,200.92163"
       orientation="0,1"
       id="guide875"
       inkscape:locked="false" />
    <sodipodi:guide
       position="68.132866,198.91762"
       orientation="0,1"
       id="guide885"
       inkscape:locked="false" />
    <sodipodi:guide
       position="68.083472,193.96432"
       orientation="1,0"
       id="guide923"
       inkscape:locked="false" />
  </sodipodi:namedview>
  <metadata
     id="metadata5">
    <rdf:RDF>
      <cc:Work
         rdf:about="">
        <dc:format>image/svg+xml</dc:format>
        <dc:type
           rdf:resource="http://purl.org/dc/dcmitype/StillImage" />
        <dc:title />
      </cc:Work>
    </rdf:RDF>
  </metadata>
  <g
     inkscape:label="Ebene 1"
     inkscape:groupmode="layer"
     id="layer1">
    <g
       id="g1062"
       transform="translate(-38.26061,11.691571)"
       inkscape:export-xdpi="6000.0142"
       inkscape:export-ydpi="6000.0142"
       style="fill:#808080">
      <path
         id="path891"
         transform="scale(0.26458333)"
         d="m 400.72656,311.98047 c -9.11546,0 -16.53515,7.41968 -16.53515,16.53515 h 2.83398 c 0,-7.58352 6.11766,-13.69921 13.70117,-13.69921 z"
         style="color:#000000;font-style:normal;font-variant:normal;font-weight:normal;font-stretch:normal;font-size:medium;line-height:normal;font-family:sans-serif;font-variant-ligatures:normal;font-variant-position:normal;font-variant-caps:normal;font-variant-numeric:normal;font-variant-alternates:normal;font-feature-settings:normal;text-indent:0;text-align:start;text-decoration:none;text-decoration-line:none;text-decoration-style:solid;text-decoration-color:#000000;letter-spacing:normal;word-spacing:normal;text-transform:none;writing-mode:lr-tb;direction:ltr;text-orientation:mixed;dominant-baseline:auto;baseline-shift:baseline;text-anchor:start;white-space:normal;shape-padding:0;clip-rule:nonzero;display:inline;overflow:visible;visibility:visible;opacity:1;isolation:auto;mix-blend-mode:normal;color-interpolation:sRGB;color-interpolation-filters:linearRGB;solid-color:#000000;solid-opacity:1;vector-effect:none;fill:#808080;fill-opacity:1;fill-rule:nonzero;stroke:none;stroke-width:2.83464575;stroke-linecap:round;stroke-linejoin:round;stroke-miterlimit:4;stroke-dasharray:none;stroke-dashoffset:0;stroke-opacity:1;color-rendering:auto;image-rendering:auto;shape-rendering:auto;text-rendering:auto;enable-background:accumulate"
         inkscape:connector-curvature="0" />
      <path
         id="path893"
         transform="scale(0.26458333)"
         d="m 400.72656,303.94922 c -13.55115,0 -24.56836,11.01525 -24.56836,24.5664 h 2.83594 c 0,-12.01919 9.71322,-21.73242 21.73242,-21.73242 z"
         style="color:#000000;font-style:normal;font-variant:normal;font-weight:normal;font-stretch:normal;font-size:medium;line-height:normal;font-family:sans-serif;font-variant-ligatures:normal;font-variant-position:normal;font-variant-caps:normal;font-variant-numeric:normal;font-variant-alternates:normal;font-feature-settings:normal;text-indent:0;text-align:start;text-decoration:none;text-decoration-line:none;text-decoration-style:solid;text-decoration-color:#000000;letter-spacing:normal;word-spacing:normal;text-transform:none;writing-mode:lr-tb;direction:ltr;text-orientation:mixed;dominant-baseline:auto;baseline-shift:baseline;text-anchor:start;white-space:normal;shape-padding:0;clip-rule:nonzero;display:inline;overflow:visible;visibility:visible;opacity:1;isolation:auto;mix-blend-mode:normal;color-interpolation:sRGB;color-interpolation-filters:linearRGB;solid-color:#000000;solid-opacity:1;vector-effect:none;fill:#808080;fill-opacity:1;fill-rule:nonzero;stroke:none;stroke-width:2.83464575;stroke-linecap:round;stroke-linejoin:round;stroke-miterlimit:4;stroke-dasharray:none;stroke-dashoffset:0;stroke-opacity:1;color-rendering:auto;image-rendering:auto;shape-rendering:auto;text-rendering:auto;enable-background:accumulate"
         inkscape:connector-curvature="0" />
      <path
         id="path893-5"
         transform="scale(0.26458333)"
         d="m 400.72656,295.44531 c -18.24775,0 -33.07226,14.82257 -33.07226,33.07031 h 2.83593 c 0,-16.71579 13.52054,-30.23632 30.23633,-30.23632 z"
         style="color:#000000;font-style:normal;font-variant:normal;font-weight:normal;font-stretch:normal;font-size:medium;line-height:normal;font-family:sans-serif;font-variant-ligatures:normal;font-variant-position:normal;font-variant-caps:normal;font-variant-numeric:normal;font-variant-alternates:normal;font-feature-settings:normal;text-indent:0;text-align:start;text-decoration:none;text-decoration-line:none;text-decoration-style:solid;text-decoration-color:#000000;letter-spacing:normal;word-spacing:normal;text-transform:none;writing-mode:lr-tb;direction:ltr;text-orientation:mixed;dominant-baseline:auto;baseline-shift:baseline;text-anchor:start;white-space:normal;shape-padding:0;clip-rule:nonzero;display:inline;overflow:visible;visibility:visible;opacity:1;isolation:auto;mix-blend-mode:normal;color-interpolation:sRGB;color-interpolation-filters:linearRGB;solid-color:#000000;solid-opacity:1;vector-effect:none;fill:#808080;fill-opacity:1;fill-rule:nonzero;stroke:none;stroke-width:2.83464575;stroke-linecap:round;stroke-linejoin:round;stroke-miterlimit:4;stroke-dasharray:none;stroke-dashoffset:0;stroke-opacity:1;color-rendering:auto;image-rendering:auto;shape-rendering:auto;text-rendering:auto;enable-background:accumulate"
         inkscape:connector-curvature="0" />
    </g>
    <path
       style="font-style:normal;font-variant:normal;font-weight:normal;font-stretch:normal;font-size:medium;line-height:125%;font-family:Age;-inkscape-font-specification:Age;letter-spacing:0px;word-spacing:0px;fill:#808080;fill-opacity:1;stroke:none;stroke-width:0.99999994px;stroke-linecap:butt;stroke-linejoin:miter;stroke-opacity:1"
       d="m 255.32031,363.13086 c -4.84193,0 -8.77344,3.93152 -8.77343,8.77344 v 15.60156 h 5.5625 c -0.62401,0 -1.13086,-0.50686 -1.13086,-1.13086 v -0.60742 h 0.97656 v 0.60742 c 0,0.0853 0.069,0.1543 0.1543,0.1543 h 2.00976 v -2.04883 c 0,0.624 -0.50686,1.1289 -1.13086,1.12891 h -0.8789 c -0.62401,-10e-6 -1.13086,-0.50491 -1.13086,-1.12891 v -0.88086 c 0,-0.624 0.50685,-1.13086 1.13086,-1.13086 h 2.00976 V 381.125 c 0,0.624 -0.50686,1.13086 -1.13086,1.13086 h -2.00976 v -0.97656 h 2.00976 c 0.0853,0 0.1543,-0.069 0.1543,-0.1543 v -0.875 c 0,-0.0853 -0.069,-0.1543 -0.1543,-0.1543 h -2.00976 v -0.97461 h 2.00976 c 0.624,0 1.13086,0.50491 1.13086,1.12891 v -1.34766 h -2.00976 c -0.62401,0 -1.13086,-0.51271 -1.13086,-1.13672 v -0.76757 c 0,-0.24 0.15422,-0.5112 0.35156,-0.64453 -0.19734,-0.128 -0.35156,-0.40596 -0.35156,-0.64063 v -0.77344 c 0,-0.624 0.50685,-1.13086 1.13086,-1.13086 h 2.00976 v -1.90429 c 0,-0.66214 0.53903,-1.19922 1.20117,-1.19922 h 2.18946 2.52734 1.25195 v -0.20117 c 0,-4.0683 3.97801,-7.37305 8.87696,-7.37305 -4.88466,-10e-6 -9.44935,0 -14.84571,0 z m -3.21093,11.6543 c -0.0853,0 -0.1543,0.069 -0.1543,0.15429 v 0.77344 c 0,0.0853 0.069,0.1543 0.1543,0.1543 h 2.00976 v -1.08203 z m 0,2.05859 c -0.0853,0 -0.1543,0.069 -0.1543,0.1543 v 0.76757 c 0,0.0853 0.069,0.16016 0.1543,0.16016 h 2.00976 v -1.08203 z m 0,6.60156 c -0.0853,0 -0.1543,0.069 -0.1543,0.1543 v 0.88086 c 0,0.0853 0.069,0.1543 0.1543,0.1543 h 0.8789 c 0.0853,0 0.1543,-0.069 0.1543,-0.1543 v -0.88086 h 0.97656 v -0.1543 z"
       transform="scale(0.26458333)"
       id="path926"
       inkscape:connector-curvature="0"
       sodipodi:nodetypes="ccccsccssccccsssccsccssssccsccssscssscsscccsccssssccsssssccssssssscccs"
       inkscape:export-xdpi="6000"
       inkscape:export-ydpi="6000" />
    <path
       style="font-style:normal;font-variant:normal;font-weight:normal;font-stretch:normal;font-size:10.095644px;line-height:125%;font-family:Age;-inkscape-font-specification:Age;letter-spacing:0px;word-spacing:0px;fill:#808080;fill-opacity:1;stroke:none;stroke-width:0.99999994px;stroke-linecap:butt;stroke-linejoin:miter;stroke-opacity:1"
       d="M 271.19727 363.13086 C 266.29832 363.13086 262.32031 366.43366 262.32031 370.50195 L 262.32031 387.50586 L 267.97266 387.50586 C 267.34866 387.50586 266.8418 386.999 266.8418 386.375 L 266.8418 385.49609 C 266.8418 384.87209 267.34866 384.36523 267.97266 384.36523 L 268.26172 384.36523 C 268.88572 384.36523 269.375 384.87209 269.375 385.49609 L 269.375 386.375 L 268.41016 386.375 L 268.41016 385.49414 C 268.41016 385.33994 268.34706 385.33984 268.26172 385.33984 L 267.97266 385.33984 C 267.88731 385.33984 267.81836 385.33956 267.81836 385.49414 L 267.81836 386.375 C 267.81836 386.46042 267.88731 386.52884 267.97266 386.5293 L 269.98242 386.54102 L 269.98242 383.05078 C 269.96593 383.66044 269.47103 384.15234 268.85742 384.15234 C 267.98276 384.15234 267.71113 384.15625 266.8418 384.15625 L 266.8418 383.17969 C 267.71113 383.17969 267.98809 383.17578 268.85742 383.17578 C 268.94276 383.17578 269.01172 383.1069 269.01172 383.02148 L 269.01172 382.86719 L 269.98242 382.86719 L 269.98242 381.5625 C 269.98242 382.1865 269.47556 382.69336 268.85156 382.69336 L 267.97266 382.69336 C 267.34866 382.69336 266.8418 382.1865 266.8418 381.5625 L 266.8418 380.68359 C 266.8418 380.05959 267.34866 379.55273 267.97266 379.55273 L 269.98242 379.55273 L 269.98242 377.26172 L 269.375 377.26172 C 269.38029 377.31505 269.38477 377.36855 269.38477 377.42188 L 269.38477 377.7207 C 269.38477 378.25935 268.996 378.67493 268.5 378.82422 L 266.8418 379.32617 L 266.8418 378.31055 L 268.30273 377.86523 C 268.36672 377.84388 268.41016 377.78469 268.41016 377.7207 L 268.41016 377.26172 L 266.8418 377.26172 L 266.8418 376.28516 L 269.98242 376.28516 L 269.98242 374.88477 C 269.98242 375.50877 269.47556 376.01563 268.85156 376.01562 L 267.97266 376.01562 C 267.34866 376.01562 266.8418 375.50877 266.8418 374.88477 L 266.8418 374.01172 C 266.8418 373.31839 267.38555 372.68879 268.18555 372.93945 L 268.85742 373.15234 L 268.85742 374.12891 L 268.01562 373.86719 C 267.90898 373.83517 267.81836 373.89973 267.81836 374.01172 L 267.81836 374.88477 C 267.81836 374.97007 267.88731 375.04102 267.97266 375.04102 L 268.85156 375.04102 C 268.9369 375.04102 269.00586 374.97011 269.00586 374.88477 L 269.00586 372.89062 L 269.98242 372.89062 L 269.98242 372.70312 L 267.97266 372.70312 C 267.34866 372.70313 266.8418 372.19627 266.8418 371.57227 L 266.8418 370.96484 L 267.81836 370.96484 L 267.81836 371.57227 C 267.81836 371.65761 267.88731 371.72852 267.97266 371.72852 L 269.98242 371.72852 L 269.98242 370.50195 C 269.98242 369.94561 270.52732 369.49414 271.19727 369.49414 L 278.10547 369.49414 C 278.77541 369.49414 279.32031 369.94561 279.32031 370.50195 L 279.32031 376.24023 C 279.32031 376.79658 278.77541 377.24805 278.10547 377.24805 L 271.19727 377.24805 L 271.19727 383.61133 L 278.10547 383.61133 C 283.00441 383.61133 286.98242 380.30851 286.98242 376.24023 L 286.98242 370.50195 C 286.98242 366.43366 283.00441 363.13086 278.10547 363.13086 L 271.19727 363.13086 z M 267.97266 380.52734 C 267.88731 380.52734 267.81836 380.59818 267.81836 380.68359 L 267.81836 381.5625 C 267.81836 381.64792 267.88731 381.7168 267.97266 381.7168 L 268.85156 381.7168 C 268.9369 381.7168 269.00586 381.64792 269.00586 381.5625 L 269.00586 380.68359 L 269.98242 380.68359 L 269.98242 380.52734 L 267.97266 380.52734 z "
       transform="scale(0.26458333)"
       id="path836"
       inkscape:export-xdpi="6000"
       inkscape:export-ydpi="6000" />
  </g>
</svg>
