<?xml version="1.0" encoding="UTF-8" standalone="no"?>
<!-- Created with Inkscape (http://www.inkscape.org/) -->

<svg
   xmlns:dc="http://purl.org/dc/elements/1.1/"
   xmlns:cc="http://creativecommons.org/ns#"
   xmlns:rdf="http://www.w3.org/1999/02/22-rdf-syntax-ns#"
   xmlns:svg="http://www.w3.org/2000/svg"
   xmlns="http://www.w3.org/2000/svg"
   xmlns:xlink="http://www.w3.org/1999/xlink"
   xmlns:sodipodi="http://sodipodi.sourceforge.net/DTD/sodipodi-0.dtd"
   xmlns:inkscape="http://www.inkscape.org/namespaces/inkscape"
   width="auto"
   height="auto"
   viewBox="0 0 200 200"
   version="1.1"
   id="svg5459"
   inkscape:version="0.92.4 (5da689c313, 2019-01-14)"
   sodipodi:docname="raumPlayer.svg">
  <defs
     id="defs5453">
    <linearGradient
       inkscape:collect="always"
       id="linearGradient4590">
      <stop
         style="stop-color:#ffffff;stop-opacity:1;"
         offset="0"
         id="stop4586" />
      <stop
         style="stop-color:#426c8a;stop-opacity:1"
         offset="1"
         id="stop4588" />
    </linearGradient>
    <linearGradient
       inkscape:collect="always"
       xlink:href="#linearGradient4590"
       id="linearGradient4596"
       gradientUnits="userSpaceOnUse"
       x1="1"
       y1="1"
       x2="200"
       y2="200" />
    <linearGradient
       inkscape:collect="always"
       xlink:href="#linearGradient4590"
       id="linearGradient6030"
       gradientUnits="userSpaceOnUse"
       x1="1"
       y1="1"
       x2="200"
       y2="200"
       gradientTransform="translate(259.46441,624.4869)" />
  </defs>
  <sodipodi:namedview
     id="base"
     pagecolor="#b0bdbd"
     bordercolor="#666666"
     borderopacity="1.0"
     inkscape:pageopacity="0"
     inkscape:pageshadow="2"
     inkscape:zoom="3.959798"
     inkscape:cx="167.66558"
     inkscape:cy="-156.73838"
     inkscape:document-units="px"
     inkscape:current-layer="layer1"
     showgrid="false"
     units="px"
     inkscape:window-width="2560"
     inkscape:window-height="1377"
     inkscape:window-x="-8"
     inkscape:window-y="-8"
     inkscape:window-maximized="1"
     showguides="true"
     inkscape:guide-bbox="true"
     inkscape:snap-midpoints="false"
     inkscape:object-nodes="true"
     inkscape:snap-others="true"
     inkscape:snap-bbox="true"
     inkscape:snap-bbox-edge-midpoints="true"
     inkscape:bbox-nodes="true"
     inkscape:snap-nodes="true"
     inkscape:snap-object-midpoints="true"
     inkscape:snap-intersection-paths="true"
     inkscape:bbox-paths="true" />
  <metadata
     id="metadata5456">
    <rdf:RDF>
      <cc:Work
         rdf:about="">
        <dc:format>image/svg+xml</dc:format>
        <dc:type
           rdf:resource="http://purl.org/dc/dcmitype/StillImage" />
        <dc:title />
      </cc:Work>
    </rdf:RDF>
  </metadata>
  <g
     inkscape:label="Ebene 1"
     inkscape:groupmode="layer"
     id="layer1"
     transform="translate(0,-391.16665)">
    <path
       style="color:#000000;font-style:normal;font-variant:normal;font-weight:normal;font-stretch:normal;font-size:medium;line-height:normal;font-family:sans-serif;font-variant-ligatures:normal;font-variant-position:normal;font-variant-caps:normal;font-variant-numeric:normal;font-variant-alternates:normal;font-feature-settings:normal;text-indent:0;text-align:start;text-decoration:none;text-decoration-line:none;text-decoration-style:solid;text-decoration-color:#000000;letter-spacing:normal;word-spacing:normal;text-transform:none;writing-mode:lr-tb;direction:ltr;text-orientation:mixed;dominant-baseline:auto;baseline-shift:baseline;text-anchor:start;white-space:normal;shape-padding:0;clip-rule:nonzero;display:inline;overflow:visible;visibility:visible;opacity:1;isolation:auto;mix-blend-mode:normal;color-interpolation:sRGB;color-interpolation-filters:linearRGB;solid-color:#000000;solid-opacity:1;vector-effect:none;fill:url(#linearGradient4596);fill-opacity:1;fill-rule:evenodd;stroke:none;stroke-width:7.5590539;stroke-linecap:square;stroke-linejoin:miter;stroke-miterlimit:10;stroke-dasharray:none;stroke-dashoffset:0;stroke-opacity:1;paint-order:markers fill stroke;color-rendering:auto;image-rendering:auto;shape-rendering:auto;text-rendering:auto;enable-background:accumulate"
       d="M 0 0 L 0 139.73633 L 0 140.44922 L 1.0234375 139.83594 L 1.1855469 139.73633 L 1 139.73633 L 1 1 L 199 1 L 199 139.55273 L 196.27539 137.28125 L 195.13867 138.58203 L 193.13867 137.01172 L 188.75 139.73633 L 191.76758 139.73633 L 193.00977 138.625 L 194.94727 139.73633 L 195.38672 139.73633 L 196.41602 138.29492 L 198.88867 139.73633 L 199 139.73633 L 199.2207 139.73633 L 200 140.38477 L 200 139.73633 L 200 0 L 0 0 z M 200 140.38477 L 198.88867 139.73633 L 195.38672 139.73633 L 195.25781 139.91602 L 194.94727 139.73633 L 191.76758 139.73633 L 188.37305 142.77734 L 185.27344 140.45312 L 179.80273 159.04688 L 174.61914 140.53711 L 170.49609 142.73242 L 166.64648 140.00586 L 161.02734 142.72461 L 160.25977 139.73633 L 154.63477 139.73633 L 153.84961 142.93164 L 148.39453 140.10742 L 143.7168 142.20508 L 140.72852 140.33789 L 134.89258 162.77148 L 129.08789 140.81445 L 125.99805 143.16797 L 124.33594 139.73633 L 119.10547 139.73633 L 117.74805 142.64648 L 112.91406 140.14062 L 107.36133 143.28711 L 106.38672 139.73633 L 100.79883 139.73633 L 99.599609 143.99609 L 96.267578 140.48828 L 90.759766 150.83594 L 85.287109 141.08594 L 81.320312 144.33398 L 80.470703 139.73633 L 73.617188 139.73633 L 72.775391 145.01172 L 67.421875 140.61523 L 63.316406 143.65234 L 61.554688 139.73633 L 57.023438 139.73633 L 54.796875 144.11719 L 52.167969 139.73633 L 51.947266 139.73633 L 45.853516 175.44141 L 39.015625 139.73633 L 38.876953 139.73633 L 36.878906 146 L 34.814453 139.73633 L 30.021484 139.73633 L 28.498047 144.41992 L 25.310547 139.98828 L 19.363281 149.79492 L 13.636719 139.73633 L 12.085938 139.73633 L 9.4902344 141.46875 L 7.7363281 139.73633 L 1.484375 139.73633 L 0 140.44922 L 0 182.86914 C 0 178.77022 3.3288184 175.44141 7.4277344 175.44141 L 11.421875 175.44141 L 11.421875 181.85352 L 7.4277344 181.85352 C 6.8672199 181.85352 6.4121094 182.30859 6.4121094 182.86914 L 6.4121094 196.07617 L 0 196.07617 L 0 200 L 158.63672 200 L 158.63672 196.00781 C 158.28638 196.04301 157.9382 196.07617 157.58789 196.07617 L 155.625 196.07617 C 152.0866 196.07617 149.35399 193.51789 148.37305 190.25977 L 143.88867 175.44141 L 150.54492 175.44141 L 154.67773 188.96484 C 154.81783 189.38524 155.20461 189.66602 155.625 189.66602 L 158.63672 189.66602 L 158.63672 175.44141 L 165.04883 175.44141 L 165.04883 200 L 200 200 L 200 181.85352 L 196.00781 181.85352 C 195.44729 181.85352 194.99023 182.3086 194.99023 182.86914 L 194.99023 196.07617 L 188.57812 196.07617 L 188.57812 182.86914 C 188.57812 178.77022 191.90888 175.44141 196.00781 175.44141 L 200 175.44141 L 200 140.38477 z M 1.484375 139.73633 L 5.6914062 137.7207 L 7.7363281 139.73633 L 9.0058594 139.73633 L 5.7324219 137.00781 L 1.1855469 139.73633 L 1.484375 139.73633 z M 9.0058594 139.73633 L 9.4589844 140.11523 L 9.9316406 139.73633 L 9.0058594 139.73633 z M 9.9316406 139.73633 L 12.085938 139.73633 L 13.208984 138.98633 L 13.636719 139.73633 L 15.677734 139.73633 L 13.712891 136.71094 L 9.9316406 139.73633 z M 15.677734 139.73633 L 19.292969 145.30664 L 22.671875 139.73633 L 15.677734 139.73633 z M 22.671875 139.73633 L 30.021484 139.73633 L 32.404297 132.41797 L 34.814453 139.73633 L 38.876953 139.73633 L 38.962891 139.4668 L 39.015625 139.73633 L 41.443359 139.73633 L 39.541016 129.81055 L 36.841797 138.26562 L 32.388672 124.75 L 27.685547 139.20898 L 25.140625 135.66992 L 22.671875 139.73633 z M 41.443359 139.73633 L 45.71875 162.05469 L 49.527344 139.73633 L 41.443359 139.73633 z M 49.527344 139.73633 L 51.947266 139.73633 L 51.996094 139.45117 L 52.167969 139.73633 L 57.023438 139.73633 L 59.427734 135.01172 L 61.554688 139.73633 L 64.167969 139.73633 L 59.558594 129.49023 L 54.625 139.19141 L 50.728516 132.69922 L 49.527344 139.73633 z M 64.167969 139.73633 L 64.275391 139.97461 L 64.597656 139.73633 L 64.167969 139.73633 z M 64.597656 139.73633 L 70.113281 139.73633 L 67.501953 137.5918 L 64.597656 139.73633 z M 70.113281 139.73633 L 71.076172 140.52734 L 71.201172 139.73633 L 70.113281 139.73633 z M 71.201172 139.73633 L 73.617188 139.73633 L 76.792969 119.83398 L 80.470703 139.73633 L 82.896484 139.73633 L 76.619141 105.77539 L 71.201172 139.73633 z M 82.896484 139.73633 L 82.933594 139.93164 L 83.169922 139.73633 L 82.896484 139.73633 z M 83.169922 139.73633 L 87.265625 139.73633 L 85.976562 137.44141 L 83.169922 139.73633 z M 87.265625 139.73633 L 90.703125 145.86133 L 93.964844 139.73633 L 87.265625 139.73633 z M 93.964844 139.73633 L 100.79883 139.73633 L 103.62891 129.6875 L 106.38672 139.73633 L 119.10547 139.73633 L 121.67188 134.23242 L 124.33594 139.73633 L 131.26758 139.73633 L 130.48047 136.75586 L 126.875 139.50195 L 121.63477 128.67383 L 116.63672 139.38281 L 112.86328 137.42969 L 108.85156 139.70312 L 103.6582 120.78516 L 98.439453 139.31055 L 95.716797 136.44531 L 93.964844 139.73633 z M 131.26758 139.73633 L 134.87305 153.37109 L 138.42188 139.73633 L 131.26758 139.73633 z M 138.42188 139.73633 L 154.63477 139.73633 L 157.38281 128.54102 L 160.25977 139.73633 L 170.39258 139.73633 L 166.875 137.24414 L 162.61133 139.30664 L 157.33008 118.74609 L 152.25586 139.41992 L 148.46875 137.46094 L 143.90039 139.50977 L 139.23828 136.5957 L 138.42188 139.73633 z M 170.39258 139.73633 L 170.67383 139.93555 L 171.04492 139.73633 L 170.39258 139.73633 z M 171.04492 139.73633 L 176.87305 139.73633 L 176.11523 137.0332 L 171.04492 139.73633 z M 176.87305 139.73633 L 179.85938 150.40234 L 182.99414 139.73633 L 176.87305 139.73633 z M 182.99414 139.73633 L 188.29688 139.73633 L 183.95117 136.48047 L 182.99414 139.73633 z M 188.29688 139.73633 L 188.50195 139.89062 L 188.75 139.73633 L 188.29688 139.73633 z M 98.810547 171.51953 L 104.55469 171.51953 C 108.65364 171.51953 111.98242 174.84641 111.98242 178.94531 L 111.98242 184.69141 C 111.98242 188.79033 108.65364 192.11719 104.55469 192.11719 L 98.810547 192.11719 L 98.810547 185.70703 L 104.55469 185.70703 C 105.11524 185.70703 105.57227 185.25196 105.57227 184.69141 L 105.57227 178.94531 C 105.57227 178.38476 105.11524 177.92969 104.55469 177.92969 L 98.810547 177.92969 C 98.250017 177.92969 97.792969 178.38476 97.792969 178.94531 L 97.792969 196.07617 L 91.382812 196.07617 L 91.382812 178.94531 C 91.382812 174.84641 94.711617 171.51953 98.810547 171.51953 z M 113.3457 171.55273 L 119.75586 171.55273 C 119.75586 177.26321 119.79102 182.97509 119.79102 188.68555 C 119.79102 189.24607 120.24808 189.70117 120.80859 189.70117 L 121.82422 189.70117 L 121.82422 196.11133 L 120.80859 196.11133 C 116.7097 196.11133 113.38086 192.78446 113.38086 188.68555 C 113.38086 182.94006 113.3457 177.26321 113.3457 171.55273 z M 19.880859 175.44141 L 25.662109 175.44141 C 29.761 175.44141 33.087891 178.77023 33.087891 182.86914 L 33.087891 196.07617 L 26.677734 196.07617 L 26.677734 182.86914 C 26.677734 182.30858 26.222636 181.85352 25.662109 181.85352 L 19.880859 181.85352 C 19.320348 181.85352 18.865234 182.30858 18.865234 182.86914 L 18.865234 188.65039 C 18.865234 189.21095 19.320348 189.66602 19.880859 189.66602 L 25.662109 189.66602 L 25.662109 196.07617 L 19.880859 196.07617 C 15.781934 196.07617 12.453125 192.74932 12.453125 188.65039 L 12.453125 182.86914 C 12.453125 178.77022 15.781934 175.44141 19.880859 175.44141 z M 34.486328 175.44141 L 40.896484 175.44141 L 40.896484 188.65039 C 40.896484 189.21094 41.353535 189.66602 41.914062 189.66602 L 47.660156 189.66602 C 48.220711 189.66602 48.675781 189.21094 48.675781 188.65039 L 48.675781 175.44141 L 55.085938 175.44141 L 55.085938 188.65039 C 55.085938 192.74932 51.759122 196.07617 47.660156 196.07617 L 41.914062 196.07617 C 37.815134 196.07617 34.486328 192.74932 34.486328 188.65039 L 34.486328 175.44141 z M 63.982422 175.44141 L 69.025391 175.44141 C 70.601916 175.44141 72.389815 176.45771 73.265625 177.75391 C 74.106435 176.45771 75.92728 175.44141 77.46875 175.44141 L 82.548828 175.44141 C 86.647748 175.44141 89.976562 178.77023 89.976562 182.86914 L 89.976562 196.07617 L 83.564453 196.07617 L 83.564453 182.86914 C 83.564453 182.30858 83.109378 181.85352 82.548828 181.85352 L 77.46875 181.85352 C 76.908195 181.85352 76.453125 182.30858 76.453125 182.86914 L 76.453125 196.07617 L 70.042969 196.07617 L 70.042969 182.86914 C 70.042969 182.30858 69.585941 181.85352 69.025391 181.85352 L 63.982422 181.85352 C 63.421872 181.85352 62.929688 182.30858 62.929688 182.86914 L 62.929688 196.07617 L 56.519531 196.07617 L 56.519531 182.86914 C 56.519531 178.77022 59.883437 175.44141 63.982422 175.44141 z M 130.38672 175.44141 L 136.16797 175.44141 C 140.2669 175.44141 143.5957 178.77023 143.5957 182.86914 L 143.5957 196.07617 L 137.18359 196.07617 L 137.18359 182.86914 C 137.18359 182.30858 136.72852 181.85352 136.16797 181.85352 L 130.38672 181.85352 C 129.82617 181.85352 129.37109 182.30858 129.37109 182.86914 L 129.37109 188.65039 C 129.37109 189.21095 129.82617 189.66602 130.38672 189.66602 L 136.16797 189.66602 L 136.16797 196.07617 L 130.38672 196.07617 C 126.28776 196.07617 122.96094 192.74932 122.96094 188.65039 L 122.96094 182.86914 C 122.96094 178.77022 126.28776 175.44141 130.38672 175.44141 z M 174.24805 175.44141 L 179.99219 175.44141 C 184.54655 175.44141 188.67976 179.01647 187.0332 184.27148 L 185.63281 188.68555 L 179.22266 188.68555 L 180.9375 183.15039 C 181.14774 182.44973 180.72791 181.85352 179.99219 181.85352 L 174.24805 181.85352 C 173.6875 181.85352 173.23242 182.30859 173.23242 182.86914 L 173.23242 188.65039 C 173.23242 189.21094 173.6875 189.66602 174.24805 189.66602 L 187.34961 189.66602 L 187.34961 196.07617 L 174.24805 196.07617 C 170.14912 196.07617 166.82031 192.74932 166.82031 188.65039 L 166.82031 182.86914 C 166.82035 178.77022 170.14912 175.44141 174.24805 175.44141 z "
       transform="translate(0,391.16665)"
       id="path4754-5-4" />
    <circle
       style="opacity:1;vector-effect:none;fill:#ff0000;fill-opacity:1;stroke:none;stroke-width:22.67716599;stroke-linecap:square;stroke-linejoin:miter;stroke-miterlimit:10;stroke-dasharray:none;stroke-dashoffset:0;stroke-opacity:1;paint-order:stroke markers fill"
       id="path6032"
       cx="97.22718"
       cy="703.29358"
       r="100" />
    <path
       inkscape:connector-curvature="0"
       style="color:#000000;font-style:normal;font-variant:normal;font-weight:normal;font-stretch:normal;font-size:medium;line-height:normal;font-family:sans-serif;font-variant-ligatures:normal;font-variant-position:normal;font-variant-caps:normal;font-variant-numeric:normal;font-variant-alternates:normal;font-feature-settings:normal;text-indent:0;text-align:start;text-decoration:none;text-decoration-line:none;text-decoration-style:solid;text-decoration-color:#000000;letter-spacing:normal;word-spacing:normal;text-transform:none;writing-mode:lr-tb;direction:ltr;text-orientation:mixed;dominant-baseline:auto;baseline-shift:baseline;text-anchor:start;white-space:normal;shape-padding:0;clip-rule:nonzero;display:inline;overflow:visible;visibility:visible;opacity:1;isolation:auto;mix-blend-mode:normal;color-interpolation:sRGB;color-interpolation-filters:linearRGB;solid-color:#000000;solid-opacity:1;vector-effect:none;fill:url(#linearGradient6030);fill-opacity:1;fill-rule:evenodd;stroke:none;stroke-width:7.5590539;stroke-linecap:square;stroke-linejoin:miter;stroke-miterlimit:10;stroke-dasharray:none;stroke-dashoffset:0;stroke-opacity:1;paint-order:markers fill stroke;color-rendering:auto;image-rendering:auto;shape-rendering:auto;text-rendering:auto;enable-background:accumulate"
       d="m 259.46441,624.4869 v 139.73633 0.71289 l 1.02344,-0.61328 0.16211,-0.0996 h -0.18555 V 625.4869 H 458.4644 v 138.55273 l -2.72461,-2.27148 -1.13672,1.30078 -2,-1.57031 -4.38867,2.72461 h 3.01758 l 1.24219,-1.11133 1.9375,1.11133 h 0.43945 l 1.0293,-1.44141 2.47265,1.44141 h 0.11133 0.2207 l 0.7793,0.64844 V 764.22323 624.4869 Z m 199.99999,140.38477 -1.11133,-0.64844 h -3.50195 l -0.12891,0.17969 -0.31054,-0.17969 h -3.17969 l -3.39453,3.04101 -3.09961,-2.32422 -5.47071,18.59376 -5.18359,-18.50977 -4.12305,2.19531 -3.84961,-2.72656 -5.61914,2.71875 -0.76757,-2.98828 h -5.625 l -0.78516,3.19531 -5.45508,-2.82422 -4.67773,2.09766 -2.98828,-1.86719 -5.83594,22.43359 -5.80469,-21.95703 -3.08984,2.35352 -1.66211,-3.43164 h -5.23047 l -1.35742,2.91015 -4.83399,-2.50586 -5.55273,3.14649 -0.97461,-3.55078 h -5.58788 l -1.19922,4.25976 -3.33204,-3.50781 -5.50781,10.34766 -5.47265,-9.75 -3.9668,3.24804 -0.84961,-4.59765 h -6.85352 l -0.84179,5.27539 -5.35352,-4.39649 -4.10547,3.03711 -1.76172,-3.91601 h -4.53125 l -2.22656,4.38086 -2.6289,-4.38086 h -0.22071 l -6.09375,35.70508 -6.83789,-35.70508 h -0.13867 l -1.99805,6.26367 -2.06445,-6.26367 h -4.79297 l -1.52344,4.68359 -3.1875,-4.43164 -5.94726,9.80664 -5.72656,-10.05859 h -1.55078 l -2.5957,1.73242 -1.75391,-1.73242 h -6.25195 l -1.48438,0.71289 v 42.41992 c 0,-4.09892 3.32882,-7.42773 7.42774,-7.42773 h 3.99414 v 6.41211 h -3.99414 c -0.56052,0 -1.01563,0.45507 -1.01563,1.01562 v 13.20703 h -6.41211 v 3.92383 h 158.63671 v -3.99219 c -0.35034,0.0352 -0.69852,0.0684 -1.04883,0.0684 h -1.96289 c -3.5384,0 -6.27101,-2.55828 -7.25195,-5.8164 l -4.48438,-14.81836 h 6.65625 l 4.13281,13.52343 c 0.1401,0.4204 0.52689,0.70118 0.94727,0.70118 h 3.01172 v -14.22461 h 6.41212 v 24.55855 h 34.95116 v -18.14648 h -3.99218 c -0.56052,0 -1.01759,0.45508 -1.01759,1.01562 v 13.20703 h -6.41211 v -13.20703 c 0,-4.09892 3.33076,-7.42773 7.42969,-7.42773 h 3.99219 z m -198.51561,-0.64844 4.20703,-2.01563 2.04492,2.01563 h 1.26953 l -3.27344,-2.72852 -4.54687,2.72852 z m 7.52148,0 0.45313,0.3789 0.47265,-0.3789 z m 0.92578,0 h 2.1543 l 1.12305,-0.75 0.42773,0.75 h 2.04102 l -1.96485,-3.02539 z m 5.7461,0 3.61523,5.57031 3.3789,-5.57031 z m 6.99413,0 h 7.34961 l 2.38281,-7.31836 2.41016,7.31836 h 4.0625 l 0.0859,-0.26953 0.0527,0.26953 h 2.42773 l -1.90234,-9.92578 -2.69922,8.45507 -4.45312,-13.51562 -4.70313,14.45898 -2.54492,-3.53906 z m 18.77149,0 4.27539,22.31836 3.80859,-22.31836 z m 8.08398,0 h 2.41992 l 0.0488,-0.28516 0.17188,0.28516 h 4.85547 l 2.40429,-4.72461 2.12696,4.72461 h 2.61328 l -4.60938,-10.2461 -4.93359,9.70118 -3.89649,-6.49219 z m 14.64063,0 0.10742,0.23828 0.32226,-0.23828 z m 0.42968,0 h 5.51563 l -2.61133,-2.14453 z m 5.51563,0 0.96289,0.79101 0.125,-0.79101 z m 1.08789,0 h 2.41601 l 3.17579,-19.90235 3.67773,19.90235 h 2.42578 l -6.27734,-33.96094 z m 11.69531,0 0.0371,0.19531 0.23633,-0.19531 z m 0.27344,0 h 4.0957 l -1.28906,-2.29492 z m 4.0957,0 3.4375,6.125 3.26172,-6.125 z m 6.69922,0 h 6.83399 l 2.83007,-10.04883 2.75781,10.04883 h 12.71875 l 2.56641,-5.50391 2.66406,5.50391 h 6.93164 l -0.78711,-2.98047 -3.60547,2.74609 -5.24023,-10.82812 -4.99805,10.70898 -3.77344,-1.95312 -4.01172,2.27343 -5.19336,-18.91796 -5.21874,18.52539 -2.72266,-2.86524 z m 37.30273,0 3.60547,13.63476 3.54883,-13.63476 z m 7.1543,0 h 16.21289 l 2.74804,-11.19531 2.87696,11.19531 h 10.13281 l -3.51758,-2.49219 -4.26367,2.0625 -5.28125,-20.56055 -5.07422,20.67383 -3.78711,-1.95898 -4.56836,2.04883 -4.66211,-2.91407 z m 31.9707,0 0.28125,0.19922 0.37109,-0.19922 z m 0.65234,0 h 5.82813 l -0.75782,-2.70313 z m 5.82813,0 2.98633,10.66601 3.13476,-10.66601 z m 6.12109,0 h 5.30274 l -4.34571,-3.25586 z m 5.30274,0 0.20507,0.15429 0.24805,-0.15429 z m -89.48633,31.7832 h 5.74414 c 4.09895,0 7.42773,3.32688 7.42773,7.42578 v 5.7461 c 0,4.09892 -3.32878,7.42578 -7.42773,7.42578 h -5.74414 v -6.41016 h 5.74414 c 0.56055,0 1.01758,-0.45507 1.01758,-1.01562 v -5.7461 c 0,-0.56055 -0.45703,-1.01562 -1.01758,-1.01562 h -5.74414 c -0.56053,0 -1.01757,0.45507 -1.01757,1.01562 v 17.13086 h -6.41016 v -17.13086 c 0,-4.0989 3.3288,-7.42578 7.42773,-7.42578 z m 14.53515,0.0332 h 6.41016 c 0,5.71048 0.0352,11.42236 0.0352,17.13282 0,0.56052 0.45706,1.01562 1.01757,1.01562 h 1.01563 v 6.41016 h -1.01563 c -4.09889,0 -7.42773,-3.32687 -7.42773,-7.42578 0,-5.74549 -0.0352,-11.42234 -0.0352,-17.13282 z m -93.46483,3.88868 h 5.78125 c 4.09889,0 7.42578,3.32882 7.42578,7.42773 v 13.20703 h -6.41016 v -13.20703 c 0,-0.56056 -0.4551,-1.01562 -1.01562,-1.01562 h -5.78125 c -0.56051,0 -1.01562,0.45506 -1.01562,1.01562 v 5.78125 c 0,0.56056 0.45511,1.01563 1.01562,1.01563 h 5.78125 v 6.41015 h -5.78125 c -4.09892,0 -7.42773,-3.32685 -7.42773,-7.42578 v -5.78125 c 0,-4.09892 3.32881,-7.42773 7.42773,-7.42773 z m 14.60546,0 h 6.41016 v 13.20898 c 0,0.56055 0.45705,1.01563 1.01758,1.01563 h 5.74609 c 0.56056,0 1.01563,-0.45508 1.01563,-1.01563 v -13.20898 h 6.41015 v 13.20898 c 0,4.09893 -3.32681,7.42578 -7.42578,7.42578 h -5.74609 c -4.09893,0 -7.42774,-3.32685 -7.42774,-7.42578 z m 29.4961,0 h 5.04297 c 1.57652,0 3.36442,1.0163 4.24023,2.3125 0.84081,-1.2962 2.66166,-2.3125 4.20313,-2.3125 h 5.08007 c 4.09892,0 7.42774,3.32882 7.42774,7.42773 v 13.20703 h -6.41211 v -13.20703 c 0,-0.56056 -0.45508,-1.01562 -1.01563,-1.01562 h -5.08007 c -0.56056,0 -1.01563,0.45506 -1.01563,1.01562 v 13.20703 h -6.41015 v -13.20703 c 0,-0.56056 -0.45703,-1.01562 -1.01758,-1.01562 h -5.04297 c -0.56055,0 -1.05274,0.45506 -1.05274,1.01562 v 13.20703 h -6.41015 v -13.20703 c 0,-4.09892 3.3639,-7.42773 7.46289,-7.42773 z m 66.40429,0 h 5.78125 c 4.09893,0 7.42773,3.32882 7.42773,7.42773 v 13.20703 h -6.41211 v -13.20703 c 0,-0.56056 -0.45507,-1.01562 -1.01562,-1.01562 h -5.78125 c -0.56055,0 -1.01563,0.45506 -1.01563,1.01562 v 5.78125 c 0,0.56056 0.45508,1.01563 1.01563,1.01563 h 5.78125 v 6.41015 h -5.78125 c -4.09896,0 -7.42578,-3.32685 -7.42578,-7.42578 v -5.78125 c 0,-4.09892 3.32682,-7.42773 7.42578,-7.42773 z m 43.86133,0 h 5.74414 c 4.55436,0 8.68757,3.57506 7.04101,8.83007 l -1.40039,4.41407 h -6.41015 l 1.71484,-5.53516 c 0.21024,-0.70066 -0.20959,-1.29687 -0.94531,-1.29687 h -5.74414 c -0.56055,0 -1.01563,0.45507 -1.01563,1.01562 v 5.78125 c 0,0.56055 0.45508,1.01563 1.01563,1.01563 h 13.10156 v 6.41015 h -13.10156 c -4.09893,0 -7.42774,-3.32685 -7.42774,-7.42578 v -5.78125 c 4e-5,-4.09892 3.32881,-7.42773 7.42774,-7.42773 z"
       id="path4754-5-4-5" />
    <path
       style="fill:#000000;fill-rule:evenodd;stroke:none;stroke-width:1px;stroke-linecap:butt;stroke-linejoin:miter;stroke-opacity:1"
       d="m -2.7728179,743.7428 5.732422,-3.44141 3.726562,3.10742 4.2539069,-3.40429 5.580078,8.5957 5.847654,-9.63672 2.544922,3.53906 4.703125,-14.45898 4.453125,13.51562 2.699219,-8.45507 6.177736,32.24414 5.009768,-29.35547 3.896484,6.49219 4.933594,-9.70118 4.716795,10.48438 3.226562,-2.38281 3.574219,2.93554 5.542969,-34.75195 6.314453,34.15625 3.042968,-2.49023 4.726563,8.41992 5.013672,-9.41602 2.722656,2.86524 5.218745,-18.52539 5.19336,18.91796 4.01172,-2.27343 3.77344,1.95312 4.99805,-10.70898 5.24023,10.82812 3.60547,-2.74609 4.39258,16.61523 4.36523,-16.77539 4.66211,2.91407 4.56836,-2.04883 3.78711,1.95898 5.07422,-20.67383 5.28125,20.56055 4.26367,-2.0625 3.79883,2.69141 5.4414,-2.90235 3.74415,13.36914 4.09179,-13.92187 4.55078,3.41015 4.63672,-2.8789 2,1.57031 1.13672,-1.30078 3.72461,3.10352 -3.58398,-2.08985 -1.15821,1.6211 -2.24804,-1.29102 -4.63672,4.15234 -3.09961,-2.32422 -5.47071,18.59376 -5.18359,-18.50977 -4.12305,2.19531 -3.84961,-2.72656 -5.61914,2.71875 -3.64453,-14.18359 -3.5332,14.39062 -5.45508,-2.82422 -4.67773,2.09766 -2.98828,-1.86719 -5.83594,22.43359 -5.80469,-21.95703 -3.08984,2.35352 -4.32617,-8.93555 -3.92383,8.41406 -4.83399,-2.50586 -5.55273,3.14649 -3.73242,-13.59961 -4.029299,14.30859 -3.332031,-3.50781 -5.507812,10.34766 -5.472657,-9.75 -3.966797,3.24804 -4.527343,-24.5 -4.017578,25.17774 -5.353516,-4.39649 -4.105469,3.03711 -3.88867,-8.64062 -4.630861,9.10547 -2.800779,-4.66602 -6.14258,35.99024 -6.890623,-35.97461 -2.083987,6.5332 -4.474609,-13.58203 -3.90625,12.00195 -3.1875,-4.43164 -5.947266,9.80664 -6.154297,-10.80859 -3.7187499,2.48242 -3.798828,-3.74805 z"
       id="path6034"
       inkscape:connector-curvature="0" />
    <path
       style="opacity:1;vector-effect:none;fill:#803300;fill-opacity:1;stroke:none;stroke-width:22.67716599;stroke-linecap:square;stroke-linejoin:miter;stroke-miterlimit:10;stroke-dasharray:none;stroke-dashoffset:0;stroke-opacity:1;paint-order:stroke markers fill"
       d="M 97.226562 212.12695 A 100 100 0 0 0 -2.7734375 312.12695 A 100 100 0 0 0 97.226562 412.12695 A 100 100 0 0 0 197.22656 312.12695 A 100 100 0 0 0 97.226562 212.12695 z M 97.164062 214.12891 C 135.29968 213.83934 172.38557 238.75553 185.70898 274.74219 C 201.07262 312.33204 188.47698 358.83098 156.31055 383.57031 C 124.94769 409.34559 76.824232 411.08918 43.695312 387.62891 C 10.363176 365.61697 -5.540113 321.28379 5.9277344 283.04688 C 16.006316 246.34936 49.892702 218.10024 87.75 214.61719 L 88.5625 214.57617 L 89.53125 214.52734 C 92.076226 214.27981 94.621688 214.14821 97.164062 214.12891 z "
       transform="translate(0,391.16665)"
       id="circle6044" />
  </g>
</svg>
