<?xml version="1.0" encoding="UTF-8" standalone="no"?>
<!-- Created with Inkscape (http://www.inkscape.org/) -->

<svg
   xmlns:dc="http://purl.org/dc/elements/1.1/"
   xmlns:cc="http://creativecommons.org/ns#"
   xmlns:rdf="http://www.w3.org/1999/02/22-rdf-syntax-ns#"
   xmlns:svg="http://www.w3.org/2000/svg"
   xmlns="http://www.w3.org/2000/svg"
   xmlns:xlink="http://www.w3.org/1999/xlink"
   xmlns:sodipodi="http://sodipodi.sourceforge.net/DTD/sodipodi-0.dtd"
   xmlns:inkscape="http://www.inkscape.org/namespaces/inkscape"
   width="400"
   height="400"
   viewBox="0 0 400 400"
   version="1.1"
   id="svg5459"
   inkscape:version="0.92.4 (5da689c313, 2019-01-14)"
   sodipodi:docname="raumPlayer_Icons.svg"
   inkscape:export-filename="C:\Users\admin\Source\Repos\raumPlayer\raumPlayer\Assets\raumPlayer_Icon.png"
   inkscape:export-xdpi="384"
   inkscape:export-ydpi="384">
  <defs
     id="defs5453">
    <inkscape:path-effect
       effect="skeletal"
       id="path-effect4743"
       is_visible="true"
       pattern="m 276.43752,1252.6324 26.84673,4.5342 -26.84675,4.6593 -29.72179,-4.6593 z"
       copytype="single_stretched"
       prop_scale="1"
       scale_y_rel="false"
       spacing="0"
       normal_offset="0"
       tang_offset="0"
       prop_units="false"
       vertical_pattern="false"
       fuse_tolerance="0" />
    <inkscape:path-effect
       effect="skeletal"
       id="path-effect4733"
       is_visible="true"
       pattern="m 276.43752,1252.6324 26.84673,4.5342 -26.84675,4.6593 -29.72179,-4.6593 z"
       copytype="single_stretched"
       prop_scale="1"
       scale_y_rel="false"
       spacing="0"
       normal_offset="0"
       tang_offset="0"
       prop_units="false"
       vertical_pattern="false"
       fuse_tolerance="0" />
    <inkscape:path-effect
       effect="skeletal"
       id="path-effect4723"
       is_visible="true"
       pattern="m 276.43752,1252.6324 26.84673,4.5342 -26.84675,4.6593 -29.72179,-4.6593 z"
       copytype="single_stretched"
       prop_scale="1"
       scale_y_rel="false"
       spacing="0"
       normal_offset="0"
       tang_offset="0"
       prop_units="false"
       vertical_pattern="false"
       fuse_tolerance="0" />
    <inkscape:path-effect
       effect="skeletal"
       id="path-effect4713"
       is_visible="true"
       pattern="m 276.43752,1252.6324 26.84673,4.5342 -26.84675,4.6593 -29.72179,-4.6593 z"
       copytype="single_stretched"
       prop_scale="1"
       scale_y_rel="false"
       spacing="0"
       normal_offset="0"
       tang_offset="0"
       prop_units="false"
       vertical_pattern="false"
       fuse_tolerance="0" />
    <inkscape:perspective
       sodipodi:type="inkscape:persp3d"
       inkscape:vp_x="0 : 200 : 1"
       inkscape:vp_y="0 : 1000 : 0"
       inkscape:vp_z="400 : 200 : 1"
       inkscape:persp3d-origin="200 : 133.33333 : 1"
       id="perspective4621" />
    <linearGradient
       inkscape:collect="always"
       id="linearGradient5481">
      <stop
         style="stop-color:#ffffff;stop-opacity:1"
         offset="0"
         id="stop5477" />
      <stop
         style="stop-color:#00aad4;stop-opacity:1"
         offset="1"
         id="stop5479" />
    </linearGradient>
    <filter
       inkscape:label="Cubes"
       inkscape:menu="Scatter"
       inkscape:menu-tooltip="Scattered cubes; adjust the Morphology primitive to vary size"
       style="color-interpolation-filters:sRGB;"
       id="filter5469">
      <feTurbulence
         baseFrequency="0.14"
         numOctaves="1"
         type="fractalNoise"
         id="feTurbulence5453" />
      <feColorMatrix
         values="1 0 0 0 0 0 1 0 0 0 0 0 1 0 0 0 0 0 6 -3.5 "
         result="result5"
         id="feColorMatrix5455" />
      <feComposite
         in2="result5"
         operator="in"
         in="SourceGraphic"
         result="result6"
         id="feComposite5457" />
      <feMorphology
         result="result3"
         radius="5"
         operator="dilate"
         in="result6"
         id="feMorphology5459" />
      <feDisplacementMap
         result="result4"
         scale="0"
         yChannelSelector="A"
         xChannelSelector="R"
         in="result3"
         in2="result3"
         id="feDisplacementMap5461" />
      <feComposite
         in2="result4"
         operator="arithmetic"
         result="result2"
         k1="1"
         k3="1"
         id="feComposite5463" />
      <feBlend
         mode="darken"
         in="result2"
         in2="result2"
         id="feBlend5465" />
      <feConvolveMatrix
         order="3 3"
         kernelMatrix="2 0 0 0 1 0 0 0 -1 "
         targetX="1"
         targetY="1"
         divisor="2"
         edgeMode="duplicate"
         id="feConvolveMatrix5467" />
    </filter>
    <linearGradient
       inkscape:collect="always"
       xlink:href="#linearGradient5481"
       id="linearGradient5483"
       x1="27.659695"
       y1="214.59526"
       x2="367.6597"
       y2="554.59528"
       gradientUnits="userSpaceOnUse"
       gradientTransform="matrix(0.56423527,0,0,0.56160411,572.47342,12.467865)" />
    <linearGradient
       inkscape:collect="always"
       xlink:href="#linearGradient5481"
       id="linearGradient4596-9"
       gradientUnits="userSpaceOnUse"
       x1="1"
       y1="1"
       x2="200"
       y2="200"
       gradientTransform="matrix(0.95919996,0,0,0.95919994,588.08,132.98546)" />
    <filter
       inkscape:collect="always"
       style="color-interpolation-filters:sRGB"
       id="filter5640"
       x="-0.0081234574"
       width="1.0162469"
       y="-0.022953484"
       height="1.045907">
      <feGaussianBlur
         inkscape:collect="always"
         stdDeviation="1.1508231"
         id="feGaussianBlur5642" />
    </filter>
    <filter
       inkscape:collect="always"
       style="color-interpolation-filters:sRGB"
       id="filter5660"
       x="-0.012"
       width="1.024"
       y="-0.012"
       height="1.024">
      <feGaussianBlur
         inkscape:collect="always"
         stdDeviation="1.7"
         id="feGaussianBlur5662" />
    </filter>
    <linearGradient
       inkscape:collect="always"
       xlink:href="#linearGradient4578"
       id="linearGradient4580"
       x1="-232.07808"
       y1="643.07819"
       x2="-232.07808"
       y2="820.97632"
       gradientUnits="userSpaceOnUse"
       gradientTransform="translate(1185.1035,-288.49709)" />
    <linearGradient
       inkscape:collect="always"
       id="linearGradient4578">
      <stop
         style="stop-color:#ffffff;stop-opacity:1"
         offset="0"
         id="stop4574" />
      <stop
         style="stop-color:#d5f6ff;stop-opacity:1"
         offset="1"
         id="stop4576" />
    </linearGradient>
    <linearGradient
       inkscape:collect="always"
       xlink:href="#linearGradient5481"
       id="linearGradient5108"
       x1="25"
       y1="541.16669"
       x2="25"
       y2="591.16669"
       gradientUnits="userSpaceOnUse" />
    <linearGradient
       inkscape:collect="always"
       xlink:href="#linearGradient5481"
       id="linearGradient5121"
       x1="407.50977"
       y1="660.34436"
       x2="407.50977"
       y2="810.34436"
       gradientUnits="userSpaceOnUse"
       gradientTransform="translate(3.3804812e-5,-13.284269)" />
    <linearGradient
       inkscape:collect="always"
       xlink:href="#linearGradient5481"
       id="linearGradient5182"
       x1="250"
       y1="209.92383"
       x2="250"
       y2="359.92383"
       gradientUnits="userSpaceOnUse"
       gradientTransform="translate(-2e-6,176.09055)" />
  </defs>
  <sodipodi:namedview
     id="base"
     pagecolor="#b0bdbd"
     bordercolor="#666666"
     borderopacity="1.0"
     inkscape:pageopacity="0"
     inkscape:pageshadow="2"
     inkscape:zoom="7.9999999"
     inkscape:cx="251.25429"
     inkscape:cy="43.240631"
     inkscape:document-units="px"
     inkscape:current-layer="layer1"
     showgrid="false"
     units="px"
     inkscape:window-width="2560"
     inkscape:window-height="1377"
     inkscape:window-x="-8"
     inkscape:window-y="-8"
     inkscape:window-maximized="1"
     showguides="false"
     inkscape:guide-bbox="true"
     inkscape:snap-midpoints="false"
     inkscape:object-nodes="true"
     inkscape:snap-others="false"
     inkscape:snap-bbox="true"
     inkscape:snap-bbox-edge-midpoints="true"
     inkscape:bbox-nodes="false"
     inkscape:snap-nodes="true"
     inkscape:snap-bbox-midpoints="false"
     inkscape:snap-object-midpoints="false"
     inkscape:bbox-paths="false"
     inkscape:snap-page="true"
     inkscape:snap-global="true">
    <sodipodi:guide
       position="732.18945,-134.39844"
       orientation="1,0"
       id="guide5041"
       inkscape:locked="false" />
  </sodipodi:namedview>
  <metadata
     id="metadata5456">
    <rdf:RDF>
      <cc:Work
         rdf:about="">
        <dc:format>image/svg+xml</dc:format>
        <dc:type
           rdf:resource="http://purl.org/dc/dcmitype/StillImage" />
        <dc:title />
      </cc:Work>
    </rdf:RDF>
  </metadata>
  <g
     inkscape:label="Shadow"
     inkscape:groupmode="layer"
     id="layer1"
     transform="translate(0,-191.16665)"
     style="display:inline">
    <rect
       style="opacity:0.3;vector-effect:none;fill:#55ff55;fill-opacity:1;stroke:none;stroke-width:1;stroke-linecap:square;stroke-linejoin:miter;stroke-miterlimit:4;stroke-dasharray:none;stroke-dashoffset:0;stroke-opacity:1;paint-order:markers stroke fill"
       id="rect5088"
       width="100"
       height="100"
       x="50"
       y="491.16669" />
    <rect
       y="541.16669"
       x="0"
       height="50"
       width="50"
       id="rect5086"
       style="opacity:0.3;vector-effect:none;fill:#55ff55;fill-opacity:1;stroke:none;stroke-width:1;stroke-linecap:square;stroke-linejoin:miter;stroke-miterlimit:4;stroke-dasharray:none;stroke-dashoffset:0;stroke-opacity:1;paint-order:markers stroke fill" />
    <path
       style="color:#000000;font-style:normal;font-variant:normal;font-weight:normal;font-stretch:normal;font-size:medium;line-height:normal;font-family:sans-serif;font-variant-ligatures:normal;font-variant-position:normal;font-variant-caps:normal;font-variant-numeric:normal;font-variant-alternates:normal;font-feature-settings:normal;text-indent:0;text-align:start;text-decoration:none;text-decoration-line:none;text-decoration-style:solid;text-decoration-color:#000000;letter-spacing:normal;word-spacing:normal;text-transform:none;writing-mode:lr-tb;direction:ltr;text-orientation:mixed;dominant-baseline:auto;baseline-shift:baseline;text-anchor:start;white-space:normal;shape-padding:0;clip-rule:nonzero;display:inline;overflow:visible;visibility:visible;opacity:1;isolation:auto;mix-blend-mode:normal;color-interpolation:sRGB;color-interpolation-filters:linearRGB;solid-color:#000000;solid-opacity:1;vector-effect:none;fill:#000000;fill-opacity:1;fill-rule:evenodd;stroke:none;stroke-width:13.39698887;stroke-linecap:square;stroke-linejoin:miter;stroke-miterlimit:10;stroke-dasharray:none;stroke-dashoffset:0;stroke-opacity:1;paint-order:markers fill stroke;filter:url(#filter5660);color-rendering:auto;image-rendering:auto;shape-rendering:auto;text-rendering:auto;enable-background:accumulate"
       d="m 30.00001,221.16666 v 237.55272 1.21093 47.36525 24.74803 c 0,-6.96816 5.65879,-12.62694 12.62695,-12.62694 h 6.78906 v 10.90038 h -6.78906 c -0.95288,0 -1.72656,0.77363 -1.72656,1.72656 v 22.45313 H 30.00001 v 6.66992 h 269.68164 v -6.78711 c -0.59558,0.0598 -1.18767,0.11719 -1.7832,0.11719 h -3.33594 c -6.01529,0 -10.6605,-4.34986 -12.32812,-9.88867 l -7.62305,-25.19141 h 11.31445 l 7.02539,22.99023 c 0.23817,0.71468 0.89667,1.19141 1.61133,1.19141 h 5.11914 v -24.18164 h 10.90039 v 41.75 h 59.41797 v -30.84961 h -6.78711 c -0.95288,0 -1.73047,0.77364 -1.73047,1.72656 v 22.45313 h -10.90039 v -22.45313 c 0,-6.96816 5.66269,-12.62695 12.63086,-12.62695 h 6.78711 v -12.12109 -47.47461 -1.10157 -237.55273 z m 0,0 339.82812,0.18943 -0.37006,292.12742 -168.92773,-13.99218 -87.16356,16.12461 -7.76167,7.24047 -4.92309,-7.15208 -69.79817,-1.28136 z m 167.97852,291.58397 h 9.76367 c 6.96821,0 12.62695,5.65493 12.62695,12.62305 v 9.76953 c 0,6.96818 -5.65874,12.62305 -12.62695,12.62305 h -9.76367 v -10.89649 h 9.76367 c 0.95293,0 1.73047,-0.77363 1.73047,-1.72656 v -9.76953 c 0,-0.95294 -0.77754,-1.72656 -1.73047,-1.72656 h -9.76367 c -0.95289,0 -1.73047,0.77363 -1.73047,1.72656 v 29.12305 h -10.89844 v -29.12305 c 0,-6.96812 5.66074,-12.62305 12.62891,-12.62305 z m 24.70898,0.0566 h 10.89648 c 0,9.7078 0.0606,19.41723 0.0606,29.125 0,0.95289 0.7776,1.72657 1.73047,1.72657 h 1.72656 v 10.89648 h -1.72661 c -6.96812,0 -12.62695,-5.65489 -12.62695,-12.62305 0,-9.76734 -0.0606,-19.4172 -0.0606,-29.125 z m -158.89063,6.60942 h 9.82813 c 6.96812,0 12.625,5.65881 12.625,12.62694 v 22.45313 H 75.35157 v -22.45313 c 0,-0.95295 -0.77366,-1.72655 -1.72656,-1.72655 h -9.82813 c -0.95287,0 -1.72655,0.7736 -1.72656,1.72655 v 9.82813 c 0,0.95294 0.77369,1.72656 1.72656,1.72656 h 9.82813 v 10.89844 h -9.82813 c -6.96818,0 -12.62695,-5.65682 -12.62695,-12.625 v -9.82813 c 0,-6.96816 5.65877,-12.62694 12.62695,-12.62694 z m 24.83008,0 h 10.89649 v 22.45507 c 0,0.95293 0.77758,1.72656 1.73047,1.72656 h 9.76757 c 0.95294,0 1.72657,-0.77363 1.72657,-1.72656 v -22.45507 h 10.89843 v 22.45507 c 0,6.96817 -5.65676,12.625 -12.625,12.625 h -9.76757 c -6.96818,0 -12.62696,-5.65683 -12.62696,-12.625 z m 50.14258,0 h 8.57422 c 2.68008,0 5.71814,1.7281 7.20703,3.93164 1.42937,-2.20354 4.52599,-3.93164 7.14649,-3.93164 h 8.63476 c 6.96816,0 12.62695,5.65881 12.62695,12.62694 v 22.45313 H 172.0586 v -22.45313 c 0,-0.95295 -0.77362,-1.72655 -1.72656,-1.72655 h -8.63476 c -0.95295,0 -1.72657,0.7736 -1.72657,1.72655 v 22.45313 h -10.89843 v -22.45313 c 0,-0.95295 -0.7756,-1.72655 -1.72852,-1.72655 h -8.57422 c -0.95294,0 -1.78906,0.7736 -1.78906,1.72655 v 22.45313 h -10.89844 v -22.45313 c 0,-6.96816 5.71923,-12.62694 12.6875,-12.62694 z m 112.88672,0 h 9.82813 c 6.96818,0 12.6289,5.65881 12.6289,12.62694 v 22.45313 h -10.90234 v -22.45313 c 0,-0.95295 -0.77362,-1.72655 -1.72656,-1.72655 h -9.82813 c -0.95294,0 -1.72656,0.7736 -1.72656,1.72655 v 9.82813 c 0,0.95294 0.77362,1.72656 1.72656,1.72656 h 9.82813 v 10.89844 h -9.82813 c -6.96823,0 -12.62305,-5.65682 -12.62305,-12.625 v -9.82813 c 0,-6.96816 5.65482,-12.62694 12.62305,-12.62694 z m 74.56445,0 h 9.76563 c 7.7424,0 14.76985,6.07818 11.9707,15.01171 l -2.38086,7.50391 h -10.89844 l 2.91602,-9.41016 c 0.35741,-1.19111 -0.3567,-2.20507 -1.60742,-2.20507 h -9.76563 c -0.95294,0 -1.72656,0.77363 -1.72656,1.72655 v 9.82813 c 0,0.95293 0.77362,1.72656 1.72656,1.72656 h 22.27344 v 10.89844 h -22.27344 c -6.96818,0 -12.62695,-5.65683 -12.62695,-12.625 v -9.82813 c 7e-5,-6.96816 5.65879,-12.62694 12.62695,-12.62694 z"
       id="path4754-5-4-2-7-1"
       inkscape:connector-curvature="0"
       sodipodi:nodetypes="cccccsccsscccccssccccsccccccssccsscccccccccccccccsssssccssssssccssscssccsscscsccssscssccsssscsssssccsssscsscsssccssssccssssccsssssccssssssccssssssccccsssssccssass"
       transform="matrix(0.56423527,0,0,0.56423526,571.15293,199.36209)" />
    <flowRoot
       xml:space="preserve"
       id="flowRoot5682"
       style="font-style:normal;font-variant:normal;font-weight:normal;font-stretch:normal;font-size:5.33333349px;line-height:125%;font-family:Age;-inkscape-font-specification:Age;letter-spacing:0px;word-spacing:0px;fill:#000000;fill-opacity:1;stroke:none;stroke-width:1px;stroke-linecap:butt;stroke-linejoin:miter;stroke-opacity:1"
       transform="translate(0,191.16665)"><flowRegion
         id="flowRegion5684"
         style="font-style:normal;font-variant:normal;font-weight:normal;font-stretch:normal;font-family:Age;-inkscape-font-specification:Age"><rect
           id="rect5686"
           width="178.1909"
           height="162.63455"
           x="-458.2052"
           y="537.17871"
           style="font-style:normal;font-variant:normal;font-weight:normal;font-stretch:normal;font-family:Age;-inkscape-font-specification:Age" /></flowRegion><flowPara
         id="flowPara5688" /></flowRoot>    <path
       style="opacity:1;vector-effect:none;fill:url(#linearGradient4580);fill-opacity:1;stroke:none;stroke-width:22.67716599;stroke-linecap:square;stroke-linejoin:miter;stroke-miterlimit:10;stroke-dasharray:none;stroke-dashoffset:0;stroke-opacity:1;paint-order:stroke markers fill"
       d="m 950.99999,317.82697 a 100,100 0 0 0 -100,100 100,100 0 0 0 8.00977,38.90625 l 1.44921,1.20899 4.25391,-3.4043 0.40625,0.62695 a 95,95 0 0 0 1.69336,3.58399 h 0.63477 l -2.18555,-3.36524 a 95,95 0 0 1 -9.26172,-40.55664 95,95 0 0 1 95,-95 95,95 0 0 1 95.00001,95 95,95 0 0 1 -9.3477,40.75586 l 2.8496,2.13477 3.9844,-2.47461 a 100,100 0 0 0 7.5137,-37.41602 100,100 0 0 0 -100.00001,-100 z m -83.55273,140.92188 2.8457,4.38476 2.66016,-4.38476 z m 5.50586,0 h 2.79101 l 0.56641,-0.9336 0.67187,0.9336 h 3.6543 l 2.76758,-8.50391 2.80078,8.50391 h 3.29297 l 0.46484,-1.45508 0.2793,1.45508 h 2.42773 l -2.1289,-11.11133 -2.69922,8.45508 -4.45313,-13.51563 -4.70312,14.45899 -2.54492,-3.53906 z m 19.71679,0 4.04883,21.13281 3.60742,-21.13281 z m 7.65625,0 h 2.41797 l 0.25195,-1.47071 0.88282,1.47071 h 3.54297 l 3.00585,-5.91016 2.66016,5.91016 h 4.91992 l 0.41407,-0.30664 0.37304,0.30664 h 5.63281 l 3.36524,-21.08789 3.89648,21.08789 h 7.24024 l -1.95313,-3.48047 -3.04297,2.49023 -6.31445,-34.15625 -5.54297,34.75196 -3.57422,-2.93555 -3.22656,2.38281 -4.7168,-10.48437 -4.93359,9.70117 -3.89648,-6.49219 z m 38.60352,0 2.77344,4.93945 2.63085,-4.93945 z m 5.40429,0 h 2.70313 l 0.23047,-0.4336 0.41211,0.4336 h 3.78515 l 3.16407,-11.23438 3.08398,11.23438 h 4.82227 l 1.3789,-0.78125 1.50782,0.78125 h 4.13086 l 3.11914,-6.68945 3.23828,6.68945 h 4.03711 l 0.14062,-0.10742 0.0293,0.10742 h 2.46484 l -1.10156,-4.16602 -3.60547,2.7461 -5.24023,-10.82813 -4.99805,10.70899 -3.77344,-1.95313 -4.01172,2.27344 -5.19335,-18.91797 -5.21876,18.52539 -2.72265,-2.86523 z m 38.24805,0 3.29102,12.44922 3.24023,-12.44922 z m 6.53125,0 h 2.46289 l 0.15235,-0.58399 0.93554,0.58399 h 4.91407 l 1.8164,-0.81445 1.57228,0.81445 h 4.3769 l 3.0391,-12.38086 3.1816,12.38086 h 4.1895 l 1.8926,-0.91602 1.2929,0.91602 h 5.9571 l 0.7226,-0.38477 0.1368,0.38477 h 2.9081 l -1.5488,-3.88867 -5.4414,2.90234 -3.7988,-2.69141 -4.2637,2.0625 -5.2812,-20.56054 -5.0743,20.67383 -3.78706,-1.95899 -4.56836,2.04883 -4.66211,-2.91406 z m 39.55073,0 2.1954,5.50781 2.2656,-5.50781 z m 4.461,0 h 2.0293 a 95,95 0 0 0 1.4707,-3.1875 l -1.6738,-1.25391 z m -7.3691,0 h -0.8594 l -3.4004,1.81055 -2.5567,-1.81055 h -3.1855 l -3.7266,1.80273 -0.4629,-1.80273 h -6.2207 l -0.4941,2.00976 -3.8828,-2.00976 h -3.38868 l -2.86133,1.2832 -2.05274,-1.2832 h -1.08789 l -5.68359,21.84961 -5.77539,-21.84961 h -0.16992 l -2.94922,2.24609 -1.08789,-2.24609 h -6.35742 l -0.80469,1.72461 -3.32617,-1.72461 h -2.88672 l -4.17383,2.36523 -0.64844,-2.36523 h -6.24805 l -0.86523,3.07422 -2.91992,-3.07422 h -0.64258 l -5.27734,9.91406 -5.47266,-9.75 -3.9668,3.24805 -0.63086,-3.41211 h -7.26172 l -0.65234,4.08984 -4.98047,-4.08984 h -0.78711 l -3.6914,2.73047 -1.22852,-2.73047 h -5.66601 l -1.625,3.19531 -1.91797,-3.19531 h -1.13477 l -5.89062,34.51953 -6.61133,-34.51953 h -0.74414 l -1.61914,5.07812 -1.67383,-5.07812 h -5.56836 l -1.13867,3.49805 -2.51563,-3.49805 h -1.23828 l -5.38086,8.87305 -6.1543,-10.8086 -3.71875,2.48242 -0.625,-0.61523 a 100,100 0 0 0 30.75977,38.75586 100,100 0 0 0 0.2793,0.19922 100,100 0 0 0 7.83789,5.35547 100,100 0 0 0 0.93164,0.5332 100,100 0 0 0 7.70312,4.20117 100,100 0 0 0 1.60547,0.7168 100,100 0 0 0 7.44141,3.13867 100,100 0 0 0 2.35937,0.78516 100,100 0 0 0 7.02539,2.16601 100,100 0 0 0 3.13672,0.70508 100,100 0 0 0 6.47657,1.30664 100,100 0 0 0 3.96875,0.48242 100,100 0 0 0 6.08203,0.60547 100,100 0 0 0 5.52734,0.19531 100,100 0 0 0 90.45701,-57.625 100,100 0 0 0 0.6934,-1.45312 h -0.043 a 100,100 0 0 0 0.3594,-0.91406 l -3.0938,2.76953 -3.0996,-2.32422 -5.4707,14.62109 z m -165.89068,-0.0684 a 100,100 0 0 1 -0.0312,-0.0664 100,100 0 0 0 0.0254,0.0606 l 0.002,0.002 z m -0.85546,-1.94727 -0.0293,-0.0234 c 0.27314,0.62867 0.55384,1.25403 0.83984,1.87695 a 100,100 0 0 1 -0.81054,-1.85352 z m 184.54884,-1.53515 -0.02,0.0137 a 100,100 0 0 1 -1.0059,2.56445 l 0,-0.004 a 100,100 0 0 0 1.0215,-2.57422 z"
       id="path4569"
       inkscape:connector-curvature="0" />
    <circle
       style="opacity:1;vector-effect:none;fill:#004455;fill-opacity:1;stroke:none;stroke-width:30;stroke-linecap:square;stroke-linejoin:miter;stroke-miterlimit:10;stroke-dasharray:none;stroke-dashoffset:0;stroke-opacity:1;paint-order:stroke markers fill"
       id="path4754"
       cx="715.38617"
       cy="567.33191"
       r="22.222221" />
    <path
       style="color:#000000;font-style:normal;font-variant:normal;font-weight:normal;font-stretch:normal;font-size:medium;line-height:normal;font-family:sans-serif;font-variant-ligatures:normal;font-variant-position:normal;font-variant-caps:normal;font-variant-numeric:normal;font-variant-alternates:normal;font-feature-settings:normal;text-indent:0;text-align:start;text-decoration:none;text-decoration-line:none;text-decoration-style:solid;text-decoration-color:#000000;letter-spacing:normal;word-spacing:normal;text-transform:none;writing-mode:lr-tb;direction:ltr;text-orientation:mixed;dominant-baseline:auto;baseline-shift:baseline;text-anchor:start;white-space:normal;shape-padding:0;clip-rule:nonzero;display:inline;overflow:visible;visibility:visible;opacity:1;isolation:auto;mix-blend-mode:normal;color-interpolation:sRGB;color-interpolation-filters:linearRGB;solid-color:#000000;solid-opacity:1;vector-effect:none;fill:#d5f6ff;fill-opacity:1;fill-rule:nonzero;stroke:none;stroke-width:50;stroke-linecap:square;stroke-linejoin:miter;stroke-miterlimit:10;stroke-dasharray:none;stroke-dashoffset:0;stroke-opacity:1;paint-order:markers fill stroke;color-rendering:auto;image-rendering:auto;shape-rendering:auto;text-rendering:auto;enable-background:accumulate"
       d="m 715.38613,542.332 c -13.77422,0 -25,11.2258 -25,25 0,13.7742 11.22578,25 25,25 13.77421,0 25,-11.2258 25,-25 0,-13.7742 -11.22579,-25 -25,-25 z m 0,5.5556 c 10.77177,0 19.44444,8.6726 19.44444,19.4444 0,10.7718 -8.67267,19.4444 -19.44444,19.4444 -10.77178,0 -19.44445,-8.6726 -19.44445,-19.4444 0,-10.7718 8.67267,-19.4444 19.44445,-19.4444 z"
       id="circle4756"
       inkscape:connector-curvature="0" />
    <path
       id="path4751"
       style="fill:#d5f6ff;fill-rule:evenodd;stroke:none;stroke-width:1px;stroke-linecap:butt;stroke-linejoin:miter;stroke-opacity:1"
       d="m 738.58181,562.1002 v 0 m -46.39137,0.2907 v 0 m 0,0 2.55953,0.097 5.33234,9.5915 4.37252,-6.4912 9.38492,19.4738 4.69246,-24.9963 2.23958,5.4256 2.34623,-3.4879 3.09276,6.6851 2.66617,-3.1972 3.3125,8.4933 6.39236,-11.8843 m -46.39137,0.2907 3.09276,-2.0346 5.97222,5.4255 4.37252,-6.4912 6.71875,15.3078 4.69246,-24.9963 4.15923,10.7542 2.34623,-3.4878 3.09276,6.685 2.66617,-3.1972 3.20139,9.2156 6.07688,-7.4717"
       inkscape:connector-curvature="0"
       sodipodi:nodetypes="cccccccccccccccccccccccccccc" />
    <g
       id="g5100"
       transform="matrix(0.6,0,0,0.6,10,226.46667)"
       style="stroke-width:1.66666663">
      <circle
         style="opacity:1;vector-effect:none;fill:#006680;fill-opacity:1;stroke:none;stroke-width:50;stroke-linecap:square;stroke-linejoin:miter;stroke-miterlimit:10;stroke-dasharray:none;stroke-dashoffset:0;stroke-opacity:1;paint-order:stroke markers fill"
         id="circle4760"
         cx="25.000179"
         cy="566.1662"
         r="22.222221" />
      <path
         inkscape:connector-curvature="0"
         id="path4762"
         d="m 25,541.16669 c -13.77422,0 -25,11.22581 -25,25 0,13.77421 11.22578,25 25,25 13.77421,0 25,-11.2258 25,-25 0,-13.7742 -11.22579,-25 -25,-25 z m 0,5.55469 c 10.57005,0 19.11322,8.35307 19.42968,18.84375 l -2.31054,2.8418 -3.20117,-9.2168 -2.66602,3.19727 -3.09375,-6.6836 -2.3457,3.48633 -4.16016,-10.7539 -4.69141,24.99609 -6.71875,-15.30664 -4.37304,6.49023 -4.48438,-4.07422 C 8.78725,552.53073 16.18671,546.72138 25,546.72138 Z m 3.14648,12.17774 2.24023,5.42578 2.34571,-3.48633 3.09179,6.68359 2.66602,-3.19726 3.3125,8.49414 2.54688,-4.73438 C 43.39135,577.9488 35.12381,585.61005 25,585.61005 c -10.77178,0 -19.44532,-8.67156 -19.44532,-19.44336 0,-0.81672 0.0672,-1.61652 0.16407,-2.40624 l 3.97656,7.15234 4.37305,-6.49024 9.38476,19.47461 z"
         style="color:#000000;font-style:normal;font-variant:normal;font-weight:normal;font-stretch:normal;font-size:medium;line-height:normal;font-family:sans-serif;font-variant-ligatures:normal;font-variant-position:normal;font-variant-caps:normal;font-variant-numeric:normal;font-variant-alternates:normal;font-feature-settings:normal;text-indent:0;text-align:start;text-decoration:none;text-decoration-line:none;text-decoration-style:solid;text-decoration-color:#000000;letter-spacing:normal;word-spacing:normal;text-transform:none;writing-mode:lr-tb;direction:ltr;text-orientation:mixed;dominant-baseline:auto;baseline-shift:baseline;text-anchor:start;white-space:normal;shape-padding:0;clip-rule:nonzero;display:inline;overflow:visible;visibility:visible;opacity:1;isolation:auto;mix-blend-mode:normal;color-interpolation:sRGB;color-interpolation-filters:linearRGB;solid-color:#000000;solid-opacity:1;vector-effect:none;fill:url(#linearGradient5108);fill-opacity:1;fill-rule:nonzero;stroke:none;stroke-width:83.33334351;stroke-linecap:square;stroke-linejoin:miter;stroke-miterlimit:10;stroke-dasharray:none;stroke-dashoffset:0;stroke-opacity:1;paint-order:markers fill stroke;color-rendering:auto;image-rendering:auto;shape-rendering:auto;text-rendering:auto;enable-background:accumulate" />
    </g>
    <g
       id="g5113"
       transform="matrix(0.46666667,0,0,0.46666667,-90.171227,203.27229)"
       style="stroke-width:2.14285707">
      <circle
         style="opacity:1;vector-effect:none;fill:#006680;fill-opacity:1;stroke:none;stroke-width:64.2857132;stroke-linecap:square;stroke-linejoin:miter;stroke-miterlimit:10;stroke-dasharray:none;stroke-dashoffset:0;stroke-opacity:1;paint-order:stroke markers fill"
         id="circle4800"
         cx="407.50977"
         cy="724.05902"
         r="66.666664" />
      <path
         style="color:#000000;font-style:normal;font-variant:normal;font-weight:normal;font-stretch:normal;font-size:medium;line-height:normal;font-family:sans-serif;font-variant-ligatures:normal;font-variant-position:normal;font-variant-caps:normal;font-variant-numeric:normal;font-variant-alternates:normal;font-feature-settings:normal;text-indent:0;text-align:start;text-decoration:none;text-decoration-line:none;text-decoration-style:solid;text-decoration-color:#000000;letter-spacing:normal;word-spacing:normal;text-transform:none;writing-mode:lr-tb;direction:ltr;text-orientation:mixed;dominant-baseline:auto;baseline-shift:baseline;text-anchor:start;white-space:normal;shape-padding:0;clip-rule:nonzero;display:inline;overflow:visible;visibility:visible;opacity:0.3;isolation:auto;mix-blend-mode:normal;color-interpolation:sRGB;color-interpolation-filters:linearRGB;solid-color:#000000;solid-opacity:1;vector-effect:none;fill:#1a2122;fill-opacity:1;fill-rule:nonzero;stroke:none;stroke-width:107.14286041;stroke-linecap:square;stroke-linejoin:miter;stroke-miterlimit:10;stroke-dasharray:none;stroke-dashoffset:0;stroke-opacity:1;paint-order:markers fill stroke;color-rendering:auto;image-rendering:auto;shape-rendering:auto;text-rendering:auto;enable-background:accumulate"
         d="m 412.30078,675.7645 -6.95508,37.04883 -6.95508,37.04492 -16.19531,-36.89844 -10.08203,0.0625 -6.99609,10.38672 -11.30469,-10.27148 -2.72266,0.0176 c 0,0 0,-0.002 0,-0.002 l -14.50976,-9.39062 c -2.62406,7.62741 -4.07031,15.79565 -4.07031,24.29687 0,41.3226 33.67734,75 75,75 41.32263,0 75,-33.6774 75,-75 0,-1.59195 -0.0675,-3.16856 -0.16602,-4.73632 l -16.54687,2.93359 -6.93165,8.52344 -9.60351,-27.64844 -4.5332,5.43555 -3.46485,4.15625 -9.27929,-20.05469 -7.03907,10.46289 -12.06445,-31.19727 z m -61.21094,37.38867 2.72071,-0.0176 -1.19727,-1.08789 z m 2.72071,-0.0176 0.002,0.002 18.30078,-0.11524 v -0.002 z m 18.30273,-0.11524 10.08203,-0.0625 -3.96093,-9.02344 z m 10.08203,-0.0625 v 0.002 l 23.15039,-0.14648 z m 34.75196,-6.69726 2.66796,6.46289 10.69727,-0.0664 0.39258,-0.58398 9.27734,20.05468 8,-9.58984 9.9375,25.47852 7.64063,-14.20508 c -2.87228,29.595 -27.67749,52.58008 -58.05078,52.58008 -32.31534,0 -58.33399,-26.01664 -58.33399,-58.33204 0,-2.46462 0.16896,-4.88692 0.46289,-7.26953 l 11.95899,21.51172 13.11718,-19.47461 28.15625,58.42188 12.85743,-68.5 z m -1.21875,6.48828 3.88671,-0.0234 v -0.002 z m 3.88671,-0.0234 4.05079,9.8125 6.64648,-9.88086 z"
         id="path5081"
         inkscape:connector-curvature="0" />
      <path
         id="path4802"
         d="m 407.50977,649.05942 c -41.32266,0 -75,33.6774 -75,75 0,41.3226 33.67734,75 75,75 41.32263,0 75,-33.6774 75,-75 0,-41.3226 -33.67737,-75 -75,-75 z m 0,16.66602 c 31.71044,0 57.33812,25.05884 58.28711,56.53125 l -6.93165,8.52344 -9.60351,-27.64844 -4.5332,5.43555 -3.46485,4.15625 -9.27929,-20.05469 -7.03907,10.46289 -12.47656,-32.26172 -7.12305,37.94336 -6.95508,37.04492 -16.19531,-36.89844 -10.08203,0.0625 -6.99609,10.38672 -11.30469,-10.27148 -2.72266,0.0176 c 1.6e-4,-6.1e-4 -1.6e-4,-0.001 0,-0.002 l 2.72071,-0.0176 -2.16016,-1.96289 c 7.20995,-24.02883 29.42239,-41.44727 55.85938,-41.44727 z m -53.69922,43.41016 0.002,0.002 18.30078,-0.11524 v -0.002 z m 18.30273,-0.11524 10.08203,-0.0625 -3.96093,-9.02344 z m 10.08203,-0.0625 v 0.002 l 23.15039,-0.14648 z m 34.75196,-6.69726 2.66796,6.46289 10.69727,-0.0664 0.39258,-0.58398 9.27734,20.05468 8,-9.58984 9.9375,25.47852 7.64063,-14.20508 c -2.87228,29.595 -27.67749,52.58008 -58.05078,52.58008 -32.31534,0 -58.33399,-26.01664 -58.33399,-58.33204 0,-2.46462 0.16896,-4.88692 0.46289,-7.26953 l 11.95899,21.51172 13.11718,-19.47461 28.15625,58.42188 12.85743,-68.5 z m -1.21875,6.48828 3.88671,-0.0234 v -0.002 z m 3.88671,-0.0234 4.05079,9.8125 6.64648,-9.88086 z"
         style="color:#000000;font-style:normal;font-variant:normal;font-weight:normal;font-stretch:normal;font-size:medium;line-height:normal;font-family:sans-serif;font-variant-ligatures:normal;font-variant-position:normal;font-variant-caps:normal;font-variant-numeric:normal;font-variant-alternates:normal;font-feature-settings:normal;text-indent:0;text-align:start;text-decoration:none;text-decoration-line:none;text-decoration-style:solid;text-decoration-color:#000000;letter-spacing:normal;word-spacing:normal;text-transform:none;writing-mode:lr-tb;direction:ltr;text-orientation:mixed;dominant-baseline:auto;baseline-shift:baseline;text-anchor:start;white-space:normal;shape-padding:0;clip-rule:nonzero;display:inline;overflow:visible;visibility:visible;opacity:1;isolation:auto;mix-blend-mode:normal;color-interpolation:sRGB;color-interpolation-filters:linearRGB;solid-color:#000000;solid-opacity:1;vector-effect:none;fill:url(#linearGradient5121);fill-opacity:1;fill-rule:nonzero;stroke:none;stroke-width:107.14286041;stroke-linecap:square;stroke-linejoin:miter;stroke-miterlimit:10;stroke-dasharray:none;stroke-dashoffset:0;stroke-opacity:1;paint-order:markers fill stroke;color-rendering:auto;image-rendering:auto;shape-rendering:auto;text-rendering:auto;enable-background:accumulate"
         inkscape:connector-curvature="0" />
    </g>
    <rect
       y="391.16669"
       x="150"
       height="200"
       width="200"
       id="rect5090"
       style="opacity:0.3;vector-effect:none;fill:#55ff55;fill-opacity:1;stroke:none;stroke-width:1;stroke-linecap:square;stroke-linejoin:miter;stroke-miterlimit:4;stroke-dasharray:none;stroke-dashoffset:0;stroke-opacity:1;paint-order:markers stroke fill" />
    <g
       id="g5373"
       transform="translate(0,15.0761)">
      <path
         sodipodi:nodetypes="cscccccc"
         inkscape:connector-curvature="0"
         style="color:#000000;font-style:normal;font-variant:normal;font-weight:normal;font-stretch:normal;font-size:medium;line-height:normal;font-family:sans-serif;font-variant-ligatures:normal;font-variant-position:normal;font-variant-caps:normal;font-variant-numeric:normal;font-variant-alternates:normal;font-feature-settings:normal;text-indent:0;text-align:start;text-decoration:none;text-decoration-line:none;text-decoration-style:solid;text-decoration-color:#000000;letter-spacing:normal;word-spacing:normal;text-transform:none;writing-mode:lr-tb;direction:ltr;text-orientation:mixed;dominant-baseline:auto;baseline-shift:baseline;text-anchor:start;white-space:normal;shape-padding:0;clip-rule:nonzero;display:inline;overflow:visible;visibility:visible;opacity:0.3;isolation:auto;mix-blend-mode:normal;color-interpolation:sRGB;color-interpolation-filters:linearRGB;solid-color:#000000;solid-opacity:1;vector-effect:none;fill:#0a3d49;fill-opacity:1;fill-rule:nonzero;stroke:none;stroke-width:50;stroke-linecap:square;stroke-linejoin:miter;stroke-miterlimit:10;stroke-dasharray:none;stroke-dashoffset:0;stroke-opacity:1;paint-order:markers fill stroke;color-rendering:auto;image-rendering:auto;shape-rendering:auto;text-rendering:auto;enable-background:accumulate"
         d="m 175,479.09054 c 0,41.3226 33.67734,75.00001 75,75.00001 41.32263,0 75,-33.67741 75,-75.00001 -15.79929,24.90165 -124.83813,39.28873 -150,0 z m 141.66699,-10e-4 c 1.8e-4,36.81886 -29.84716,66.66666 -66.66601,66.66701 -36.81924,2e-4 -66.66717,-29.84777 -66.667,-66.66701 30.25958,39.81902 99.19651,38.22901 133.33301,0 z"
         id="path5009" />
      <path
         id="path5004"
         d="m 315.98144,467.09933 -15.57128,28.94922 -9.9375,-25.48047 -7.99805,9.5918 -9.27832,-20.05567 -7.03906,10.46387 -6.71875,-16.27637 -14.07715,74.98828 -28.15528,-58.42089 -13.11718,19.47363 -15.99707,-28.77442 -3.07032,-0.11621 a 66.666664,66.666664 0 0 0 -1.6875,14.64746 66.666664,66.666664 0 0 0 66.667,66.66699 66.666664,66.666664 0 0 0 66.66601,-66.66699 66.666664,66.666664 0 0 0 -0.68555,-8.99023 z"
         style="opacity:1;vector-effect:none;fill:#006680;fill-opacity:1;stroke:none;stroke-width:30;stroke-linecap:square;stroke-linejoin:miter;stroke-miterlimit:10;stroke-dasharray:none;stroke-dashoffset:0;stroke-opacity:1;paint-order:stroke markers fill"
         inkscape:connector-curvature="0" />
      <path
         inkscape:connector-curvature="0"
         style="opacity:0.3;vector-effect:none;fill:#0a3d49;fill-opacity:1;stroke:none;stroke-width:30;stroke-linecap:square;stroke-linejoin:miter;stroke-miterlimit:10;stroke-dasharray:none;stroke-dashoffset:0;stroke-opacity:1;paint-order:stroke markers fill"
         d="m 315.74121,469.12374 -14.38477,17.68653 -9.60351,-27.64649 -7.99902,9.59082 -9.27833,-20.05468 -7.03808,10.46386 -12.47852,-32.26269 -14.07715,74.98828 -20.15625,-45.92285 -13.11718,19.47363 -17.91699,-16.27637 -3.68653,2.42481 a 66.666664,66.666664 0 0 0 -0.9834,3.85351 l 3.07032,0.11621 15.99707,28.77442 13.11718,-19.47363 28.15528,58.42089 14.07715,-74.98828 6.71875,16.27637 7.03906,-10.46387 9.27832,20.05567 7.99805,-9.5918 9.9375,25.48047 15.57128,-28.94922 a 66.666664,66.666664 0 0 0 -0.24023,-1.97559 z"
         id="path5007" />
      <path
         style="color:#000000;font-style:normal;font-variant:normal;font-weight:normal;font-stretch:normal;font-size:medium;line-height:normal;font-family:sans-serif;font-variant-ligatures:normal;font-variant-position:normal;font-variant-caps:normal;font-variant-numeric:normal;font-variant-alternates:normal;font-feature-settings:normal;text-indent:0;text-align:start;text-decoration:none;text-decoration-line:none;text-decoration-style:solid;text-decoration-color:#000000;letter-spacing:normal;word-spacing:normal;text-transform:none;writing-mode:lr-tb;direction:ltr;text-orientation:mixed;dominant-baseline:auto;baseline-shift:baseline;text-anchor:start;white-space:normal;shape-padding:0;clip-rule:nonzero;display:inline;overflow:visible;visibility:visible;opacity:1;isolation:auto;mix-blend-mode:normal;color-interpolation:sRGB;color-interpolation-filters:linearRGB;solid-color:#000000;solid-opacity:1;vector-effect:none;fill:url(#linearGradient5182);fill-opacity:1;fill-rule:nonzero;stroke:none;stroke-width:50;stroke-linecap:square;stroke-linejoin:miter;stroke-miterlimit:10;stroke-dasharray:none;stroke-dashoffset:0;stroke-opacity:1;paint-order:markers fill stroke;color-rendering:auto;image-rendering:auto;shape-rendering:auto;text-rendering:auto;enable-background:accumulate"
         d="m 250,401.09048 c -41.32266,0 -75,33.6774 -75,75 0,41.3226 33.67734,75 75,75 41.32263,0 75,-33.6774 75,-75 0,-41.3226 -33.67737,-75 -75,-75 z m 0.002,8.33398 a 66.666664,66.666664 0 0 1 65.74024,55.69922 l -14.38672,17.6875 -9.60352,-27.64648 -7.99804,9.58984 -9.2793,-20.05469 -7.03711,10.46485 -12.47852,-32.26367 -14.07812,74.98828 -20.15625,-45.92188 -13.11523,19.47266 -17.91797,-16.27539 -3.68555,2.42383 A 66.666664,66.666664 0 0 1 250.002,409.42446 Z m 9.4375,44.86719 6.71875,16.27734 7.03711,-10.46484 9.2793,20.05664 7.99805,-9.5918 9.9375,25.48047 15.57031,-28.94922 a 66.666664,66.666664 0 0 1 0.68555,8.99024 66.666664,66.666664 0 0 1 -66.66407,66.66601 66.666664,66.666664 0 0 1 -66.66797,-66.66601 66.666664,66.666664 0 0 1 1.6875,-14.64844 l 3.07032,0.11719 15.99804,28.77344 13.11524,-19.47266 28.15625,58.41992 z"
         id="path4976"
         inkscape:connector-curvature="0" />
      <path
         style="color:#000000;font-style:normal;font-variant:normal;font-weight:normal;font-stretch:normal;font-size:53.33333588px;line-height:125%;font-family:Age;-inkscape-font-specification:'Age, Normal';font-variant-ligatures:normal;font-variant-position:normal;font-variant-caps:normal;font-variant-numeric:normal;font-variant-alternates:normal;font-feature-settings:normal;text-indent:0;text-align:start;text-decoration:none;text-decoration-line:none;text-decoration-style:solid;text-decoration-color:#000000;letter-spacing:10px;word-spacing:10px;text-transform:none;writing-mode:lr-tb;direction:ltr;text-orientation:mixed;dominant-baseline:auto;baseline-shift:baseline;text-anchor:start;white-space:normal;shape-padding:0;clip-rule:nonzero;display:inline;overflow:visible;visibility:visible;opacity:0.3;isolation:auto;mix-blend-mode:normal;color-interpolation:sRGB;color-interpolation-filters:linearRGB;solid-color:#000000;solid-opacity:1;vector-effect:none;fill:#0a3d49;fill-opacity:1;fill-rule:nonzero;stroke:none;stroke-width:1px;stroke-linecap:butt;stroke-linejoin:miter;stroke-miterlimit:4;stroke-dasharray:none;stroke-dashoffset:0;stroke-opacity:1;color-rendering:auto;image-rendering:auto;shape-rendering:auto;text-rendering:auto;enable-background:accumulate"
         d="m 293.13281,509.71771 -4.25,4.06348 0.3457,0.36133 c 2.39048,2.50026 4.76281,4.98194 7.13575,7.46386 -0.43193,0.41297 -0.85883,0.82139 -1.2959,1.23926 -0.0707,0.0676 -0.19553,0.0915 -0.30957,0.0312 l -9.69922,-5.44043 -4.41699,4.22266 10.84863,6.12597 v -10e-4 c 2.4137,1.36729 5.51975,1.33927 7.64062,-0.68847 l 1.07911,-1.03223 c 0.0766,-0.0732 0.13365,-0.14713 0.20312,-0.22168 l 2.07813,2.17383 4.25,-4.06348 z m -0.0312,1.41406 12.22656,12.78809 -2.80468,2.68164 -2.13672,-2.23535 -0.35938,0.41992 c -0.17432,0.20356 -0.33818,0.39344 -0.50683,0.55469 l -1.08008,1.03222 c -1.7726,1.69476 -4.36371,1.72683 -6.45703,0.54102 l -9.67578,-5.46289 2.90722,-2.78027 9.07129,5.08789 0.005,0.003 c 0.48244,0.25491 1.07684,0.18135 1.46875,-0.19336 0.55897,-0.53442 1.09827,-1.05054 1.65723,-1.58496 l 0.36133,-0.34473 -0.3457,-0.36133 c -2.37303,-2.48196 -4.74697,-4.9663 -7.13587,-7.46491 z"
         id="path5273"
         inkscape:connector-curvature="0" />
      <path
         style="color:#000000;font-style:normal;font-variant:normal;font-weight:normal;font-stretch:normal;font-size:53.33333588px;line-height:125%;font-family:Age;-inkscape-font-specification:'Age, Normal';font-variant-ligatures:normal;font-variant-position:normal;font-variant-caps:normal;font-variant-numeric:normal;font-variant-alternates:normal;font-feature-settings:normal;text-indent:0;text-align:start;text-decoration:none;text-decoration-line:none;text-decoration-style:solid;text-decoration-color:#000000;letter-spacing:10px;word-spacing:10px;text-transform:none;writing-mode:lr-tb;direction:ltr;text-orientation:mixed;dominant-baseline:auto;baseline-shift:baseline;text-anchor:start;white-space:normal;shape-padding:0;clip-rule:nonzero;display:inline;overflow:visible;visibility:visible;opacity:0.3;isolation:auto;mix-blend-mode:normal;color-interpolation:sRGB;color-interpolation-filters:linearRGB;solid-color:#000000;solid-opacity:1;vector-effect:none;fill:#0a3d49;fill-opacity:1;fill-rule:nonzero;stroke:none;stroke-width:1px;stroke-linecap:butt;stroke-linejoin:miter;stroke-miterlimit:4;stroke-dasharray:none;stroke-dashoffset:0;stroke-opacity:1;color-rendering:auto;image-rendering:auto;shape-rendering:auto;text-rendering:auto;enable-background:accumulate"
         d="m 303.80371,496.70306 c -0.44333,-0.01 -0.88217,0.0389 -1.30762,0.1416 -1.70178,0.41068 -3.18992,1.63455 -4.07812,3.27344 l -2.08399,3.8457 c -1.61557,2.98102 -0.5025,6.72623 2.47852,8.3418 l 3.86816,2.09668 c 2.98102,1.61557 6.72622,0.50251 8.3418,-2.47851 1.58826,-2.93062 3.1764,-5.86138 4.75195,-8.76856 l 0.23828,-0.43945 -5.16992,-2.80176 -0.23828,0.43945 c -0.13599,0.25093 -0.27398,0.50558 -0.41016,0.75684 l -2.51562,-2.61133 v -0.001 c -1.17409,-1.20958 -2.54501,-1.76564 -3.875,-1.79492 z m -0.0176,0.99121 c 1.06739,0.0135 2.15923,0.45372 3.17481,1.5 l 2.19043,2.27442 -1.82715,3.37207 -2.60938,-2.67285 -0.002,-0.001 c -0.28852,-0.29009 -0.68435,-0.44466 -1.07128,-0.39453 -0.38694,0.0501 -0.7359,0.30708 -0.9336,0.67187 l -2.08301,3.84473 c -0.33235,0.61323 -0.10053,1.39324 0.5127,1.72559 l 3.86816,2.09668 c 0.61324,0.33234 1.39422,0.10053 1.72657,-0.5127 1.50865,-2.78373 3.01591,-5.56547 4.51367,-8.3291 l 3.41113,1.84863 c -1.49776,2.76364 -3.00502,5.54537 -4.51367,8.3291 -1.35765,2.50511 -4.48123,3.43285 -6.98633,2.0752 l -3.86816,-2.0957 c -2.50511,-1.35766 -3.43285,-4.48123 -2.0752,-6.98633 l 2.08301,-3.84571 c 0.76359,-1.40895 2.04719,-2.44375 3.43359,-2.77832 0.3466,-0.0836 0.69987,-0.12657 1.05567,-0.12207 z m -0.0156,5.06934 c 0.0535,-0.007 0.12926,0.004 0.2334,0.1084 l 3.36719,3.44824 c -0.50709,0.93566 -1.01106,1.86533 -1.51856,2.80176 -0.0742,0.13701 -0.23311,0.1846 -0.37011,0.11035 l -3.86817,-2.09668 c -0.137,-0.0743 -0.1846,-0.23312 -0.11035,-0.37012 l 2.08398,-3.8457 c 0.0691,-0.12755 0.12916,-0.14932 0.18262,-0.15625 z"
         id="path5275"
         inkscape:connector-curvature="0" />
      <path
         style="color:#000000;font-style:normal;font-variant:normal;font-weight:normal;font-stretch:normal;font-size:53.33333588px;line-height:125%;font-family:Age;-inkscape-font-specification:'Age, Normal';font-variant-ligatures:normal;font-variant-position:normal;font-variant-caps:normal;font-variant-numeric:normal;font-variant-alternates:normal;font-feature-settings:normal;text-indent:0;text-align:start;text-decoration:none;text-decoration-line:none;text-decoration-style:solid;text-decoration-color:#000000;letter-spacing:10px;word-spacing:10px;text-transform:none;writing-mode:lr-tb;direction:ltr;text-orientation:mixed;dominant-baseline:auto;baseline-shift:baseline;text-anchor:start;white-space:normal;shape-padding:0;clip-rule:nonzero;display:inline;overflow:visible;visibility:visible;opacity:0.3;isolation:auto;mix-blend-mode:normal;color-interpolation:sRGB;color-interpolation-filters:linearRGB;solid-color:#000000;solid-opacity:1;vector-effect:none;fill:#0a3d49;fill-opacity:1;fill-rule:nonzero;stroke:none;stroke-width:1px;stroke-linecap:butt;stroke-linejoin:miter;stroke-miterlimit:4;stroke-dasharray:none;stroke-dashoffset:0;stroke-opacity:1;color-rendering:auto;image-rendering:auto;shape-rendering:auto;text-rendering:auto;enable-background:accumulate"
         d="m 191.62305,484.3349 c -0.40838,0.003 -0.82275,0.0466 -1.23731,0.13476 -3.26039,0.69353 -6.57262,1.39827 -9.83301,2.0918 l -0.48925,0.10449 1.22363,5.75098 0.48926,-0.10352 c 3.26039,-0.69353 6.57261,-1.39826 9.833,-2.09179 0.15243,-0.0324 0.2918,0.0575 0.32422,0.20996 l 0.73633,3.46289 5.75098,-1.22363 -0.73633,-3.46192 c -0.61728,-2.90189 -3.20287,-4.89408 -6.06152,-4.87402 z m 1.01855,1.0918 c 1.97219,0.37953 3.62081,1.89999 4.06543,3.99023 l 0.52832,2.48437 -3.79492,0.80762 -0.5293,-2.48535 c -0.14512,-0.68223 -0.82753,-1.12559 -1.50976,-0.98047 -3.09852,0.6591 -6.24154,1.32819 -9.34473,1.98828 L 181.25,487.43646 c 3.10289,-0.66003 6.24555,-1.32925 9.34375,-1.98828 0.69675,-0.14821 1.39045,-0.148 2.04785,-0.0215 z"
         id="path5232"
         inkscape:connector-curvature="0" />
      <path
         inkscape:connector-curvature="0"
         id="path5193"
         style="font-style:normal;font-variant:normal;font-weight:normal;font-stretch:normal;font-size:53.33333588px;line-height:125%;font-family:Age;-inkscape-font-specification:'Age, Normal';font-variant-ligatures:normal;font-variant-caps:normal;font-variant-numeric:normal;font-feature-settings:normal;text-align:start;letter-spacing:10px;word-spacing:10px;writing-mode:lr-tb;text-anchor:start;fill:#d5f6ff;fill-opacity:1;stroke:none;stroke-width:1px;stroke-linecap:butt;stroke-linejoin:miter;stroke-opacity:1"
         d="m 197.19576,488.87065 c -0.64914,-3.05172 -3.65412,-5.00253 -6.70584,-4.35338 -3.26039,0.69353 -6.57294,1.39816 -9.83333,2.09169 l 1.01533,4.7732 c 3.26039,-0.69353 6.57294,-1.39816 9.83333,-2.09169 0.41733,-0.0888 0.82853,0.17818 0.91731,0.59551 l 0.6325,2.97348 4.7732,-1.01533 z" />
      <path
         inkscape:connector-curvature="0"
         id="path5345"
         d="m 195.08984,495.55327 c -0.79731,0.0552 -1.59585,0.26641 -2.35156,0.65039 l -3.92383,1.99414 c -3.02282,1.53592 -4.23319,5.25061 -2.69726,8.27344 l 2.11719,4.16601 0.10156,0.20117 2.56054,5.04102 0.44532,-0.22656 c 2.97172,-1.50995 5.99117,-3.04473 8.96289,-4.55469 3.02283,-1.53591 4.23513,-5.25061 2.69922,-8.27344 l -1.99414,-3.92187 c -1.15195,-2.26713 -3.52799,-3.51514 -5.91993,-3.34961 z m 0.0742,0.99414 c 2.0034,-0.14128 3.98704,0.90341 4.95508,2.80859 l 1.99414,3.92188 c 1.29071,2.54023 0.27853,5.63898 -2.26172,6.92968 -2.82399,1.43491 -5.68735,2.88912 -8.51562,4.32618 l -1.75782,-3.45899 c 2.8283,-1.43707 5.69355,-2.89127 8.51758,-4.32617 0.62177,-0.31597 0.87263,-1.09102 0.55664,-1.71289 l -1.99218,-3.92187 c -0.31597,-0.62179 -1.09103,-0.87457 -1.71289,-0.5586 l -3.92188,1.99219 c -0.62191,0.31594 -0.87453,1.09109 -0.55859,1.71289 l 1.76758,3.47656 -3.45899,1.75781 -1.76758,-3.47656 c -1.29071,-2.54023 -0.28047,-5.63897 2.25977,-6.92969 l 3.92383,-1.99218 c 0.63506,-0.32268 1.30485,-0.50174 1.97265,-0.54883 z m 0.23633,4.89844 c 0.1389,-0.0706 0.29857,-0.0178 0.36914,0.12109 l 1.99219,3.92188 c 0.0706,0.13889 0.0198,0.2966 -0.11914,0.36718 -1.38182,0.70211 -2.77516,1.40949 -4.16797,2.11719 l -2.11523,-4.16602 c -0.0706,-0.13895 -0.0198,-0.29658 0.11914,-0.36718 z"
         style="color:#000000;font-style:normal;font-variant:normal;font-weight:normal;font-stretch:normal;font-size:53.33333588px;line-height:125%;font-family:Age;-inkscape-font-specification:'Age, Normal';font-variant-ligatures:normal;font-variant-position:normal;font-variant-caps:normal;font-variant-numeric:normal;font-variant-alternates:normal;font-feature-settings:normal;text-indent:0;text-align:start;text-decoration:none;text-decoration-line:none;text-decoration-style:solid;text-decoration-color:#000000;letter-spacing:10px;word-spacing:10px;text-transform:none;writing-mode:lr-tb;direction:ltr;text-orientation:mixed;dominant-baseline:auto;baseline-shift:baseline;text-anchor:start;white-space:normal;shape-padding:0;clip-rule:nonzero;display:inline;overflow:visible;visibility:visible;opacity:0.3;isolation:auto;mix-blend-mode:normal;color-interpolation:sRGB;color-interpolation-filters:linearRGB;solid-color:#000000;solid-opacity:1;vector-effect:none;fill:#0a3d49;fill-opacity:1;fill-rule:nonzero;stroke:none;stroke-width:1px;stroke-linecap:butt;stroke-linejoin:miter;stroke-miterlimit:4;stroke-dasharray:none;stroke-dashoffset:0;stroke-opacity:1;color-rendering:auto;image-rendering:auto;shape-rendering:auto;text-rendering:auto;enable-background:accumulate" />
      <path
         inkscape:connector-curvature="0"
         id="path5195"
         style="font-style:normal;font-variant:normal;font-weight:normal;font-stretch:normal;font-size:53.33333588px;line-height:125%;font-family:Age;-inkscape-font-specification:'Age, Normal';font-variant-ligatures:normal;font-variant-caps:normal;font-variant-numeric:normal;font-feature-settings:normal;text-align:start;letter-spacing:10px;word-spacing:10px;writing-mode:lr-tb;text-anchor:start;fill:#d5f6ff;fill-opacity:1;stroke:none;stroke-width:1px;stroke-linecap:butt;stroke-linejoin:miter;stroke-opacity:1"
         d="m 188.55535,509.72502 4.3506,-2.21057 -1.99314,-3.92268 c -0.19327,-0.38038 -0.0413,-0.84648 0.33914,-1.03975 l 3.92267,-1.99314 c 0.38038,-0.19327 0.84648,-0.0412 1.03975,0.33913 l 1.99314,3.92268 c 0.19328,0.38038 0.0412,0.84647 -0.33913,1.03975 -2.97173,1.50995 -5.991,3.04407 -8.96272,4.55402 l 2.21057,4.3506 c 2.97172,-1.50995 5.991,-3.04406 8.96272,-4.55402 2.78154,-1.41331 3.89248,-4.81939 2.47917,-7.60092 l -1.99314,-3.92268 c -1.41332,-2.78154 -4.81939,-3.89248 -7.60093,-2.47917 l -3.92268,1.99314 c -2.78153,1.41332 -3.89248,4.8194 -2.47916,7.60093 z" />
      <path
         style="color:#000000;font-style:normal;font-variant:normal;font-weight:normal;font-stretch:normal;font-size:53.33333588px;line-height:125%;font-family:Age;-inkscape-font-specification:'Age, Normal';font-variant-ligatures:normal;font-variant-position:normal;font-variant-caps:normal;font-variant-numeric:normal;font-variant-alternates:normal;font-feature-settings:normal;text-indent:0;text-align:start;text-decoration:none;text-decoration-line:none;text-decoration-style:solid;text-decoration-color:#000000;letter-spacing:10px;word-spacing:10px;text-transform:none;writing-mode:lr-tb;direction:ltr;text-orientation:mixed;dominant-baseline:auto;baseline-shift:baseline;text-anchor:start;white-space:normal;shape-padding:0;clip-rule:nonzero;display:inline;overflow:visible;visibility:visible;opacity:0.3;isolation:auto;mix-blend-mode:normal;color-interpolation:sRGB;color-interpolation-filters:linearRGB;solid-color:#000000;solid-opacity:1;vector-effect:none;fill:#0a3d49;fill-opacity:1;fill-rule:nonzero;stroke:none;stroke-width:1px;stroke-linecap:butt;stroke-linejoin:miter;stroke-miterlimit:4;stroke-dasharray:none;stroke-dashoffset:0;stroke-opacity:1;color-rendering:auto;image-rendering:auto;shape-rendering:auto;text-rendering:auto;enable-background:accumulate"
         d="m 205.89551,508.44427 -7.49903,7.42481 c -2.40945,2.3856 -2.42858,6.2927 -0.0429,8.70215 l 3.07715,3.10742 c 2.38561,2.40945 6.29271,2.42858 8.70215,0.043 l 7.49902,-7.42481 -4.13769,-4.17871 -7.49902,7.42578 c -0.11074,0.10964 -0.27708,0.1088 -0.38672,-0.002 l -3.07715,-3.10839 c -0.10964,-0.11074 -0.10879,-0.2761 0.002,-0.38575 l 7.5,-7.42578 z m -0.007,1.41407 2.73046,2.75683 -6.78906,6.72168 c -0.49566,0.49075 -0.49954,1.30513 -0.009,1.80078 l 3.07715,3.10742 c 0.49075,0.49568 1.30513,0.49954 1.80078,0.009 l 6.78809,-6.7207 2.73047,2.75684 -6.78906,6.72168 c -2.02479,2.00475 -5.28334,1.98865 -7.28809,-0.0362 l -3.07715,-3.1084 c -2.00476,-2.02479 -1.98768,-5.28236 0.0371,-7.28711 z"
         id="path5263"
         inkscape:connector-curvature="0" />
      <path
         inkscape:connector-curvature="0"
         id="path5197"
         style="font-style:normal;font-variant:normal;font-weight:normal;font-stretch:normal;font-size:53.33333588px;line-height:125%;font-family:Age;-inkscape-font-specification:'Age, Normal';font-variant-ligatures:normal;font-variant-caps:normal;font-variant-numeric:normal;font-feature-settings:normal;text-align:start;letter-spacing:10px;word-spacing:10px;writing-mode:lr-tb;text-anchor:start;fill:#d5f6ff;fill-opacity:1;stroke:none;stroke-width:1px;stroke-linecap:butt;stroke-linejoin:miter;stroke-opacity:1"
         d="m 202.1764,520.34385 c -0.3002,-0.30319 -0.29776,-0.79345 0.005,-1.09364 l 7.14404,-7.07335 -3.43348,-3.46779 -7.14404,7.07334 c -2.21712,2.19517 -2.23494,5.7778 -0.0397,7.99492 l 3.077,3.10775 c 2.19517,2.21712 5.7778,2.23494 7.99492,0.0398 l 7.14404,-7.07334 -3.43348,-3.4678 -7.14404,7.07334 c -0.3032,0.3002 -0.79345,0.29776 -1.09365,-0.005 z" />
      <path
         style="color:#000000;font-style:normal;font-variant:normal;font-weight:normal;font-stretch:normal;font-size:53.33333588px;line-height:125%;font-family:Age;-inkscape-font-specification:'Age, Normal';font-variant-ligatures:normal;font-variant-position:normal;font-variant-caps:normal;font-variant-numeric:normal;font-variant-alternates:normal;font-feature-settings:normal;text-indent:0;text-align:start;text-decoration:none;text-decoration-line:none;text-decoration-style:solid;text-decoration-color:#000000;letter-spacing:10px;word-spacing:10px;text-transform:none;writing-mode:lr-tb;direction:ltr;text-orientation:mixed;dominant-baseline:auto;baseline-shift:baseline;text-anchor:start;white-space:normal;shape-padding:0;clip-rule:nonzero;display:inline;overflow:visible;visibility:visible;opacity:0.3;isolation:auto;mix-blend-mode:normal;color-interpolation:sRGB;color-interpolation-filters:linearRGB;solid-color:#000000;solid-opacity:1;vector-effect:none;fill:#0a3d49;fill-opacity:1;fill-rule:nonzero;stroke:none;stroke-width:1px;stroke-linecap:butt;stroke-linejoin:miter;stroke-miterlimit:4;stroke-dasharray:none;stroke-dashoffset:0;stroke-opacity:1;color-rendering:auto;image-rendering:auto;shape-rendering:auto;text-rendering:auto;enable-background:accumulate"
         d="m 219.69141,522.55365 c -2.40416,-0.0268 -4.7173,1.354 -5.7334,3.6875 l -4.21289,9.67578 5.39062,2.34766 4.21387,-9.67579 c 0.0539,-0.12377 0.24091,-0.19307 0.38379,-0.13085 l 3.52051,1.5332 c 0.14287,0.0622 0.20381,0.21651 0.1416,0.35937 l -4.21289,9.67577 5.39062,2.34765 4.21387,-9.67576 c 0.0622,-0.14288 0.2165,-0.20382 0.35937,-0.1416 l 3.54493,1.54394 c 0.14286,0.0622 0.20381,0.2165 0.1416,0.35938 l -4.21289,9.67579 5.39062,2.34765 4.21387,-9.67579 c 1.35366,-3.10872 -0.0768,-6.74496 -3.18555,-8.09863 l -3.54492,-1.54297 c -1.08448,-0.47223 -2.44031,-0.39479 -3.53809,0.0996 -0.3963,-1.13807 -1.2519,-2.1859 -2.35449,-2.66601 l -3.52051,-1.53321 c -0.77718,-0.33841 -1.58826,-0.50377 -2.38964,-0.51269 z m -0.0156,0.99805 c 0.6718,0.008 1.35275,0.14725 2.00585,0.43164 l 3.52051,1.5332 c 0.90327,0.39332 1.782,1.55536 1.96387,2.53516 l 0.1377,0.74218 0.62988,-0.41699 c 0.8052,-0.53296 2.28679,-0.67565 3.16113,-0.29492 l 3.54492,1.54394 c 2.61242,1.13756 3.80553,4.16981 2.66797,6.78223 l -3.81445,8.7588 -3.55762,-1.54885 3.81445,-8.75878 c 0.27847,-0.6395 -0.0197,-1.39731 -0.65918,-1.67578 l -3.54492,-1.54394 c -0.6395,-0.27847 -1.39731,0.0197 -1.67578,0.65918 l -3.81445,8.75877 -3.55762,-1.5488 3.81445,-8.7588 c 0.27847,-0.6395 -0.0197,-1.39732 -0.65918,-1.67578 l -3.5205,-1.53321 c -0.63951,-0.27846 -1.41342,-0.0102 -1.7002,0.64844 l -3.81445,8.75879 -3.55664,-1.54883 3.81347,-8.75879 c 0.85232,-1.95735 2.78539,-3.11328 4.80079,-3.08886 z"
         id="path5265"
         inkscape:connector-curvature="0" />
      <path
         inkscape:connector-curvature="0"
         id="path5199"
         style="font-style:normal;font-variant:normal;font-weight:normal;font-stretch:normal;font-size:53.33333588px;line-height:125%;font-family:Age;-inkscape-font-specification:'Age, Normal';font-variant-ligatures:normal;font-variant-caps:normal;font-variant-numeric:normal;font-feature-settings:normal;text-align:start;letter-spacing:10px;word-spacing:10px;writing-mode:lr-tb;text-anchor:start;fill:#d5f6ff;fill-opacity:1;stroke:none;stroke-width:1px;stroke-linecap:butt;stroke-linejoin:miter;stroke-opacity:1"
         d="m 223.45395,529.09046 c 0.39119,0.17034 0.57063,0.62659 0.40029,1.01777 l -4.01364,9.21742 4.47423,1.94825 4.01363,-9.2174 c 0.17034,-0.39119 0.62658,-0.57063 1.01777,-0.40029 l 3.54515,1.5437 c 0.39119,0.17034 0.57063,0.62659 0.40029,1.01778 l -4.01363,9.21741 4.47422,1.94825 4.01363,-9.2174 c 1.24561,-2.86057 -0.0657,-6.19465 -2.92625,-7.44026 l -3.54515,-1.5437 c -1.07577,-0.46844 -2.65587,-0.31301 -3.63657,0.3361 -0.21732,-1.17078 -1.15549,-2.42277 -2.25571,-2.90185 l -3.5207,-1.53306 c -2.86057,-1.24561 -6.2191,0.055 -7.46471,2.9156 l -4.01363,9.21739 4.47422,1.94827 4.01364,-9.21739 c 0.17034,-0.39119 0.65103,-0.55999 1.04222,-0.38965 z" />
      <path
         style="color:#000000;font-style:normal;font-variant:normal;font-weight:normal;font-stretch:normal;font-size:53.33333588px;line-height:125%;font-family:Age;-inkscape-font-specification:'Age, Normal';font-variant-ligatures:normal;font-variant-position:normal;font-variant-caps:normal;font-variant-numeric:normal;font-variant-alternates:normal;font-feature-settings:normal;text-indent:0;text-align:start;text-decoration:none;text-decoration-line:none;text-decoration-style:solid;text-decoration-color:#000000;letter-spacing:10px;word-spacing:10px;text-transform:none;writing-mode:lr-tb;direction:ltr;text-orientation:mixed;dominant-baseline:auto;baseline-shift:baseline;text-anchor:start;white-space:normal;shape-padding:0;clip-rule:nonzero;display:inline;overflow:visible;visibility:visible;opacity:0.3;isolation:auto;mix-blend-mode:normal;color-interpolation:sRGB;color-interpolation-filters:linearRGB;solid-color:#000000;solid-opacity:1;vector-effect:none;fill:#0a3d49;fill-opacity:1;fill-rule:nonzero;stroke:none;stroke-width:1px;stroke-linecap:butt;stroke-linejoin:miter;stroke-miterlimit:4;stroke-dasharray:none;stroke-dashoffset:0;stroke-opacity:1;color-rendering:auto;image-rendering:auto;shape-rendering:auto;text-rendering:auto;enable-background:accumulate"
         d="m 246.30664,527.25287 c -3.38918,-0.10015 -6.23189,2.57957 -6.33203,5.96875 -0.12838,4.34477 -0.25736,8.68937 -0.38574,13.03417 l -0.0146,0.5 5.87793,0.17385 0.0147,-0.5 c 0.0247,-0.83725 0.0495,-1.6745 0.0742,-2.51175 l 4.64454,0.13675 c 3.38917,0.10015 6.23188,-2.5796 6.33203,-5.96876 l 0.12988,-4.37208 c 0.10014,-3.38917 -2.58055,-6.23188 -5.96973,-6.33203 z m -0.0293,0.99902 4.37109,0.12988 c 2.8481,0.0842 5.08318,2.45463 4.99903,5.30274 l -0.12891,4.37207 c -0.0842,2.84811 -2.45561,5.08221 -5.30371,4.99806 l -3.87207,-0.11425 0.11523,-3.87795 3.8711,0.11425 c 0.69719,0.0205 1.28994,-0.53815 1.31054,-1.23535 l 0.12989,-4.37109 c 0.0206,-0.6972 -0.53816,-1.28995 -1.23536,-1.31055 l -4.37207,-0.1289 c -0.69719,-0.0206 -1.28897,0.53815 -1.30957,1.23535 -0.12345,4.1781 -0.24764,8.35609 -0.37109,12.53419 l -3.87793,-0.11425 c 0.12346,-4.17845 0.24666,-8.35675 0.37012,-12.53518 0.0841,-2.8481 2.4556,-5.08318 5.30371,-4.99902 z m -0.14453,4.87793 4.37207,0.12988 c 0.15576,0.005 0.26925,0.12549 0.26465,0.28125 l -0.12891,4.3711 c -0.005,0.15576 -0.12548,0.27022 -0.28125,0.26562 l -4.64453,-0.13769 c 0.0457,-1.54819 0.091,-3.09635 0.13672,-4.64453 0.005,-0.15577 0.12548,-0.27023 0.28125,-0.26563 z"
         id="path5267"
         inkscape:connector-curvature="0" />
      <path
         inkscape:connector-curvature="0"
         id="path5201"
         style="font-style:normal;font-variant:normal;font-weight:normal;font-stretch:normal;font-size:53.33333588px;line-height:125%;font-family:Age;-inkscape-font-specification:'Age, Normal';font-variant-ligatures:normal;font-variant-caps:normal;font-variant-numeric:normal;font-feature-settings:normal;text-align:start;letter-spacing:10px;word-spacing:10px;writing-mode:lr-tb;text-anchor:start;fill:#d5f6ff;fill-opacity:1;stroke:none;stroke-width:1px;stroke-linecap:butt;stroke-linejoin:miter;stroke-opacity:1"
         d="m 250.20019,543.1129 c 3.11864,0.0922 5.72569,-2.36525 5.81784,-5.4839 l 0.12917,-4.37142 c 0.0921,-3.11864 -2.36526,-5.72569 -5.4839,-5.81784 l -4.37143,-0.12917 c -3.11864,-0.0921 -5.72569,2.36526 -5.81784,5.4839 -0.12837,4.34477 -0.25675,8.68953 -0.38513,13.03433 l 4.87787,0.1441 c 0.12838,-4.34475 0.25676,-8.68953 0.38514,-13.0343 0.0126,-0.42648 0.36935,-0.76276 0.79583,-0.75016 l 4.37143,0.12917 c 0.42648,0.0126 0.76276,0.36935 0.75015,0.79583 l -0.12916,4.37143 c -0.0126,0.42648 -0.36936,0.76276 -0.79584,0.75016 l -4.37142,-0.12917 -0.14413,4.87789 z" />
      <path
         style="color:#000000;font-style:normal;font-variant:normal;font-weight:normal;font-stretch:normal;font-size:53.33333588px;line-height:125%;font-family:Age;-inkscape-font-specification:'Age, Normal';font-variant-ligatures:normal;font-variant-position:normal;font-variant-caps:normal;font-variant-numeric:normal;font-variant-alternates:normal;font-feature-settings:normal;text-indent:0;text-align:start;text-decoration:none;text-decoration-line:none;text-decoration-style:solid;text-decoration-color:#000000;letter-spacing:10px;word-spacing:10px;text-transform:none;writing-mode:lr-tb;direction:ltr;text-orientation:mixed;dominant-baseline:auto;baseline-shift:baseline;text-anchor:start;white-space:normal;shape-padding:0;clip-rule:nonzero;display:inline;overflow:visible;visibility:visible;opacity:0.3;isolation:auto;mix-blend-mode:normal;color-interpolation:sRGB;color-interpolation-filters:linearRGB;solid-color:#000000;solid-opacity:1;vector-effect:none;fill:#0a3d49;fill-opacity:1;fill-rule:nonzero;stroke:none;stroke-width:1px;stroke-linecap:butt;stroke-linejoin:miter;stroke-miterlimit:4;stroke-dasharray:none;stroke-dashoffset:0;stroke-opacity:1;color-rendering:auto;image-rendering:auto;shape-rendering:auto;text-rendering:auto;enable-background:accumulate"
         d="m 262.97949,525.74994 -5.74805,1.24023 0.10547,0.48828 c 0.91709,4.25091 1.85355,8.46823 2.77539,12.74124 0.71505,3.3144 3.99908,5.4328 7.31348,4.71775 l 1.24414,-0.26855 -1.24023,-5.74805 -1.24414,0.26855 c -0.15235,0.033 -0.29234,-0.0567 -0.3252,-0.209 -0.91708,-4.25092 -1.86015,-8.49428 -2.77637,-12.74119 z m -0.76562,1.18847 c 0.88375,4.08745 1.78784,8.16876 2.66894,12.25293 0.1471,0.6818 0.83188,1.12265 1.51367,0.9756 l 0.2666,-0.0576 0.81836,3.79295 -0.2666,0.0576 c -2.78526,0.6009 -5.52411,-1.1659 -6.125,-3.95115 -0.88727,-4.11275 -1.78641,-8.17019 -2.66894,-12.25197 z"
         id="path5269"
         inkscape:connector-curvature="0" />
      <path
         inkscape:connector-curvature="0"
         id="path5203"
         style="font-style:normal;font-variant:normal;font-weight:normal;font-stretch:normal;font-size:53.33333588px;line-height:125%;font-family:Age;-inkscape-font-specification:'Age, Normal';font-variant-ligatures:normal;font-variant-caps:normal;font-variant-numeric:normal;font-feature-settings:normal;text-align:start;letter-spacing:10px;word-spacing:10px;writing-mode:lr-tb;text-anchor:start;fill:#d5f6ff;fill-opacity:1;stroke:none;stroke-width:1px;stroke-linecap:butt;stroke-linejoin:miter;stroke-opacity:1"
         d="m 266.29075,539.23635 c -0.41707,0.0899 -0.82904,-0.1758 -0.91902,-0.59285 -0.91665,-4.24894 -1.85937,-8.49223 -2.77602,-12.74114 l -4.77026,1.02913 c 0.91666,4.24891 1.85375,8.46613 2.77603,12.74111 0.65796,3.04985 3.66857,4.99195 6.7184,4.334 l 0.75594,-0.1631 -1.02912,-4.77025 z" />
      <path
         style="color:#000000;font-style:normal;font-variant:normal;font-weight:normal;font-stretch:normal;font-size:53.33333588px;line-height:125%;font-family:Age;-inkscape-font-specification:'Age, Normal';font-variant-ligatures:normal;font-variant-position:normal;font-variant-caps:normal;font-variant-numeric:normal;font-variant-alternates:normal;font-feature-settings:normal;text-indent:0;text-align:start;text-decoration:none;text-decoration-line:none;text-decoration-style:solid;text-decoration-color:#000000;letter-spacing:10px;word-spacing:10px;text-transform:none;writing-mode:lr-tb;direction:ltr;text-orientation:mixed;dominant-baseline:auto;baseline-shift:baseline;text-anchor:start;white-space:normal;shape-padding:0;clip-rule:nonzero;display:inline;overflow:visible;visibility:visible;opacity:0.3;isolation:auto;mix-blend-mode:normal;color-interpolation:sRGB;color-interpolation-filters:linearRGB;solid-color:#000000;solid-opacity:1;vector-effect:none;fill:#0a3d49;fill-opacity:1;fill-rule:nonzero;stroke:none;stroke-width:1px;stroke-linecap:butt;stroke-linejoin:miter;stroke-miterlimit:4;stroke-dasharray:none;stroke-dashoffset:0;stroke-opacity:1;color-rendering:auto;image-rendering:auto;shape-rendering:auto;text-rendering:auto;enable-background:accumulate"
         d="m 278.11426,523.22845 c -0.79812,0.042 -1.60036,0.24085 -2.36231,0.61231 l -3.95508,1.92871 c -3.04777,1.48581 -4.32077,5.17977 -2.83496,8.22754 l 1.92871,3.95508 c 1.48581,3.04775 5.17977,4.31985 8.22754,2.834 l 4.4043,-2.1465 v -10e-4 l 5.08105,-2.47656 -0.21875,-0.44922 c -1.46069,-2.99625 -2.94458,-6.04087 -4.40527,-9.03711 -1.11436,-2.28583 -3.47089,-3.57329 -5.86523,-3.44727 z m 0.0576,0.99512 c 2.00546,-0.10819 3.97175,0.96972 4.90821,2.89063 1.38809,2.84733 2.7973,5.73528 4.1875,8.58691 l -3.48828,1.70019 c -1.3902,-2.85162 -2.79843,-5.73959 -4.18653,-8.58691 -0.30565,-0.62694 -1.07517,-0.89257 -1.70215,-0.58691 l -3.95507,1.92871 c -0.627,0.30564 -0.89256,1.0752 -0.58692,1.70215 l 1.92774,3.95507 c 0.30565,0.62694 1.07614,0.89258 1.70312,0.58692 l 3.50586,-1.70899 1.7002,3.48731 -3.50586,1.70899 c -2.5612,1.24865 -5.64203,0.18715 -6.89063,-2.37403 l -1.92773,-3.95508 c -1.24861,-2.5612 -0.18718,-5.64202 2.37402,-6.89062 l 3.95508,-1.92774 c 0.6403,-0.31215 1.31296,-0.48054 1.98144,-0.5166 z m 0.15625,4.90332 c 0.14007,-0.0683 0.29793,-0.0141 0.36621,0.12598 0.67898,1.39274 1.36348,2.79636 2.04786,4.20019 l -4.20118,2.04785 c -0.14006,0.0683 -0.29695,0.0141 -0.36523,-0.12597 l -1.92871,-3.95508 c -0.0683,-0.14009 -0.0141,-0.29695 0.12598,-0.36523 z"
         id="path5271"
         inkscape:connector-curvature="0" />
      <path
         inkscape:connector-curvature="0"
         id="path5205"
         style="font-style:normal;font-variant:normal;font-weight:normal;font-stretch:normal;font-size:53.33333588px;line-height:125%;font-family:Age;-inkscape-font-specification:'Age, Normal';font-variant-ligatures:normal;font-variant-caps:normal;font-variant-numeric:normal;font-feature-settings:normal;text-align:start;letter-spacing:10px;word-spacing:10px;writing-mode:lr-tb;text-anchor:start;fill:#d5f6ff;fill-opacity:1;stroke:none;stroke-width:1px;stroke-linecap:butt;stroke-linejoin:miter;stroke-opacity:1"
         d="m 282.85372,537.9669 -2.13845,-4.3865 -3.95505,1.92811 c -0.38352,0.18697 -0.84704,0.0272 -1.03401,-0.35624 l -1.92811,-3.95505 c -0.18697,-0.38352 -0.0273,-0.84704 0.35625,-1.03401 l 3.95504,-1.92811 c 0.38352,-0.18697 0.84704,-0.0272 1.03401,0.35625 1.4607,2.99624 2.94476,6.04043 4.40545,9.03667 l 4.38651,-2.13845 c -1.4607,-2.99625 -2.94476,-6.04043 -4.40545,-9.03668 -1.36721,-2.80448 -4.75448,-3.97151 -7.55897,-2.6043 l -3.95504,1.92812 c -2.80449,1.3672 -3.97151,4.75448 -2.6043,7.55896 l 1.92811,3.95505 c 1.36721,2.80448 4.75448,3.97153 7.55897,2.60428 z" />
      <path
         inkscape:connector-curvature="0"
         id="path5207"
         style="font-style:normal;font-variant:normal;font-weight:normal;font-stretch:normal;font-size:53.33333588px;line-height:125%;font-family:Age;-inkscape-font-specification:'Age, Normal';font-variant-ligatures:normal;font-variant-caps:normal;font-variant-numeric:normal;font-feature-settings:normal;text-align:start;letter-spacing:10px;word-spacing:10px;writing-mode:lr-tb;text-anchor:start;fill:#d5f6ff;fill-opacity:1;stroke:none;stroke-width:1px;stroke-linecap:butt;stroke-linejoin:miter;stroke-opacity:1"
         d="m 295.41388,522.76521 c -0.2313,0.22114 -0.59074,0.26966 -0.88898,0.11207 l -9.38771,-5.26547 -3.66217,3.50136 10.26229,5.79436 c 2.25352,1.27655 5.1022,1.24619 7.04894,-0.61506 l 1.07938,-1.03198 c 0.19274,-0.18428 0.36706,-0.38784 0.54138,-0.5914 l 2.10082,2.19731 3.52725,-3.37236 -12.91819,-13.51152 -3.52726,3.37237 c 2.50624,2.62135 4.99406,5.22342 7.48187,7.8255 -0.55897,0.53442 -1.09866,1.05041 -1.65762,1.58482 z" />
      <path
         inkscape:connector-curvature="0"
         id="path5209"
         style="font-style:normal;font-variant:normal;font-weight:normal;font-stretch:normal;font-size:53.33333588px;line-height:125%;font-family:Age;-inkscape-font-specification:'Age, Normal';font-variant-ligatures:normal;font-variant-caps:normal;font-variant-numeric:normal;font-feature-settings:normal;text-align:start;letter-spacing:10px;word-spacing:10px;writing-mode:lr-tb;text-anchor:start;fill:#d5f6ff;fill-opacity:1;stroke:none;stroke-width:1px;stroke-linecap:butt;stroke-linejoin:miter;stroke-opacity:1"
         d="m 307.31964,498.40437 c -2.91956,-3.00783 -6.81026,-1.53734 -8.46205,1.51051 l -2.0838,3.84497 c -1.48661,2.74306 -0.46641,6.17741 2.27665,7.66403 l 3.86842,2.0965 c 2.74306,1.48661 6.17741,0.46642 7.66402,-2.27665 1.58826,-2.93062 3.17652,-5.86124 4.75207,-8.76842 l -4.29043,-2.32521 c -1.57555,2.90718 -3.16381,5.8378 -4.75207,8.76842 -0.2033,0.37512 -0.67326,0.51473 -1.04838,0.31143 l -3.86842,-2.0965 c -0.37512,-0.2033 -0.51473,-0.67327 -0.31143,-1.04838 l 2.0838,-3.84498 c 0.26683,-0.49234 0.81786,-0.55768 1.21053,-0.16289 l 3.0817,3.15636 2.32522,-4.29043 z" />
      <path
         style="color:#000000;font-style:normal;font-variant:normal;font-weight:normal;font-stretch:normal;font-size:53.33333588px;line-height:125%;font-family:Age;-inkscape-font-specification:'Age, Normal';font-variant-ligatures:normal;font-variant-position:normal;font-variant-caps:normal;font-variant-numeric:normal;font-variant-alternates:normal;font-feature-settings:normal;text-indent:0;text-align:start;text-decoration:none;text-decoration-line:none;text-decoration-style:solid;text-decoration-color:#000000;letter-spacing:10px;word-spacing:10px;text-transform:none;writing-mode:lr-tb;direction:ltr;text-orientation:mixed;dominant-baseline:auto;baseline-shift:baseline;text-anchor:start;white-space:normal;shape-padding:0;clip-rule:nonzero;display:inline;overflow:visible;visibility:visible;opacity:0.3;isolation:auto;mix-blend-mode:normal;color-interpolation:sRGB;color-interpolation-filters:linearRGB;solid-color:#000000;solid-opacity:1;vector-effect:none;fill:#0a3d49;fill-opacity:1;fill-rule:nonzero;stroke:none;stroke-width:1px;stroke-linecap:butt;stroke-linejoin:miter;stroke-miterlimit:4;stroke-dasharray:none;stroke-dashoffset:0;stroke-opacity:1;color-rendering:auto;image-rendering:auto;shape-rendering:auto;text-rendering:auto;enable-background:accumulate"
         d="m 303.45801,484.40912 -0.83399,3.44043 c -0.7984,3.29531 1.23594,6.63128 4.53125,7.42968 3.23961,0.7849 6.53188,1.58229 9.77149,2.36719 l 0.48535,0.11817 1.38476,-5.71485 -0.48632,-0.11816 c -3.23961,-0.7849 -6.53091,-1.58228 -9.77051,-2.36719 -0.15145,-0.0367 -0.23787,-0.17863 -0.20117,-0.33008 l 0.83398,-3.44043 z m 0.73632,1.20801 3.77051,0.91308 -0.59765,2.46875 c -0.16425,0.67789 0.25961,1.37287 0.9375,1.53711 3.07832,0.74583 6.20119,1.50207 9.28418,2.24902 l -0.91309,3.77149 c -3.08299,-0.74696 -6.20585,-1.5032 -9.28418,-2.24903 -2.76922,-0.67093 -4.46684,-3.45245 -3.7959,-6.22167 z"
         id="path5277"
         inkscape:connector-curvature="0" />
      <path
         inkscape:connector-curvature="0"
         id="path5211"
         style="font-style:normal;font-variant:normal;font-weight:normal;font-stretch:normal;font-size:53.33333588px;line-height:125%;font-family:Age;-inkscape-font-specification:'Age, Normal';font-variant-ligatures:normal;font-variant-caps:normal;font-variant-numeric:normal;font-feature-settings:normal;text-align:start;letter-spacing:10px;word-spacing:10px;writing-mode:lr-tb;text-anchor:start;fill:#d5f6ff;fill-opacity:1;stroke:none;stroke-width:1px;stroke-linecap:butt;stroke-linejoin:miter;stroke-opacity:1"
         d="m 303.11022,487.52572 c -0.73467,3.03227 1.1309,6.0909 4.16317,6.82557 3.23961,0.7849 6.53105,1.58236 9.77065,2.36726 l 1.1491,-4.74278 c -3.23961,-0.7849 -6.53104,-1.58236 -9.77065,-2.36727 -0.41467,-0.10046 -0.66996,-0.51901 -0.56949,-0.93368 l 0.71583,-2.95452 -4.74278,-1.1491 z" />
    </g>
    <g
       transform="matrix(0.82109893,0,0,0.82109893,1109.4978,-149.84451)"
       id="g5079"
       style="font-style:normal;font-variant:normal;font-weight:normal;font-stretch:normal;font-size:42.66666794px;line-height:125%;font-family:Age;-inkscape-font-specification:Age;letter-spacing:0px;word-spacing:0px;fill:#d5f6ff;fill-opacity:1;stroke:none;stroke-width:1.21788013px;stroke-linecap:butt;stroke-linejoin:miter;stroke-opacity:1"
       aria-label="raumPlayer">
      <path
         style="fill:#d5f6ff;stroke-width:1.48323178px"
         inkscape:connector-curvature="0"
         id="path5059"
         d="m -305.774,827.66548 c -4.992,0 -9.04534,4.05333 -9.04534,9.04533 0,5.33333 0,10.752 0,16.08533 h 7.80801 c 0,-5.33333 0,-10.752 0,-16.08533 0,-0.68267 0.55466,-1.23733 1.23733,-1.23733 h 4.864 v -7.808 z" />
      <path
         style="fill:#d5f6ff;stroke-width:1.48323178px"
         inkscape:connector-curvature="0"
         id="path5061"
         d="m -283.56733,852.79614 v -7.808 h -7.04 c -0.68267,0 -1.23734,-0.55466 -1.23734,-1.23733 v -7.04 c 0,-0.68267 0.55467,-1.23733 1.23734,-1.23733 h 7.04 c 0.68266,0 1.23733,0.55466 1.23733,1.23733 0,5.33333 0,10.752 0,16.08533 h 7.808 c 0,-5.33333 0,-10.752 0,-16.08533 0,-4.992 -4.05333,-9.04533 -9.04533,-9.04533 h -7.04 c -4.992,0 -9.04534,4.05333 -9.04534,9.04533 v 7.04 c 0,4.992 4.05334,9.04533 9.04534,9.04533 z" />
      <path
         style="fill:#d5f6ff;stroke-width:1.48323178px"
         inkscape:connector-curvature="0"
         id="path5063"
         d="m -263.774,844.98814 c -0.68267,0 -1.23733,-0.55466 -1.23733,-1.23733 v -16.08533 h -7.80801 v 16.08533 c 0,4.992 4.05334,9.04533 9.04534,9.04533 h 6.99733 c 4.992,0 9.04534,-4.05333 9.04534,-9.04533 v -16.08533 h -7.808 v 16.08533 c 0,0.68267 -0.55467,1.23733 -1.23734,1.23733 z" />
      <path
         style="fill:#d5f6ff;stroke-width:1.48323178px"
         inkscape:connector-curvature="0"
         id="path5065"
         d="m -230.754,835.47348 c 0.68267,0 1.23733,0.55466 1.23733,1.23733 v 16.08533 h 7.808 v -16.08533 c 0,-0.68267 0.55467,-1.23733 1.23734,-1.23733 h 6.18667 c 0.68266,0 1.23733,0.55466 1.23733,1.23733 v 16.08533 h 7.808 v -16.08533 c 0,-4.992 -4.05333,-9.04533 -9.04533,-9.04533 h -6.18667 c -1.87734,0 -4.096,1.23733 -5.12,2.816 -1.06667,-1.57867 -3.24267,-2.816 -5.16267,-2.816 h -6.144 c -4.992,0 -9.088,4.05333 -9.088,9.04533 v 16.08533 h 7.808 v -16.08533 c 0,-0.68267 0.59733,-1.23733 1.28,-1.23733 z" />
      <path
         style="fill:#d5f6ff;stroke-width:1.48323178px"
         inkscape:connector-curvature="0"
         id="path5067"
         d="m -187.484,847.97481 c 4.992,0 9.04533,-4.05333 9.04533,-9.04533 v -6.99734 c 0,-4.992 -4.05333,-9.04533 -9.04533,-9.04533 h -6.99733 c -4.992,0 -9.04534,4.05333 -9.04534,9.04533 0,6.95467 0,13.90934 0,20.864 h 7.808 c 0,-6.95466 0,-13.90933 0,-20.864 0,-0.68266 0.55467,-1.23733 1.23734,-1.23733 h 6.99733 c 0.68267,0 1.23733,0.55467 1.23733,1.23733 v 6.99734 c 0,0.68266 -0.55466,1.23733 -1.23733,1.23733 h -6.99733 v 7.808 z" />
      <path
         style="fill:#d5f6ff;stroke-width:1.48323178px"
         inkscape:connector-curvature="0"
         id="path5069"
         d="m -167.69066,845.03081 c -0.68266,0 -1.23733,-0.55467 -1.23733,-1.23733 0,-6.95467 -0.0427,-13.90934 -0.0427,-20.864 h -7.808 c 0,6.95466 0.0427,13.86666 0.0427,20.864 0,4.992 4.05333,9.04533 9.04533,9.04533 h 1.23734 v -7.808 z" />
      <path
         style="fill:#d5f6ff;stroke-width:1.48323178px"
         inkscape:connector-curvature="0"
         id="path5071"
         d="m -148.984,852.79614 v -7.808 h -7.04 c -0.68267,0 -1.23733,-0.55466 -1.23733,-1.23733 v -7.04 c 0,-0.68267 0.55466,-1.23733 1.23733,-1.23733 h 7.04 c 0.68267,0 1.23733,0.55466 1.23733,1.23733 0,5.33333 0,10.752 0,16.08533 h 7.808 c 0,-5.33333 0,-10.752 0,-16.08533 0,-4.992 -4.05333,-9.04533 -9.04533,-9.04533 h -7.04 c -4.992,0 -9.04534,4.05333 -9.04534,9.04533 v 7.04 c 0,4.992 4.05334,9.04533 9.04534,9.04533 z" />
      <path
         style="fill:#d5f6ff;stroke-width:1.48323178px"
         inkscape:connector-curvature="0"
         id="path5073"
         d="m -125.288,844.98814 c -0.512,0 -0.98133,-0.34133 -1.152,-0.85333 l -5.03467,-16.46933 h -8.10667 l 5.46134,18.048 c 1.19467,3.968 4.52267,7.08266 8.832,7.08266 h 2.38933 c 0.42667,0 0.85334,-0.0427 1.28,-0.0853 v 4.864 h 7.808 v -29.90933 h -7.808 c 0,5.80266 0,11.56266 0,17.32266 -1.23733,0 -2.432,0 -3.66933,0 z" />
      <path
         style="fill:#d5f6ff;stroke-width:1.48323178px"
         inkscape:connector-curvature="0"
         id="path5075"
         d="m -87.033996,838.41748 c 2.005333,-6.4 -3.029333,-10.752 -8.576,-10.752 h -6.997334 c -4.992,0 -9.04533,4.05333 -9.04533,9.04533 v 7.04 c 0,4.992 4.05333,9.04533 9.04533,9.04533 5.333334,0 10.666667,0 15.957334,0 v -7.808 c -5.290667,0 -10.624,0 -15.957334,0 -0.68267,0 -1.23733,-0.55466 -1.23733,-1.23733 v -7.04 c 0,-0.68267 0.55466,-1.23733 1.23733,-1.23733 h 6.997334 c 0.896,0 1.408,0.72533 1.152,1.57866 l -2.090667,6.74134 h 7.808 z" />
      <path
         style="fill:#d5f6ff;stroke-width:1.48323178px"
         inkscape:connector-curvature="0"
         id="path5077"
         d="m -76.10733,827.66548 c -4.992,0 -9.045333,4.05333 -9.045333,9.04533 0,5.33333 0,10.752 0,16.08533 h 7.808 c 0,-5.33333 0,-10.752 0,-16.08533 0,-0.68267 0.554667,-1.23733 1.237333,-1.23733 h 4.864 v -7.808 z" />
    </g>
    <rect
       y="541.16669"
       x="350"
       height="50"
       width="50"
       id="rect5086-3"
       style="display:inline;opacity:0.3;vector-effect:none;fill:#55ff55;fill-opacity:1;stroke:none;stroke-width:1;stroke-linecap:square;stroke-linejoin:miter;stroke-miterlimit:4;stroke-dasharray:none;stroke-dashoffset:0;stroke-opacity:1;paint-order:markers stroke fill" />
    <path
       style="color:#000000;font-style:normal;font-variant:normal;font-weight:normal;font-stretch:normal;font-size:medium;line-height:normal;font-family:sans-serif;font-variant-ligatures:normal;font-variant-position:normal;font-variant-caps:normal;font-variant-numeric:normal;font-variant-alternates:normal;font-feature-settings:normal;text-indent:0;text-align:start;text-decoration:none;text-decoration-line:none;text-decoration-style:solid;text-decoration-color:#000000;letter-spacing:normal;word-spacing:normal;text-transform:none;writing-mode:lr-tb;direction:ltr;text-orientation:mixed;dominant-baseline:auto;baseline-shift:baseline;text-anchor:start;white-space:normal;shape-padding:0;clip-rule:nonzero;display:inline;overflow:visible;visibility:visible;opacity:1;isolation:auto;mix-blend-mode:normal;color-interpolation:sRGB;color-interpolation-filters:linearRGB;solid-color:#000000;solid-opacity:1;vector-effect:none;fill:#ffffff;fill-opacity:1;fill-rule:nonzero;stroke:none;stroke-width:50.00000763;stroke-linecap:square;stroke-linejoin:miter;stroke-miterlimit:10;stroke-dasharray:none;stroke-dashoffset:0;stroke-opacity:1;paint-order:markers fill stroke;color-rendering:auto;image-rendering:auto;shape-rendering:auto;text-rendering:auto;enable-background:accumulate"
       d="m 375,551.16669 c -8.26453,0 -15,6.73549 -15,15 0,8.26453 6.73547,15 15,15 8.26453,0 15,-6.73548 15,-15 0,-8.26452 -6.73547,-15 -15,-15 z m 0,3.33282 c 6.34203,0 11.46793,5.01184 11.65781,11.30625 l -1.38633,1.70508 -1.9207,-5.53008 -1.59961,1.91836 -1.85625,-4.01016 -1.40742,2.0918 -2.4961,-6.45234 -2.81484,14.99765 -4.03125,-9.18398 -2.62383,3.89414 -2.69062,-2.44454 c 1.44149,-4.80657 5.88117,-8.29218 11.16914,-8.29218 z m 1.88789,7.30664 1.34414,3.25547 1.40742,-2.0918 1.85508,4.01016 1.59961,-1.91836 1.9875,5.09648 1.52813,-2.84062 c -0.57496,5.91848 -5.53548,10.51523 -11.60977,10.51523 -6.46307,0 -11.66719,-5.20294 -11.66719,-11.66602 0,-0.49003 0.0403,-0.96991 0.0984,-1.44374 l 2.38594,4.2914 2.62383,-3.89414 5.63085,11.68477 z"
       id="path4762-7"
       inkscape:connector-curvature="0" />
  </g>
  <g
     inkscape:groupmode="layer"
     id="layer3"
     inkscape:label="Fllung"
     style="display:inline">
    <rect
       style="opacity:1;vector-effect:none;fill:url(#linearGradient5483);fill-opacity:1;stroke:none;stroke-width:0;stroke-linecap:square;stroke-linejoin:miter;stroke-miterlimit:10;stroke-dasharray:none;stroke-dashoffset:0;stroke-opacity:1;paint-order:markers fill stroke"
       id="rect5475"
       width="191.84"
       height="134.02911"
       x="588.08002"
       y="132.98544" />
  </g>
  <g
     inkscape:groupmode="layer"
     id="layer4"
     inkscape:label="Shadow-Bar"
     style="display:inline">
    <path
       style="color:#000000;font-style:normal;font-variant:normal;font-weight:normal;font-stretch:normal;font-size:medium;line-height:normal;font-family:sans-serif;font-variant-ligatures:normal;font-variant-position:normal;font-variant-caps:normal;font-variant-numeric:normal;font-variant-alternates:normal;font-feature-settings:normal;text-indent:0;text-align:start;text-decoration:none;text-decoration-line:none;text-decoration-style:solid;text-decoration-color:#000000;letter-spacing:normal;word-spacing:normal;text-transform:none;writing-mode:lr-tb;direction:ltr;text-orientation:mixed;dominant-baseline:auto;baseline-shift:baseline;text-anchor:start;white-space:normal;shape-padding:0;clip-rule:nonzero;display:inline;overflow:visible;visibility:visible;opacity:1;isolation:auto;mix-blend-mode:normal;color-interpolation:sRGB;color-interpolation-filters:linearRGB;solid-color:#000000;solid-opacity:1;vector-effect:none;fill:#000000;fill-opacity:1;fill-rule:evenodd;stroke:none;stroke-width:13.39698887;stroke-linecap:square;stroke-linejoin:miter;stroke-miterlimit:10;stroke-dasharray:none;stroke-dashoffset:0;stroke-opacity:1;paint-order:markers fill stroke;filter:url(#filter5640);color-rendering:auto;image-rendering:auto;shape-rendering:auto;text-rendering:auto;enable-background:accumulate"
       d="m 29.99999,267.55176 v 1.21191 l 1.73984,-1.04258 0.27559,-0.16932 h -0.31543 c -1.7,1.2119 336.6,-0.31214 336.6,-0.31214 l -4.63184,-3.86152 -1.93243,2.21133 -3.4,-2.66952 -7.46073,4.63184 h 5.12989 l 2.11171,-1.88927 3.29375,1.88927 h 0.74707 l 1.74981,-2.4504 4.2035,2.4504 h 0.18927 0.37519 l 1.32481,1.10234 v -1.10234 z m 340,1.10235 -1.88927,-1.10235 h -5.95331 l -0.21915,0.30547 -0.52792,-0.30547 h -5.40546 l -5.77071,5.16971 -5.26933,-3.95117 -9.30021,31.6094 -8.8121,-31.4666 -7.00919,3.73202 -6.54433,-4.63515 -9.55254,4.62187 -1.30487,-5.08008 h -9.5625 l -1.33478,5.43202 -9.27363,-4.80117 -7.95214,3.56602 -5.08007,-3.17422 -9.9211,38.1371 -9.86798,-37.32696 -5.25274,4.001 -2.82558,-5.83379 h -8.8918 l -2.30762,4.94725 -8.21777,-4.25996 -9.43965,5.34904 -1.65683,-6.03633 h -9.49942 l -2.03867,7.24159 -5.66445,-5.96328 -9.36328,17.59102 -9.30352,-16.575 -6.74355,5.52167 -1.44434,-7.816 H 155.1492 l -1.43104,8.96816 -9.10099,-7.47404 -6.97929,5.16309 -2.99492,-6.65721 h -7.70313 l -3.78516,7.44746 -4.46914,-7.44746 h -0.37519 l -10.35938,60.69862 -11.62441,-60.69862 h -0.23574 l -3.39668,10.64823 -3.50957,-10.64823 h -8.14805 l -2.58984,7.9621 -5.41875,-7.53379 -10.11036,16.67129 -9.73515,-17.0996 h -2.63633 l -4.41269,2.9451 -2.98165,-2.9451 H 32.52343 l -2.52344,1.21191 c 50.35807,34.31477 43.16725,46.79666 70.42366,49.22197 1.37862,0.12267 5.6952,12.1533 7.24662,12.16172 4.67341,0.0254 4.48813,-9.57737 7.68045,-10.413 14.69506,-3.84658 28.85447,-5.79067 141.99273,-6.39137 19.63636,-0.10426 41.07323,-25.796 53.36404,-15.25123 32.27922,27.6936 39.52668,-25.37029 59.2925,-29.43765 z m -337.47656,-1.10235 7.15195,-3.42658 3.47636,3.42658 h 2.15821 l -5.56485,-4.63849 -7.72968,4.63849 z m 12.78652,0 0.77031,0.64412 0.80352,-0.64412 z m 1.57383,0 h 3.6623 l 1.90918,-1.275 0.72715,1.275 h 3.46972 l -3.34023,-5.14317 z m 9.76835,0 6.1459,9.46952 5.74414,-9.46952 z m 11.89004,0 h 12.49434 l 4.05078,-12.44121 4.09727,12.44121 h 6.90625 l 0.1461,-0.45821 0.0897,0.45821 h 4.12714 l -3.23398,-16.87384 -4.58867,14.37363 -7.57032,-22.97656 -7.99531,24.58027 -4.32637,-6.0164 z m 31.91153,0 7.26816,37.94121 6.47461,-37.94121 z m 13.74277,0 h 4.11387 l 0.083,-0.48477 0.29219,0.48477 h 8.25429 l 4.0873,-8.03184 3.61583,8.03184 h 4.44257 l -7.83593,-17.41838 -8.38711,16.492 -6.62402,-11.03671 z m 24.88906,0 0.18262,0.40508 0.54785,-0.40508 z m 0.73047,0 h 9.37656 l -4.43925,-3.64571 z m 9.37656,0 1.63692,1.34471 0.2125,-1.34471 z m 1.84942,0 h 4.10722 l 5.39883,-33.834 6.25215,33.834 h 4.12383 l -10.67149,-57.7336 z m 19.88203,0 0.0631,0.33202 0.40176,-0.33202 z m 0.46484,0 h 6.9627 l -2.19141,-3.90136 z m 6.9627,0 5.84375,10.4125 5.54492,-10.4125 z m 11.38867,0 h 11.61777 l 4.81114,-17.08302 4.68828,17.08302 h 21.62187 l 4.3629,-9.35665 4.5289,9.35665 h 11.7838 l -1.33809,-5.0668 -6.12931,4.66834 -8.90839,-18.40779 -8.49668,18.20525 -6.41485,-3.32029 -6.81992,3.86483 -8.82872,-32.16053 -8.87186,31.49315 -4.62851,-4.87091 z m 63.41466,0 6.12929,23.17909 6.03302,-23.17909 z m 12.16231,0 h 27.56191 l 4.67166,-19.03203 4.89084,19.03203 h 17.22578 l -5.97989,-4.23673 -7.24823,3.50625 -8.97813,-34.95293 -8.62618,35.14551 -6.43809,-3.33027 -7.76621,3.48302 -7.92558,-4.95393 z m 54.35019,0 0.47813,0.33866 0.63085,-0.33866 z m 1.10898,0 h 9.90781 l -1.28829,-4.59533 z m 9.90781,0 5.07677,18.13221 5.32909,-18.13221 z m 10.40586,0 h 9.01466 l -7.3877,-5.53496 z m 9.01466,0 0.34861,0.26229 0.42169,-0.26229 z"
       id="path4754-5-4-2"
       inkscape:connector-curvature="0"
       sodipodi:nodetypes="ccccccccccccccccccccccccccccccccccccccccccccccccccccccccccccccccccccccccccccccccsssssccccccccccccccccccccccccccccccccccccccccccccccccccccccccccccccccccccccccccccccccccccccccccccccccccccccccccccccccccccccccccccccccccccccccccc"
       transform="matrix(0.56423527,0,0,0.56423526,571.15293,116.0584)" />
  </g>
  <g
     inkscape:groupmode="layer"
     id="layer2"
     inkscape:label="Logo"
     style="display:inline">
    <path
       style="color:#000000;font-style:normal;font-variant:normal;font-weight:normal;font-stretch:normal;font-size:medium;line-height:normal;font-family:sans-serif;font-variant-ligatures:normal;font-variant-position:normal;font-variant-caps:normal;font-variant-numeric:normal;font-variant-alternates:normal;font-feature-settings:normal;text-indent:0;text-align:start;text-decoration:none;text-decoration-line:none;text-decoration-style:solid;text-decoration-color:#000000;letter-spacing:normal;word-spacing:normal;text-transform:none;writing-mode:lr-tb;direction:ltr;text-orientation:mixed;dominant-baseline:auto;baseline-shift:baseline;text-anchor:start;white-space:normal;shape-padding:0;clip-rule:nonzero;display:inline;overflow:visible;visibility:visible;opacity:1;isolation:auto;mix-blend-mode:normal;color-interpolation:sRGB;color-interpolation-filters:linearRGB;solid-color:#000000;solid-opacity:1;vector-effect:none;fill:url(#linearGradient4596-9);fill-opacity:1;fill-rule:evenodd;stroke:none;stroke-width:7.55905342;stroke-linecap:square;stroke-linejoin:miter;stroke-miterlimit:10;stroke-dasharray:none;stroke-dashoffset:0;stroke-opacity:1;paint-order:markers fill stroke;color-rendering:auto;image-rendering:auto;shape-rendering:auto;text-rendering:auto;enable-background:accumulate"
       d="m 588.08,132.98546 v 134.03508 0.6838 l 0.98168,-0.58826 0.1555,-0.0955 H 589.0392 V 133.94466 h 189.92158 v 132.89976 l -2.61345,-2.1788 -1.09035,1.24771 -1.91839,-1.50624 -4.20961,2.61345 h 2.89446 l 1.19151,-1.066 1.85844,1.066 h 0.42153 l 0.98731,-1.38261 2.37176,1.38261 h 0.10679 0.2117 l 0.7475,0.62198 v -0.62198 -134.03508 z m 191.83998,134.65706 -1.066,-0.62198 h -3.35906 l -0.12366,0.17235 -0.29787,-0.17235 h -3.04995 l -3.25604,2.91693 -2.97314,-2.22939 -5.2475,17.83513 -4.9721,-17.75456 -3.95483,2.10573 -3.69255,-2.61531 -5.38988,2.60783 -0.73625,-2.86636 h -5.3955 l -0.75313,3.06493 -5.23251,-2.70899 -4.48688,2.01208 -2.86635,-1.79101 -5.59784,21.5183 -5.56786,-21.06119 -2.96377,2.25751 -1.5943,-3.29163 h -5.01706 l -1.30204,2.79141 -4.63676,-2.40362 -5.32618,3.01812 -0.93484,-3.40591 h -5.35991 l -1.15029,4.08596 -3.19608,-3.3647 -5.2831,9.92548 -5.24937,-9.3522 -3.80494,3.11552 -0.81496,-4.41006 h -6.57389 l -0.80744,5.06015 -5.1351,-4.21712 -3.93796,2.9132 -1.68984,-3.75623 h -4.34638 l -2.13572,4.20212 -2.52164,-4.20212 h -0.2117 l -5.84513,34.2483 -6.5589,-34.2483 h -0.13301 l -1.91653,6.0081 -1.98022,-6.0081 h -4.59741 l -1.46128,4.49249 -3.05745,-4.25083 -5.70462,9.40653 -5.49292,-9.64819 h -1.48751 l -2.4898,1.66173 -1.68235,-1.66173 h -5.99686 l -1.42382,0.6838 v 40.68918 c 0,-3.93168 3.193,-7.12468 7.12468,-7.12468 h 3.83118 v 6.1505 h -3.83118 c -0.53764,0 -0.97419,0.43651 -0.97419,0.97418 v 12.66819 H 588.08 v 3.76373 h 152.16433 v -3.82931 c -0.33605,0.0337 -0.67003,0.0656 -1.00605,0.0656 h -1.8828 c -3.39403,0 -6.01514,-2.4539 -6.95607,-5.57909 L 726.098,301.26888 h 6.38467 l 3.9642,12.97168 c 0.13438,0.40324 0.50538,0.67256 0.90861,0.67256 h 2.88885 v -13.64424 h 6.1505 v 23.55657 h 33.52515 v -17.40611 h -3.82931 c -0.53765,0 -0.97606,0.43652 -0.97606,0.97418 v 12.66819 h -6.1505 v -12.66819 c 0,-3.93168 3.19487,-7.12468 7.12656,-7.12468 h 3.82931 z m -190.41616,-0.62198 4.03538,-1.9334 1.96148,1.9334 h 1.21774 l -3.13988,-2.61721 -4.36136,2.61721 z m 7.2146,0 0.43464,0.36343 0.45337,-0.36343 z m 0.88801,0 h 2.0664 l 1.07723,-0.7194 0.41028,0.7194 h 1.95774 l -1.88468,-2.90196 z m 5.51165,0 3.46773,5.34303 3.24105,-5.34303 z m 6.70878,0 h 7.04975 l 2.28559,-7.01977 2.31182,7.01977 h 3.89675 l 0.0824,-0.25854 0.0506,0.25854 h 2.32868 l -1.82472,-9.52082 -2.58909,8.11011 -4.27144,-12.96419 -4.51124,13.86906 -2.44109,-3.39467 z m 18.0056,0 4.10096,21.40777 3.6532,-21.40777 z m 7.75416,0 h 2.32119 l 0.0468,-0.27353 0.16486,0.27353 h 4.65736 l 2.3062,-4.53185 2.04018,4.53185 h 2.50665 l -4.42131,-9.82807 -4.73229,9.30537 -3.73751,-6.2273 z m 14.04328,0 0.10304,0.22856 0.30912,-0.22856 z m 0.41216,0 h 5.29058 l -2.50478,-2.05704 z m 5.29058,0 0.92361,0.75873 0.1199,-0.75873 z m 1.04351,0 h 2.31744 l 3.04621,-19.09034 3.52768,19.09034 h 2.32681 l -6.02123,-32.57534 z m 11.21814,0 0.0356,0.18733 0.22668,-0.18733 z m 0.26228,0 h 3.9286 l -1.23647,-2.20129 z m 3.9286,0 3.29725,5.8751 3.12864,-5.8751 z m 6.42589,0 h 6.55516 l 2.71461,-9.63885 2.6453,9.63885 h 12.19982 l 2.4617,-5.27935 2.55536,5.27935 h 6.64883 l -0.75499,-2.85887 -3.45837,2.63404 -5.02643,-10.38632 -4.79412,10.27204 -3.61949,-1.87342 -3.84804,2.18067 -4.98147,-18.1461 -5.00582,17.76954 -2.61157,-2.74834 z m 35.78078,0 3.45837,13.07846 3.40404,-13.07846 z m 6.86241,0 h 15.5514 l 2.63592,-10.73855 2.75958,10.73855 h 9.71939 l -3.37406,-2.39052 -4.08971,1.97835 -5.06578,-19.72167 -4.86719,19.83033 -3.6326,-1.87905 -4.38197,1.96524 -4.47189,-2.79518 z m 30.66629,0 0.26978,0.19108 0.35595,-0.19108 z m 0.62573,0 h 5.59033 l -0.72689,-2.59285 z m 5.59033,0 2.8645,10.23083 3.00686,-10.23083 z m 5.87136,0 h 5.08639 l -4.1684,-3.12302 z m 5.08639,0 0.19669,0.14799 0.23794,-0.14799 z m -85.83529,30.48643 h 5.50978 c 3.93171,0 7.12468,3.19116 7.12468,7.12281 v 5.51166 c 0,3.9317 -3.19297,7.12281 -7.12468,7.12281 h -5.50978 v -6.14862 h 5.50978 c 0.53768,0 0.97606,-0.43651 0.97606,-0.97419 v -5.51166 c 0,-0.53767 -0.43838,-0.97417 -0.97606,-0.97417 h -5.50978 c -0.53766,0 -0.97606,0.4365 -0.97606,0.97417 v 16.43192 h -6.14862 v -16.43192 c 0,-3.93165 3.19299,-7.12281 7.12468,-7.12281 z m 13.94212,0.0318 h 6.14863 c 0,5.47749 0.0337,10.95632 0.0337,16.4338 0,0.53764 0.43841,0.97419 0.97605,0.97419 h 0.97419 v 6.14862 h -0.97419 c -3.93166,0 -7.12468,-3.19114 -7.12468,-7.12281 0,-5.51108 -0.0337,-10.95631 -0.0337,-16.4338 z m -89.65146,3.73002 h 5.54537 c 3.93166,0 7.12281,3.19301 7.12281,7.12468 v 12.66818 h -6.14862 v -12.66818 c 0,-0.53768 -0.43653,-0.97418 -0.97419,-0.97418 h -5.54537 c -0.53764,0 -0.97419,0.4365 -0.97419,0.97418 v 5.54538 c 0,0.53768 0.43655,0.97418 0.97419,0.97418 h 5.54537 v 6.14862 h -5.54537 c -3.93169,0 -7.12468,-3.19112 -7.12468,-7.12281 v -5.54537 c 0,-3.93168 3.19299,-7.12468 7.12468,-7.12468 z m 14.00956,0 h 6.14861 v 12.67006 c 0,0.53767 0.43841,0.97418 0.97606,0.97418 h 5.51166 c 0.53768,0 0.97419,-0.43651 0.97419,-0.97418 v -12.67006 h 6.14862 v 12.67006 c 0,3.93168 -3.19108,7.1228 -7.12281,7.1228 h -5.51166 c -3.93168,0 -7.12467,-3.19112 -7.12467,-7.1228 z m 28.29265,0 h 4.83722 c 1.5122,0 3.22714,0.97483 4.06723,2.21815 0.8065,-1.24332 2.55306,-2.21815 4.03164,-2.21815 h 4.8728 c 3.93169,0 7.12469,3.19301 7.12469,7.12468 v 12.66818 h -6.15049 v -12.66818 c 0,-0.53768 -0.43651,-0.97418 -0.9742,-0.97418 h -4.8728 c -0.53769,0 -0.9742,0.4365 -0.9742,0.97418 v 12.66818 h -6.14862 v -12.66818 c 0,-0.53768 -0.43838,-0.97418 -0.97605,-0.97418 h -4.83722 c -0.53768,0 -1.00978,0.4365 -1.00978,0.97418 v 12.66818 h -6.14862 v -12.66818 c 0,-3.93168 3.22665,-7.12468 7.1584,-7.12468 z m 63.69499,0 h 5.54538 c 3.9317,0 7.12467,3.19301 7.12467,7.12468 v 12.66818 h -6.15049 v -12.66818 c 0,-0.53768 -0.4365,-0.97418 -0.97418,-0.97418 h -5.54538 c -0.53768,0 -0.97419,0.4365 -0.97419,0.97418 v 5.54538 c 0,0.53768 0.43651,0.97418 0.97419,0.97418 h 5.54538 v 6.14862 h -5.54538 c -3.93172,0 -7.12281,-3.19112 -7.12281,-7.12281 v -5.54537 c 0,-3.93168 3.19109,-7.12468 7.12281,-7.12468 z m 42.07178,0 h 5.50979 c 4.36854,0 8.33311,3.42919 6.75373,8.4698 l -1.34326,4.23398 h -6.14861 l 1.64488,-5.30932 c 0.20167,-0.67207 -0.20103,-1.24396 -0.90673,-1.24396 h -5.50978 c -0.53769,0 -0.9742,0.4365 -0.9742,0.97418 v 5.54538 c 0,0.53767 0.43651,0.97418 0.9742,0.97418 h 12.56701 v 6.14862 h -12.56701 c -3.9317,0 -7.12469,-3.19112 -7.12469,-7.1228 v -5.54538 c 4e-5,-3.93168 3.19299,-7.12468 7.12467,-7.12468 z"
       id="path4754-5-4-2-7"
       inkscape:connector-curvature="0" />
  </g>
</svg>
